<svg width="102" height="35" viewBox="0 0 102 35" fill="none" xmlns="http://www.w3.org/2000/svg">
<g clip-path="url(#clip0_176_21)">
<path d="M10.5529 9.07539C16.0044 7.58639 21.6216 10.8295 23.0579 16.2951L3.27519 21.6807C1.83892 16.215 5.10133 10.5644 10.5529 9.07539Z" fill="#F4F4EE" stroke="#F4F4EE" stroke-width="0.225489"/>
<path d="M24.9181 26.5084C19.4667 27.9974 13.8495 24.7543 12.4132 19.2887L32.1958 13.9031C33.6514 19.3353 30.389 24.986 24.9181 26.5084Z" fill="#F4F4EE" stroke="#F4F4EE" stroke-width="0.971077" stroke-miterlimit="10"/>
</g>
<path d="M36.7434 16.197C36.7434 15.107 36.949 14.092 37.3602 13.1522C37.7714 12.2058 38.3653 11.3866 39.142 10.6948C39.9252 9.99642 40.8782 9.44816 42.0008 9.05002C43.1299 8.65188 44.406 8.45281 45.8288 8.45281C47.0755 8.45281 48.2177 8.58008 49.2554 8.83463C50.2997 9.08265 51.269 9.46448 52.1632 9.9801L50.7338 12.3298C50.4662 12.1536 50.1562 11.9969 49.8037 11.8598C49.4578 11.7228 49.0857 11.6086 48.6876 11.5172C48.296 11.4193 47.8881 11.3442 47.4638 11.292C47.0461 11.2398 46.6316 11.2137 46.2204 11.2137C45.2283 11.2137 44.3439 11.3377 43.5672 11.5857C42.7905 11.8272 42.1346 12.1699 41.5994 12.6137C41.0707 13.051 40.666 13.5764 40.3854 14.19C40.1113 14.797 39.9742 15.466 39.9742 16.197C39.9742 16.9541 40.1178 17.6492 40.405 18.2823C40.6921 18.9154 41.1066 19.4637 41.6483 19.9271C42.1966 20.384 42.8623 20.743 43.6456 21.004C44.4353 21.2586 45.3262 21.3859 46.3183 21.3859C46.7687 21.3859 47.2158 21.3532 47.6596 21.288C48.1034 21.2227 48.531 21.1346 48.9421 21.0236C49.3599 20.9061 49.7613 20.7691 50.1464 20.6124C50.5314 20.4492 50.8904 20.273 51.2233 20.0837L52.6527 22.4334C51.8172 22.9686 50.8513 23.3896 49.7547 23.6964C48.6582 23.9966 47.4932 24.1467 46.2596 24.1467C44.6866 24.1467 43.3062 23.9444 42.1183 23.5397C40.9304 23.1285 39.9383 22.5672 39.142 21.8558C38.3457 21.1378 37.7453 20.2959 37.3406 19.3299C36.9424 18.3574 36.7434 17.3131 36.7434 16.197ZM55.7171 7.70874H58.615V13.2697C59.222 12.9368 59.8975 12.6724 60.6416 12.4766C61.3922 12.2808 62.1787 12.1829 63.0011 12.1829C63.954 12.1829 64.809 12.3233 65.5662 12.6039C66.3298 12.8846 66.976 13.2892 67.5046 13.8179C68.0333 14.3401 68.438 14.9764 68.7186 15.727C69.0058 16.4776 69.1494 17.3229 69.1494 18.2627V23.9411H66.2613V18.3802C66.2613 17.832 66.1732 17.3327 65.9969 16.8823C65.8207 16.4254 65.5629 16.0338 65.2235 15.7075C64.8841 15.3811 64.4696 15.1298 63.9801 14.9536C63.4971 14.7708 62.9489 14.6795 62.3353 14.6795C61.5978 14.6795 60.9125 14.797 60.2794 15.0319C59.6463 15.2669 59.0915 15.5639 58.615 15.9228V23.9411H55.7171V7.70874ZM73.9271 10.8123C73.6399 10.8123 73.3789 10.7731 73.1439 10.6948C72.9154 10.6099 72.7196 10.499 72.5565 10.3619C72.3933 10.2183 72.266 10.0552 72.1746 9.87241C72.0898 9.68313 72.0474 9.48406 72.0474 9.2752C72.0474 9.05981 72.0898 8.86074 72.1746 8.67799C72.266 8.48871 72.3933 8.32553 72.5565 8.18847C72.7196 8.0514 72.9154 7.94371 73.1439 7.86539C73.3789 7.78054 73.6399 7.73811 73.9271 7.73811C74.2208 7.73811 74.4819 7.78054 74.7103 7.86539C74.9453 7.94371 75.1444 8.0514 75.3076 8.18847C75.4707 8.32553 75.5947 8.48871 75.6796 8.67799C75.771 8.86074 75.8167 9.05981 75.8167 9.2752C75.8167 9.48406 75.771 9.68313 75.6796 9.87241C75.5947 10.0552 75.4707 10.2183 75.3076 10.3619C75.1444 10.499 74.9453 10.6099 74.7103 10.6948C74.4819 10.7731 74.2208 10.8123 73.9271 10.8123ZM72.4781 12.3885H75.3761V23.9411H72.4781V12.3885ZM79.1747 7.69895H82.0727V23.9411H79.1747V7.69895ZM85.8713 7.69895H88.7693V23.9411H85.8713V7.69895ZM92.4896 12.3885H95.3876V14.0529C96.0272 13.5764 96.7027 13.1652 97.4142 12.8193C98.1256 12.4734 98.8338 12.209 99.5387 12.0263L100.39 14.6795C99.2743 14.7904 98.292 15.0417 97.4435 15.4333C96.6016 15.8184 95.9162 16.3634 95.3876 17.0683V23.9411H92.4896V12.3885Z" fill="white"/>
<defs>
<clipPath id="clip0_176_21">
<rect width="22.098" height="27.9607" fill="white" transform="translate(0.5 20.0785) rotate(-60)"/>
</clipPath>
</defs>
</svg>
