<svg width="352" height="297" viewBox="0 0 352 297" fill="none" xmlns="http://www.w3.org/2000/svg">
<path d="M67.6632 12.4719C71.6835 12.1497 75.3167 12.4341 78.8331 12.8645C82.207 13.1842 87.9555 12.8757 93.0382 12.9279C98.3446 13.0411 103.589 12.9227 110.224 14.9084C112.001 15.49 114.104 16.0996 116.387 16.9768C118.689 18.028 121.223 18.476 124.71 22.5149C125.546 23.6058 126.193 24.6365 126.746 25.5471C128.337 28.2004 126.854 24.3067 129.136 28.0246C129.364 28.3794 129.586 28.7067 129.805 29.0119C131.245 30.2453 132.945 31.6405 134.679 33.4445C136.429 35.4525 139.054 37.8532 139.56 43.2375C139.629 44.7615 139.664 46.3184 139.531 48.1135C139.516 48.3043 139.498 48.4974 139.479 48.6945C139.88 50.0251 140.273 51.3211 140.665 52.5774C141.5 55.2656 141.996 57.298 142.553 58.7942C142.645 59.0464 142.717 59.2449 142.773 59.4055C143.143 60.378 143.028 60.3992 142.824 60.2463C143.319 61.4667 143.838 62.6349 144.413 63.7346C144.499 63.8953 144.591 64.0593 144.687 64.2248C146.409 66.9565 143.467 63.8015 145.316 66.6311C146.651 68.5765 148.332 70.5967 150.031 73.0178C152.364 76.5127 155.647 79.2702 159.731 82.2151C163.805 84.5175 170.8 85.7502 176.416 87.4465C186.573 90.1415 196.25 90.2897 203.779 91.0451C205.338 91.2577 206.736 91.4426 207.971 91.5559C210.544 92.3759 213.156 93.2953 215.774 94.2297C219.392 95.5301 222.036 97.7225 224.456 99.5656C229.16 103.224 232.972 108.047 234.916 113.799C236.735 119.751 236.334 124.773 236.412 129.298C236.408 129.845 236.396 130.324 236.383 130.748C238.232 131.061 240.092 131.384 241.963 131.723C246.291 132.482 251.573 133.785 255.178 134.866C259.463 135.947 264.221 136.854 269.362 138.662C270.172 138.953 270.947 139.339 271.761 139.822C273.833 141.218 275.826 142.611 281.202 145.183C281.927 145.117 282.15 144.686 282.61 144.443C283.143 144.758 283.668 145.091 284.175 145.432C286.399 146.931 289.158 148.321 292.234 150.044C295.503 151.922 298.081 153.34 300.691 154.182C306.79 156.181 312.763 158.119 318.689 159.716C319.815 160.026 321.639 160.297 323.786 160.781C325.912 161.413 328.772 161.571 332.409 165.274C334.301 167.405 335.271 169.776 335.864 171.582C337.463 176.556 338.689 181.512 339.298 186.969C339.582 189.7 339.716 192.549 339.348 195.701C338.939 198.807 338.134 202.556 335.095 206.094C333.299 208.13 331.144 209.874 328.716 211.197C326.121 212.498 323.96 213.338 321.969 214.054C321.884 215.526 321.804 216.992 321.668 218.351C322.187 219.378 322.697 220.412 323.148 221.48C324.182 225.72 322.198 229.641 320.824 233.422C319.933 235.607 318.747 237.641 317.496 239.64C316.275 241.566 315.603 242.364 315.025 243.021C314.264 243.727 313.526 244.136 311.398 244.241C311.128 244.4 310.85 244.559 310.561 244.712C306.998 246.256 302 248.358 296.535 247.323C292.263 246.491 288.322 245.696 283.688 243.489C278.995 240.711 275.392 239.914 270.337 239.853C266.779 239.835 264.738 240.269 261.414 241.789C262.011 242.417 262.606 243.034 263.151 243.637C264.965 245.727 265.114 247.644 265.311 248.734C265.755 254.941 264.754 250.723 264.787 251.194C264.793 253.069 264.741 254.504 264.818 255.656C265.102 260.597 264.556 262.08 264.227 263.184C263.828 264.275 263.472 265.04 262.366 268.231C261.777 269.889 261.458 271.095 261.385 272.023C260.937 274.722 262.591 274.957 261.452 277.303C260.894 278.337 259.524 280.013 257.845 281.664C255.446 283.904 252.47 283.682 250.302 283.598C248.8 283.488 247.499 283.278 246.535 283.095C245.807 283.219 245.038 283.273 244.227 283.236C244.18 283.233 244.133 283.23 244.086 283.227C241.316 283.07 237.911 283.387 234.412 283.706C230.735 283.929 227.655 284.734 222.057 283.804C220.911 283.62 218.029 283.295 215.896 282.874C213.665 282.46 211.48 281.962 209.384 281.432C206.773 280.071 202.567 278.54 197.734 276.87C190.65 274.422 182.174 271.796 175.318 269.513C171.292 268.174 171.684 267.861 168.855 266.829C166.843 266.101 165.385 265.627 164.311 265.322C159.691 264.042 162.303 265.797 159.869 265.288C152.92 263.883 149.28 262.492 144.976 260.179C141.646 258.338 137.893 256.277 131.194 253.428C130.727 253.262 125.523 251.714 122.711 251.301C121.444 251.17 119.9 250.975 119.511 250.901C110.612 249.205 118.217 249.962 112.788 248.34C105.881 246.238 100.526 244.337 93.9815 242.161C91.1001 241.231 87.4937 239.783 84.3976 238.383C84.2425 238.321 84.0836 238.263 83.9249 238.212C82.3706 237.663 79.9901 237.218 76.756 236.443C73.5956 235.726 69.073 233.9 66.3614 230.813C66.1859 230.627 66.0157 230.435 65.8614 230.249C65.0692 229.249 65.9479 229.39 65.3644 228.65C65.2287 228.444 65.0978 228.241 64.9688 228.043C61.8709 226.668 58.8578 225.155 56.1524 223.881C53.6527 222.902 52.4363 220.438 51.9024 218.63C51.329 216.736 51.105 214.973 50.794 213.337C50.3442 210.758 50.5735 208.349 50.9718 206.088C50.7313 205.004 50.5811 203.849 50.5665 202.652C50.5415 197.31 51.7111 192.326 52.6329 189.17C52.5993 185.445 54.0387 181.39 54.797 177.878C55.3748 176.202 56.1588 174.763 57.0538 173.468C57.2026 172.724 57.3737 171.958 57.5685 171.175C57.9187 169.756 58.3125 168.279 58.7696 166.704C59.0014 165.91 59.2431 165.105 59.546 164.202C59.954 163.227 59.8717 162.513 61.4942 160.273C62.026 159.652 62.444 159.321 62.9688 158.957C63.2419 158.776 63.5055 158.605 64.0001 158.374C64.0444 158.356 64.0876 158.336 64.1329 158.316C62.9713 156.583 61.509 155 59.8829 153.581C56.8405 150.82 53.209 148.937 49.7755 145.769C47.0755 142.954 45.719 139.547 44.171 136.46C42.1214 132.42 39.1629 128.502 36.713 124.345C34.9754 121.474 32.9346 118.715 31.0519 115.736C30.9058 115.504 30.7754 115.301 30.6583 115.124C29.2089 112.961 29.766 115.022 29.4884 114.589C23.1966 104.821 28.3407 110.417 26.2784 105.203C26.113 104.738 25.9038 104.189 25.6466 103.53C24.9077 105.327 23.0626 100.482 19.8888 93.0617C19.7637 92.8181 19.6386 92.5724 19.5128 92.3244C17.5898 88.4674 18.1085 90.8169 17.8858 90.4856C16.2058 87.8285 15.2067 85.4849 14.4142 83.8215C13.3146 81.5197 13.339 79.8938 13.2647 79.2707C13.0481 76.5115 12.6512 73.813 12.3722 71.4416C12.1953 69.9116 12.1415 68.5067 12.3448 67.3801C12.9391 64.5077 13.4909 71.0701 13.837 62.6086C13.5451 60.155 11.633 66.492 12.0626 59.8508C12.2766 57.6115 12.6485 55.1899 13.4308 52.6457C14.5194 49.1043 16.926 45.9271 19.796 43.3625C22.83 40.8946 25.9973 42.1309 28.172 42.7356C29.7852 43.2647 31.2957 43.8797 32.7804 44.469C32.3758 42.387 32.0797 40.2674 32.003 37.882C31.9699 36.5073 31.9957 35.0514 32.2979 33.302C32.6539 31.5844 33.0686 29.3383 35.4015 26.7502C37.0541 24.7999 41.8393 19.5559 47.1446 18.2356C50.7513 17.1267 53.9014 16.3801 56.9591 15.4504C56.6301 15.6368 59.3111 14.2822 61.3409 13.676C63.5066 12.9915 65.6485 12.6415 67.6632 12.4719ZM192.196 270.989C192.942 272.047 193.5 273.066 198.358 274.898C200.628 275.741 203.838 276.766 208.452 277.901C212.106 278.816 216.636 279.118 221.329 279.245C215.805 277.875 210.78 276.04 205.589 274.251C203.316 273.462 200.979 272.752 198.528 272.106C195.519 271.304 197.871 272.39 195.162 271.751C194.134 271.505 193.148 271.25 192.196 270.989ZM160.32 206.922C159.721 207.789 158.992 208.62 158.092 209.348C155.364 211.652 152.11 212.396 151.194 212.97C150.985 213.082 150.86 213.171 150.784 213.237C148.133 215.255 146.384 215.55 144.313 216.141C142.296 216.636 140.238 216.934 138.113 217.087C133.869 217.388 129.378 217.08 124.991 216.08C118.586 214.623 112.301 213.059 107.189 211.608C106.368 211.374 105.587 211.145 104.845 210.921C100.642 209.708 94.9986 207.565 93.087 207.695C89.0057 207.999 84.7922 208.125 82.7481 208.991C77.8737 211.15 72.8745 213.116 68.9669 215.353C68.371 215.674 66.9625 216.987 65.8175 218.163C66.5819 218.536 67.3408 218.896 68.1729 219.25C70.7811 220.398 73.48 221.432 76.2745 222.407C79.0796 223.385 81.8798 224.455 84.6476 225.657C87.3734 226.821 90.2217 228.302 91.7931 228.855C96.9203 230.657 101.715 232.591 106.338 234.502C110.621 236.287 107.722 235.72 108.598 236.236C111.124 237.719 114.455 238.991 117.16 239.799C118.867 240.135 122.687 240.442 123.274 240.608C127.492 241.524 131.441 242.614 135.273 243.763C143.923 246.363 151.397 249.529 158.788 251.973C167.969 255.046 177.233 257.862 187.005 261.167C193.36 263.426 199.874 264.827 207.585 266.747C209.863 267.327 212.187 267.885 214.565 268.421C215.785 268.7 222.66 269.65 228.85 270.836C232.098 271.466 235.078 272.296 237.06 273.187C237.341 273.299 240.525 274.815 244.004 275.486C245.489 275.761 247.065 275.913 248.482 275.78C248.673 275.701 245.988 274.996 250.545 275.199C252.329 271.881 251.852 268.08 252.004 264.664C251.831 257.903 249.689 251.741 250.01 245.252C250.02 244.495 250.089 243.762 250.387 243.204C250.085 242.773 249.768 242.262 249.448 241.637C249.272 241.298 249.092 240.888 248.929 240.423C248.561 240.27 248.191 240.102 247.82 239.917C244.86 238.63 242.601 234.88 242.594 234.913C241.266 233.167 239.51 231.526 237.808 230.471C236.619 229.699 235.645 228.927 234.81 228.18C231.312 227.476 227.041 225.955 223.652 224.263C222.563 223.72 221.503 223.255 220.57 222.866C215.708 221.596 211.12 220.502 207.612 218.85C205.442 217.871 203.501 217.081 201.912 216.42C200.672 216.055 200.421 215.907 200.537 215.838C199.654 215.457 198.934 215.123 198.412 214.818C198.361 214.789 198.312 214.761 198.265 214.734C196.316 214.246 194.288 213.745 192.206 213.22C188.456 212.275 184.544 211.284 180.72 209.929C179.42 209.533 178.122 209.165 176.828 208.813C177.456 209.393 177.527 210.305 175.318 210.091C174.907 210.055 174.402 209.983 173.795 209.866C170.263 209.198 165.36 207.892 160.32 206.922ZM202.736 271.773C202.609 271.053 196.776 269.821 198.512 270.875C198.628 270.941 202.767 271.987 202.736 271.773ZM254.764 247.624C254.847 249.878 255.045 252.034 255.387 254.228C255.75 256.648 256.391 259.627 256.539 262.822C256.652 262.005 256.74 261.196 256.796 260.351C256.858 259.523 257 258.307 256.976 256.728C256.86 254.819 256.985 252.995 256.964 251.447C257.004 250.544 256.818 249.756 256.733 249.418C256.163 248.863 255.507 248.28 254.764 247.624ZM277.574 234.45C275.239 235.051 272.964 235.551 271.224 236.069C276.216 236.169 281.021 237.383 285.448 240.002C289.227 241.767 293.202 242.582 297.232 243.252C298.518 243.47 299.817 243.453 301.093 243.276C299.508 242.972 297.88 242.59 296.095 242.098C294.109 241.543 292.028 240.581 289.615 239.462C289.155 239.255 288.694 239.051 288.226 238.858C285.899 237.898 283.597 236.796 281.176 235.638C280.004 235.162 278.804 234.778 277.574 234.45ZM316.361 216.096C312.571 217.551 308.652 219.261 306.411 220.933C303.041 223.736 297.498 227.564 292.212 229.371C289.015 230.509 286.014 231.75 282.569 232.924C284.316 233.526 286.039 234.034 287.538 234.318C288.275 234.457 288.422 233.949 289.364 234.22C289.495 234.258 289.625 234.295 289.753 234.333C293.436 235.529 295.345 236.641 297.568 237.336C300.021 238.13 302.688 238.899 305.86 239.331C307.057 239.488 308.296 239.596 309.413 239.594C310.632 238.469 311.524 236.88 312.326 235.55C313.838 233 314.788 230.976 315.671 229.085C316.242 227.825 316.642 226.53 316.927 225.084C317.297 223.173 317.538 221.263 317.73 219.362C317.317 218.302 316.841 217.215 316.361 216.096ZM270.335 237.564C269.354 237.556 268.479 237.608 267.716 237.699C266.985 238.207 266.011 238.892 264.813 239.556C265.205 239.604 265.748 239.599 266.447 239.518C267.776 239.505 269.097 239.491 270.337 239.444C274.34 239.296 276.891 238.795 274.927 238.195C273.338 237.781 271.769 237.602 270.335 237.564ZM176.009 135.213C175.939 135.23 175.86 135.287 175.773 135.391C175.676 135.503 175.504 137.688 175.345 137.824C175.135 137.998 175.171 137.216 174.953 137.417C174.935 137.434 174.968 137.913 174.829 137.903C174.181 137.854 173.482 137.637 172.884 137.764C172.803 137.78 173.006 138.521 172.895 138.557C172.37 138.719 171.839 138.784 171.319 138.539C171.191 138.477 171.135 137.942 171.074 137.792C170.69 136.897 170.819 138.305 170.803 138.337C170.709 138.473 170.614 138.561 170.518 138.616C169.384 139.098 168.312 138.545 167.332 139.331C167.268 139.385 167.101 140.975 166.53 139.799C166.491 139.72 165.921 138.515 165.935 139.438C165.937 139.498 166.254 140.11 165.977 140.112C165.747 140.113 165.499 140.481 165.116 140.26C165.63 141.306 166.405 142.463 167.188 144.769C167.35 145.308 167.606 145.97 167.94 146.737C168.722 148.477 167.753 147.77 167.851 148.113C168.366 149.802 169.143 151.429 169.783 153.074C171.146 156.785 172.147 159.417 172.412 160.444C172.619 161.387 172.813 162.298 173.013 163.165C173.182 164.09 173.314 164.984 173.423 165.848C174.926 167.447 176.373 168.457 177.639 169.254C181.162 171.387 183.078 171.77 186.193 172.647C187.816 173.047 190.04 173.31 193.562 173.654C195.205 173.829 198.475 174.669 201.567 175.774C204.967 176.981 207.699 178.626 208.134 178.837C211.174 180.463 207.5 180.138 208.539 180.626C209.632 181.136 210.587 181.512 211.446 181.776C216.261 183.371 218.597 182.651 224.222 186.479C225.177 187.06 226.438 187.827 227.862 188.772C228.191 188.997 226.455 188.588 227.313 189.231C229.978 191.226 232.909 192.852 235.498 194.921C237.412 196.454 238.818 197.832 240.148 199.218C242.173 201.315 243.495 203.704 245.041 207.136C245.767 208.672 247.114 210.348 248.768 212.274C249.612 213.343 249.942 210.712 254.814 217.655C255.351 218.499 255.872 219.476 256.37 220.585C256.881 221.7 257.714 223.778 258.604 226.248C258.771 226.683 258.905 227.129 259.01 227.582C259.411 227.49 259.767 227.382 260.342 227.366C260.672 227.32 261.136 227.376 261.73 227.511C262.24 227.196 262.808 226.851 263.445 226.478C267.923 224.242 271.614 223.876 274.963 222.924C278.925 221.865 283.574 219.928 288.097 218.302C292.192 216.811 295.241 214.794 299.259 211.538C303.799 208.257 308.1 206.669 312.437 204.954C316.207 203.487 320.428 202.196 323.046 200.842C324.226 200.204 325.311 199.339 326.228 198.305C327.58 197.005 328.088 192.418 327.578 188.261C327.121 183.989 326.051 179.521 324.685 175.261C324.334 174.172 323.971 173.484 323.608 173.075C323.401 172.965 322.502 172.515 321.421 172.293C320.016 171.946 318.333 171.696 316.371 171.232C316.138 171.175 315.898 171.114 315.654 171.048C309.547 169.383 303.338 167.324 297.085 165.205C293.166 163.904 289.639 161.832 286.58 160.034C283.89 158.472 280.84 156.923 277.813 154.844C275.153 152.96 271.342 151.559 267.562 149.919C263.261 148.129 257.936 147.175 252.612 145.929C247.993 144.658 244.278 143.805 240.016 143.099C236.39 142.492 232.733 141.958 229.16 141.436C225.734 140.936 227.679 141.846 227.022 141.794C222.364 141.413 220.505 141.042 219.274 140.646C219.225 140.797 219.16 140.82 219.054 140.571C218.936 140.53 218.821 140.492 218.711 140.45C218.546 140.388 218.387 140.324 218.227 140.259C218.224 140.266 218.224 140.272 218.222 140.275C217.96 140.547 217.82 140.118 217.541 140.304C217.262 140.49 216.922 140.771 216.625 140.575C216.497 140.49 216.367 139.947 216.276 139.56C215.962 139.466 215.605 139.371 215.194 139.268C215.169 139.595 215.145 139.922 215.12 140.247C214.224 140.147 213.363 139.651 212.454 139.654C212.342 139.656 212.409 140.397 212.287 140.419C211.77 140.503 211.359 139.95 210.816 140.122C210.396 140.259 209.89 141.007 209.444 141.172C209.295 139.587 208.62 140.07 208.166 139.891C208.008 139.828 208.051 139.413 207.946 139.267C207.552 138.728 207.644 140.126 207.507 140.334C206.915 141.22 207.13 138.09 206.525 138.113C206.493 138.114 205.956 139.743 205.891 139.846C205.486 140.491 205.884 139.263 205.682 139.118C205.309 138.858 205.076 138.434 204.567 138.877C204.42 139.009 203.992 140.015 203.811 139.186C203.787 139.078 203.861 138.533 203.838 138.493C203.601 138.181 203.437 138.522 203.28 138.993C203.137 139.409 202.999 139.925 202.823 140.183C202.443 140.733 202.115 139.485 202.067 139.129C201.936 138.211 202.302 138.772 202.327 138.687C202.609 137.669 202.255 137.807 202.016 137.687C202.082 137.074 202.076 136.69 202.04 136.522C202.001 136.514 201.963 136.507 201.924 136.499C201.861 136.648 201.796 137.01 201.768 137.569C201.76 137.734 201.975 137.603 202.016 137.687C201.582 139.317 201.15 139.475 200.949 137.868C200.857 137.115 201.161 136.297 200.53 136.521C200.245 136.622 200.175 137.797 199.892 138.078C199.244 138.72 198.719 137.531 198.156 137.619C197.952 137.652 198.044 138.314 197.902 138.36C197.524 138.478 197.287 137.956 196.904 138.149C196.87 138.172 196.847 138.842 196.74 138.836C196.092 138.804 195.568 138.471 194.993 138.286C194.796 138.233 194.596 138.186 194.39 138.156C193.908 138.088 193.025 138.328 192.578 138.18C191.797 137.927 191.035 136.806 190.373 136.942C189.944 137.028 189.931 137.707 189.691 138.134C189.235 138.962 188.904 137.311 188.855 137.055C188.853 137.046 189.21 136.935 189.078 136.569C189.07 135.841 188.858 137.051 188.855 137.055C188.826 136.889 188.178 136.654 188.034 136.769C187.956 136.832 187.924 137.467 187.885 137.488C187.608 137.63 187.342 137.738 187.083 137.812C186.235 137.962 185.465 137.883 184.755 137.58C184.738 137.565 184.858 136.867 184.818 136.835C184.258 136.441 183.764 137.253 183.212 137.699C182.662 138.145 182.318 137.922 182.209 136.672C181.837 136.776 181.414 136.174 181.172 135.812C180.929 135.45 180.717 136.821 180.69 136.846C179.823 137.623 179.494 136.786 178.754 136.594C178.402 136.5 177.708 136.653 177.36 136.792C177.084 136.903 176.932 136.575 176.694 136.781C176.664 136.814 176.692 137.424 176.683 137.45C176.443 138.189 176.553 136.68 176.498 136.409C176.341 135.641 176.208 135.155 176.009 135.213ZM318.556 223.839C318.246 224.468 317.858 225.534 317.35 227.279C317.835 225.971 318.268 224.641 318.556 223.839ZM174.006 176.432C174.036 177.204 174.076 177.965 174.138 178.721C174.16 179.911 174.231 181.042 174.114 182.213C175.152 182.789 176.159 183.33 177.199 183.827C181.993 186.149 187.48 187.839 193.488 190.767C200.64 194.286 208.832 197.462 216.753 202.063C219.301 203.587 221.893 204.96 224.65 206.369C228.34 208.374 232.139 209.618 236.788 213.255C240.289 216.387 242.371 219.364 244.058 220.363C245.599 221.337 246.992 222.414 248.269 223.59C248.108 223.144 247.878 222.623 247.554 222.011C246.991 221.055 246.024 219.751 244.564 218.056C243.21 216.481 245.155 219.819 241.679 215.435C240.65 214.053 239.654 212.972 238.269 210.207C237.28 208.106 236.294 206.653 235.059 205.711C231.259 202.771 226.732 199.892 222.066 197.28C221.415 196.901 220.083 196.323 217.882 194.943C214.277 192.46 212.691 191.354 210.192 189.77C209.595 189.396 210.956 189.343 209.099 188.542C208.939 188.48 208.766 188.413 208.575 188.341C204.879 186.925 202.156 185.68 199.321 185.004C194.626 183.738 189.601 183.644 182.567 180.914C179.879 179.751 176.796 178.261 174.006 176.432ZM224.89 221.315C221.206 219.91 217.896 219.527 220.539 220.665C220.987 220.867 221.566 221.088 222.214 221.335C222.816 221.46 223.42 221.595 224.026 221.745C225.52 222.146 227.023 222.549 228.572 222.96C228.437 222.845 228.278 222.725 228.099 222.599C227.135 222.197 225.991 221.752 224.89 221.315ZM207.956 217.952C209.932 218.764 211.838 219.307 213.709 219.731C211.543 218.773 209.643 218.288 207.721 217.856C207.799 217.888 207.878 217.92 207.956 217.952ZM161.065 189.844C160.776 189.866 160.502 189.892 160.245 189.932C158.46 190.25 156.293 190.922 153.909 191.302C154.152 192.563 154.275 193.82 154.317 195.075C154.413 194.947 154.534 194.787 154.687 194.588C154.859 194.401 155.081 194.156 155.551 193.821C155.59 193.834 156.491 192.966 158.382 192.914C160.4 192.782 162.413 194.537 162.807 195.5C163.715 197.424 163.36 197.919 163.431 198.004C163.429 198.104 163.426 198.187 163.421 198.259C163.401 198.541 163.376 198.68 163.358 198.797C163.256 199.337 163.243 199.323 163.2 199.503C162.923 200.555 162.57 202.313 161.793 204.185C163.773 204.442 165.456 204.666 166.512 204.913C166.678 204.947 166.827 204.979 166.957 205.01C171.939 206.205 176.444 207.117 181.208 208.518C185.006 209.803 188.793 210.723 192.591 211.576C195.631 212.26 198.636 212.868 201.659 213.428C207.204 214.519 209.085 213.768 212.419 214.384C211.689 213.977 210.963 213.563 210.245 213.14C203.646 209.343 195.958 206.381 187.635 202.35C183.396 200.25 177.572 198.392 171.609 195.536C168.48 194.027 165.461 192.144 163.202 190.939C162.51 190.574 161.789 190.204 161.065 189.844ZM109.009 198.664C106.56 197.78 105.291 198.451 104.302 198.906C103.268 199.435 102.491 200.137 100.368 201.334C100.341 201.349 100.313 201.362 100.285 201.377C103.003 202.159 106.004 203.136 109.309 204.105C114.61 205.663 120.646 207.337 126.693 208.909C133.57 210.729 142.176 210.56 146.409 208.049C146.473 207.996 146.537 207.945 146.602 207.895C144.47 207.953 142.325 207.385 140.4 207.182C136.805 206.577 133.29 205.93 129.731 205.433C127.167 205.069 124.652 204.645 122.148 204.094C118.861 203.329 121.959 203.283 120.066 202.809C114.319 201.335 111.249 199.535 109.009 198.664ZM79.631 202.83C77.3773 203.388 75.208 204.134 73.0968 205.22C71.167 206.131 69.6196 207.564 67.9405 209.15C73.2925 206.326 76.7494 204.826 79.9806 203.014C80.1706 202.92 80.3611 202.831 80.5509 202.745C80.2483 202.773 79.9417 202.802 79.631 202.83ZM161.524 204.8C161.325 205.229 161.102 205.661 160.852 206.089C162.724 206.203 164.98 206.078 168.805 206.7C167.935 206.467 167.071 206.232 166.213 205.987C164.632 205.547 163.064 205.157 161.524 204.8ZM24.2335 49.5207C22.5799 51.0916 21.1256 52.9969 20.5089 54.9748C19.076 59.475 18.7276 65.7755 19.1905 70.8762C19.5233 75.0577 20.2253 78.3276 21.1144 79.7004C21.1366 79.7376 21.1589 79.774 21.1808 79.8088C23.7211 84.204 24.7198 87.1302 26.1378 89.9709C28.1643 94.3659 28.9489 97.5739 30.8878 101.285C31.3664 102.211 31.4643 100.995 31.6241 101.27C31.8212 101.6 32.0064 101.906 32.1808 102.194C36.0434 108.069 33.1542 105.652 33.7989 107.282C34.5048 108.908 35.1972 110.42 35.9083 111.945C37.1378 114.71 38.8753 117.36 41.4239 121.506C42.5287 123.336 43.8531 125.333 45.5479 127.734C46.3008 128.846 48.2177 130.645 50.2394 133.465C52.219 136.193 54.1785 138.689 55.1632 139.666C55.3101 139.827 55.4367 139.955 55.547 140.062C56.4086 140.843 57.396 141.687 58.0118 142.303C58.7361 143.001 59.6174 143.685 62.5675 145.789C63.1015 146.247 63.3086 145.496 67.1153 149.074C70.1425 152.047 73.0555 156.14 74.3565 161.005C74.5525 161.76 74.788 162.632 74.8204 164.061C74.9245 165.425 74.2302 167.788 73.6837 168.637C72.8707 170.053 71.4834 174.445 69.4474 177.743C67.5841 180.884 65.9643 183.326 65.0421 185.663C64.1244 187.942 63.326 190.498 62.5675 193.137C61.6448 196.359 60.7372 199.623 60.2472 202.414C60.0181 203.65 59.7932 204.785 59.5978 205.817C59.9356 206.029 60.2143 206.211 60.4483 206.369C60.4653 206.348 60.482 206.326 60.4991 206.304C61.7488 204.733 63.4255 203.583 64.8673 202.977C70.464 200.413 71.1458 199.81 74.1729 199.032C74.488 198.949 74.8459 198.863 75.2716 198.772C76.9702 198.192 78.6766 197.729 80.296 197.404C85.7541 196.355 80.3854 196.651 83.9972 195.969C84.1143 195.947 84.2315 195.925 84.3487 195.904C88.6479 195.13 92.5031 193.96 97.3155 193.007C101.472 192.29 105.886 190.703 111.925 190.363C113.097 190.376 110.126 189.535 114.333 189.777C114.95 189.847 115.599 189.957 116.267 190.125C122.745 191.773 128.897 193.461 135.154 195.79C137.793 196.816 140.176 197.837 142.497 198.743C142.102 198.335 141.892 198.276 141.866 198.241C141.784 198.193 141.72 198.161 141.672 198.136C141.695 198.146 141.719 198.157 141.743 198.166C143.667 198.675 144.998 199.375 145.88 199.975C146.42 200.155 146.955 200.327 147.478 200.478C147.88 197.393 147.488 192.655 146.849 190.92C146.277 190.73 145.718 190.508 145.172 190.263C142.92 189.051 147.596 192.733 141.366 188.846C140.658 188.303 139.977 187.706 139.325 186.992C139.112 186.766 138.914 186.532 138.729 186.292C134.77 184.826 130.902 183.763 126.233 182.112C122.824 180.822 120.243 179.321 117.783 178.164C116.138 177.375 114.85 176.739 113.542 176.241C111.516 175.832 109.232 175.293 106.904 174.364C105.94 173.979 105.06 173.581 104.237 173.185C101.766 172.696 99.3298 172.206 96.7618 171.495C95.1001 170.975 93.524 170.426 91.9972 169.754C91.8121 169.871 91.5607 169.927 91.1583 169.835C90.5027 169.67 89.8196 169.4 89.1827 169.047C87.7517 168.215 86.8089 167.22 86.1798 166.262C85.6286 165.822 85.0774 165.347 84.5255 164.83C82.5871 162.838 79.3693 160.607 77.4698 155.384C77.255 154.724 77.1297 154.152 77.0352 153.631C76.8016 152.097 76.7129 150.902 76.6622 149.913C75.9464 148.505 75.2767 147.092 74.6476 145.682C74.0345 144.301 73.4179 142.931 72.8009 141.568C70.3081 138.448 68.959 135.653 67.795 133.431C67.1239 132.091 66.3304 130.669 65.6212 129.278C64.2971 127.535 62.8102 125.506 61.3624 123.313C58.9009 119.568 55.7558 115.415 53.0938 111.39C51.0385 108.304 49.1649 105.387 47.7452 102.834C45.316 98.4368 44.1313 96.1507 43.2657 95.0793C42.6309 94.2157 42.2557 93.915 42.13 93.6106C40.3882 89.3029 39.3586 85.366 38.4415 81.8205C37.8026 79.188 36.2793 75.9079 35.8995 71.4807C35.6387 67.7039 35.432 64.5849 34.8702 61.4367C34.8387 61.3596 34.8058 61.2826 34.7745 61.2053C33.995 59.243 33.483 57.5416 33.1681 56.0842C32.9828 55.0448 32.8498 54.1858 32.7579 53.4641C32.4044 52.638 32.1276 52.2285 32.044 52.382C29.1277 51.2694 25.9363 49.8049 24.2335 49.5207ZM159.877 198.778C159.83 198.819 159.93 198.835 159.454 199.261C159.376 199.299 159.362 199.398 158.892 199.538C158.838 199.733 158.784 199.927 158.732 200.118C159 200.08 159.222 199.996 159.382 199.921C159.46 199.741 159.54 199.562 159.616 199.384C159.698 199.194 159.779 199.001 159.852 198.836C159.866 198.804 159.889 198.754 159.895 198.743C159.898 198.735 159.899 198.737 159.877 198.778ZM114.055 196.381C116.199 197.342 118.416 198.172 120.886 198.74C123.511 199.381 126.061 199.794 127.79 200.028C127.933 199.915 128.332 199.89 128.158 199.803C122.47 197.005 117.986 197.252 115.955 196.771C115.522 196.669 115.089 196.568 114.657 196.467C114.457 196.433 114.256 196.406 114.055 196.381ZM156.743 197.765C156.777 197.543 156.738 197.765 156.717 197.83C156.626 198.211 156.535 198.581 156.444 198.941C156.574 199.204 156.802 199.517 157.235 199.789C157.271 199.595 157.304 199.399 157.335 199.204C157.178 199.087 157.057 198.96 157.005 198.839C156.595 198.07 156.77 197.921 156.735 197.903C156.737 197.836 156.74 197.795 156.743 197.765ZM160.361 198.976C160.347 198.997 160.325 199.038 160.303 199.077C160.283 199.114 160.263 199.152 160.242 199.192C160.277 199.14 160.297 199.108 160.315 199.079C160.36 198.999 160.355 199.003 160.364 198.984C160.375 198.958 160.367 198.968 160.361 198.976ZM141.672 198.136C141.565 198.091 141.473 198.051 141.516 198.062C141.533 198.07 141.567 198.081 141.672 198.136ZM157.511 197.855C157.512 197.904 157.501 197.81 157.51 197.942C157.513 197.917 157.516 197.894 157.519 197.871C157.522 197.845 157.523 197.826 157.521 197.821C157.52 197.817 157.516 197.82 157.511 197.855ZM156.204 197.623C156.211 197.604 156.216 197.588 156.221 197.576C156.222 197.573 156.223 197.571 156.224 197.569C156.214 197.54 156.202 197.513 156.204 197.623ZM148.664 142.711C148.377 142.615 148.655 144.327 148.626 144.402C148.29 145.094 147.652 144.519 147.216 144.94C147.127 145.027 147.487 145.635 147.41 145.702C147.15 145.935 146.699 145.783 146.409 145.966C146.28 146.05 146.512 146.53 146.367 146.547C146.022 146.593 145.652 146.508 145.135 146.188C145.088 146.159 145.021 145.465 144.769 145.547C144.613 145.599 144.415 145.597 144.214 145.612C143.874 145.642 143.529 145.715 143.349 146.133C143.263 146.336 143.729 147.46 143.088 146.818C142.953 146.681 142.477 145.299 142.596 146.617C142.618 146.839 142.637 148.669 141.917 147.776C141.728 147.54 141.078 146.511 140.971 146.756C140.96 146.797 141.295 147.362 141.172 147.481C140.729 147.886 140.153 148.034 139.68 148.431C139.553 148.538 140.009 149.09 139.813 149.231C139.79 149.247 139.767 149.261 139.743 149.276C140.574 151.628 140.951 153.898 141.282 155.449C141.961 158.52 142.012 155.638 142.563 157.736C142.594 157.853 142.626 157.983 142.658 158.121C143.719 163.05 144.061 166.631 144.92 170.496C145.01 170.945 145.095 171.396 145.179 171.845C146.197 172.017 147.329 172.249 148.642 172.609C151.17 173.385 154.107 173.919 157.331 174.628C160.026 175.312 162.203 176.148 164.204 177.053C164.197 176.687 164.192 176.323 164.189 175.961C164.183 175.067 165.197 181.088 164.798 173.62C164.689 171.398 164.621 168.92 164.428 166.906C164.245 166.616 164.073 166.332 163.918 166.055C163.866 165.972 163.814 165.889 163.763 165.806C160.728 160.631 162.896 162.736 160.451 157.197C160.417 157.111 160.381 157.022 160.345 156.932C159.545 154.955 158.534 152.301 157.458 149.536C156.924 148.094 155.507 145.998 154.051 143.844C153.175 144.187 151.853 144.868 150.279 144.946C150.039 144.889 149.77 144.762 149.497 144.507C148.693 143.8 149.223 142.93 148.664 142.711ZM130.14 151.009C129.694 150.172 129.581 151.467 129.52 151.601C129.244 152.21 128.992 151.748 128.676 151.909C127.131 152.706 125.163 152.769 123.834 152.896C123.214 152.954 122.667 152.974 122.207 152.994C121.203 153.09 120.247 153.235 119.283 153.728C119.19 153.777 119.575 154.435 119.499 154.487C118.496 155.099 117.314 155.321 116.321 156.067C116.24 156.126 116.691 156.704 116.573 156.822C116.333 157.066 115.947 157.221 115.542 157.176C115.345 157.155 115.252 156.507 115.058 156.497C114.605 156.476 114.206 156.633 113.902 156.932C113.775 157.061 114.359 157.578 114.166 157.695C113.833 157.9 113.5 158.111 113.157 158.313C112.175 158.89 111.004 159.456 109.367 159.523C109.214 159.527 108.418 158.26 108.298 158.644C108.469 159.023 108.693 159.457 108.887 159.856C108.533 160.075 108.155 160.28 107.757 160.474C109.185 161.225 110.514 161.905 111.65 162.36C113.985 163.342 116.884 163.689 120.775 164.589C125.949 165.951 129.613 167.729 133.633 169.278C133.842 169.361 134.053 169.44 134.265 169.519C133.655 166.248 133.209 162.958 132.588 160.12C131.801 156.933 131.527 153.969 130.617 151.78C130.547 151.77 130.476 151.761 130.406 151.748C130.211 151.71 130.204 151.129 130.14 151.009ZM87.2413 139.947C88.4347 142.573 89.7003 145.012 91.1114 147.31C91.9713 148.774 92.9821 150.113 94.1261 151.841C96.9157 150.934 99.0711 150.773 100.946 150.372C101.398 150.301 101.877 150.186 102.387 150.032C103.187 149.798 104.506 149.802 105.301 149.039C105.393 148.95 105.034 148.463 105.029 148.407C104.976 147.566 105.468 148.682 105.762 148.7C106.395 148.737 106.986 148.599 107.521 148.354C107.968 148.149 108.37 147.871 108.719 147.558C109.044 147.265 108.094 146.423 108.795 146.804C108.843 146.832 109.055 147.442 109.19 147.446C109.495 147.453 109.885 147.114 110.092 147.062C110.49 146.965 110.546 146.929 110.885 146.762C111.352 146.538 112.044 146.545 112.482 146.172C112.574 146.09 112.147 145.571 112.272 145.387C112.396 145.203 112.883 145.034 113.105 145.102C113.325 145.17 113.475 145.668 113.552 145.762C114.19 146.563 114.15 145.07 114.21 145.007C115.152 144.017 116.405 144.152 117.539 143.864C114.799 143.245 111.772 142.957 108.651 142.484C104.99 141.942 101.319 141.316 97.7159 140.66C94.1628 140.024 90.5695 139.369 87.003 138.615C86.8633 138.582 86.7259 138.544 86.589 138.509C86.807 138.989 87.0241 139.468 87.2413 139.947ZM60.1925 81.4514C60.6195 82.8539 61.0287 84.2308 61.4308 85.5998C62.1766 86.8483 62.9051 88.2011 63.5089 89.6272C64.4105 91.7673 66.0705 94.3862 67.6954 97.4045C68.9317 99.8937 71.3177 102.713 73.131 107.087C74.2275 109.845 75.2245 112.439 76.1368 114.851C76.4428 115.401 76.7378 115.975 77.0118 116.574C78.2258 119.192 79.6389 122.125 80.8741 124.785C81.7942 126.77 82.227 127.821 82.4542 128.472C85.0633 129.645 87.4174 130.482 88.6681 130.385C91.8545 130.621 94.3517 130.644 95.2686 130.782C96.6382 130.985 97.9857 131.183 99.3233 131.387C103.14 131.977 106.606 132.514 110.016 133.003C113.558 133.542 117.483 133.832 121.842 135.126C123.439 135.905 127.52 135.077 133.102 139.362C133.345 139.573 133.577 139.794 133.801 140.018C133.976 139.931 134.142 139.824 134.28 139.656C134.362 139.554 134.144 139.02 134.139 138.91C134.106 138.03 134.983 139.196 135.11 139.257C136.06 139.716 136.47 139.243 137.121 139.011C137.272 138.957 136.816 138.303 136.949 138.225C137.651 137.832 138.44 137.585 139.297 137.6C139.489 137.605 139.596 138.277 139.701 138.31C140.161 138.447 139.751 137.267 140.181 137.375C140.271 137.398 140.456 137.934 140.493 137.986C140.913 138.571 140.835 138.032 140.772 137.67C140.748 137.531 140.727 137.417 140.738 137.403C141.231 136.735 142.229 137.876 142.8 137.414C142.868 137.357 142.414 136.772 142.624 136.652C143.294 136.269 144.051 135.962 144.859 135.76C144.292 135.326 143.585 134.744 142.7 133.964C140.618 132.158 138.593 130.545 136.777 129.488C134.528 128.165 132.268 127.028 129.794 125.922C127.326 124.814 124.953 123.914 122.85 123.452C115.812 121.874 109.145 120.469 101.614 118.433C95.7756 116.633 90.5174 115.235 83.8546 111.994C80.3625 109.904 76.3397 108.451 72.5216 102.303C70.0377 97.5384 68.6577 93.0125 67.2452 90.8078C65.3589 87.8375 62.8333 84.8615 60.1925 81.4514ZM212.989 138.774C212.999 138.898 213.017 139.017 213.043 139.125C213.15 139.566 213.288 139.278 213.384 138.856C213.252 138.828 213.121 138.801 212.989 138.774ZM209.188 137.981C209.261 138.131 209.374 138.172 209.551 138.056C209.43 138.031 209.309 138.006 209.188 137.981ZM180.073 134.199C179.883 133.509 179.584 135.931 179.924 135.381C179.941 135.352 180.082 134.239 180.073 134.199ZM156.795 133.942C156.774 133.898 156.52 133.923 156.358 133.963C156.441 134.079 156.524 134.194 156.605 134.311C156.668 134.197 156.736 134.083 156.807 133.971C156.803 133.961 156.799 133.951 156.795 133.942ZM152.354 131.588C152.3 131.592 152.276 131.622 152.279 131.673C152.351 131.853 152.791 132.469 153.426 133.358C153.723 133.268 154.027 133.187 154.339 133.122C153.89 132.571 153.575 132.229 153.485 132.2C152.872 131.752 152.499 131.584 152.354 131.588ZM130.923 60.2278C129.387 61.1025 127.827 61.8204 126.316 62.4074C123.284 63.5614 120.315 64.8924 116.112 65.8537C112.457 66.5191 110.521 66.3196 108.175 66.4319C105.926 66.4867 103.695 66.5463 101.455 66.6203C96.967 66.7681 92.4916 66.9614 87.9415 67.1887C84.4002 67.2989 82.257 68.0257 76.8653 68.6867C74.3038 68.9156 70.3039 69.8131 66.3038 70.2297C65.4938 70.3129 64.6659 70.3845 63.8067 70.4309C64.6234 71.3797 65.4267 72.3588 66.2042 73.3791C69.0681 77.2549 72.5144 81.0005 75.42 85.4231C78.1181 89.7819 79.267 94.0042 81.2208 97.5442C82.3447 99.5825 85.4827 101.542 88.4962 103.118C93.1917 105.391 98.9607 107.074 104.411 108.694C111.044 110.461 118.134 111.98 125.033 113.561C128.229 114.288 131.157 115.478 133.949 116.762C136.641 117.999 139.328 119.396 141.883 120.961C146.373 123.74 149.838 127.334 153.32 130.494C154.185 131.274 154.934 132.109 155.608 132.965C155.956 132.954 156.315 132.971 156.689 133.023C156.859 133.056 157.039 133.096 157.214 133.147C157.225 133.15 157.242 133.214 157.263 133.301C157.521 132.947 157.774 132.641 158.017 132.368C158.023 132.144 158.035 131.902 158.069 131.647C158.091 131.496 158.244 131.676 158.418 131.937C158.678 131.669 158.926 131.436 159.155 131.22C159.342 131.052 159.51 130.892 159.668 130.746C159.423 129.809 159.21 128.897 158.908 127.935C158.61 127.144 159.68 127.225 158.372 125.406C157.857 124.667 156.691 123.816 154.13 121.066C153.745 120.629 152.23 118.899 150.845 116.19C149.266 113.329 147.56 108.933 146.188 105.791C144.852 102.694 143.302 99.4615 142.527 95.7043C142.453 95.2834 142.391 94.8792 142.34 94.4944C142.263 93.9401 142.191 93.1631 142.102 92.2551C141.878 91.5556 141.601 90.6783 141.256 89.5783C141.134 89.1586 141.605 89.7846 141.828 89.8166C141.764 89.3338 141.694 88.8389 141.609 88.341C141.596 88.3032 141.584 88.2649 141.57 88.2268C141.109 86.8723 140.518 85.2916 139.872 83.5715C139.715 83.5854 139.41 83.298 138.769 82.1574C137.379 79.8512 135.501 77.3587 133.512 74.8869C133.393 74.7313 133.134 74.4649 133.412 74.7551C133.666 74.9065 133.168 74.8447 135.12 75.8889C135.565 76.0642 135.804 76.2265 136.975 76.4006C137.025 76.4093 137.081 76.4162 137.143 76.4231C135.858 73.0578 136.775 77.7251 135.398 73.8791C135.159 73.2092 134.901 72.5782 134.766 72.3635C134.6 72.0622 134.469 71.8667 134.243 71.2424C134.186 71.0415 134.103 70.9107 134.029 70.2229C134.119 69.9532 133.745 69.5619 134.307 68.468C133.767 67.2711 133.254 66.1917 132.873 65.3176C132.678 64.8792 132.489 64.4515 132.308 64.0315C131.704 62.5812 131.27 61.3293 130.923 60.2278ZM169.402 130.511C169.442 130.676 169.469 130.84 169.486 131.001C169.76 131.005 170.099 130.917 170.254 130.874C170.345 130.848 170.349 130.717 170.328 130.572C170.021 130.548 169.712 130.528 169.402 130.511ZM161.299 128.965C161.389 128.783 161.366 128.607 161.011 128.984C160.887 129.061 160.659 129.441 160.471 129.984C160.925 129.527 161.171 129.223 161.299 128.965ZM156.7 91.7121C157.334 92.6273 157.994 93.6639 158.632 94.8606C158.949 95.4702 159.165 95.9256 159.319 96.2326C160.07 97.5782 159.137 94.0478 161.068 98.4319C161.971 100.431 162.927 102.395 163.97 104.158C164.819 105.608 165.817 106.881 166.777 107.773C167.232 107.81 167.748 107.847 168.279 107.876C169.69 107.953 171.208 108.015 172.737 108.087C175.803 108.229 178.925 108.412 182.018 108.68C184.286 108.882 186.621 108.962 189.245 109.129C190.568 109.221 191.956 109.322 193.644 109.618C195.312 109.982 197.453 110.238 200.304 112.455C200.841 112.91 201.479 113.464 202.233 114.487C202.932 115.475 204.037 117.267 203.941 120.025C203.907 120.785 203.762 121.535 203.55 122.194C203.082 123.4 202.749 124.19 202.516 124.686C204.769 125.097 207.014 125.52 209.248 125.944C212.704 126.163 215.476 126.081 220.405 127.138C222.512 127.831 223.811 128.376 224.798 128.82C225.315 128.908 225.834 128.996 226.354 129.083C226.308 124.62 226.178 119.909 225.186 117.115C224.1 113.901 221.329 110.313 218.102 107.939C216.016 106.36 214.184 105.057 212.9 104.523C212.625 104.404 212.425 104.343 212.272 104.311C209.962 103.673 213.295 105.444 209.762 104.241C206.777 103.234 203.815 102.273 200.993 101.53C198.076 100.883 192.76 100.294 188.282 99.6174C183.609 98.9128 178.912 98.1935 173.781 96.759C170.99 95.9557 168.097 95.2216 165.077 94.4153C163.559 94.0071 162.015 93.5864 160.345 93.0569C159.188 92.6333 158.175 92.4189 156.7 91.7121ZM202.062 124.604C202.1 124.32 202.132 124.101 202.07 124.23C201.999 124.344 201.931 124.457 201.865 124.568C201.931 124.579 201.996 124.592 202.062 124.604ZM168.768 118.841C169.17 119.331 168.757 118.847 169.092 119.049C173.167 119.27 177.495 119.778 181.597 120.655C185.502 121.489 188.669 122.334 191.868 122.863C192.1 122.263 192.348 121.717 192.579 121.201C190.572 120.946 185.3 120.866 181.115 120.275C176.928 119.693 173.264 119.193 171.933 119.084C170.871 119.001 169.821 118.922 168.768 118.841ZM46.7354 84.0959C47.4533 87.0392 48.2249 89.7778 49.1534 92.216C48.3359 89.5497 47.5421 86.659 46.7354 84.0959ZM54.1114 56.1682C54.5522 56.8709 55.969 58.081 57.4337 59.3654C58.0199 60.0548 60.249 60.4167 62.7003 60.3928C59.9462 59.7472 57.2839 58.3315 55.6573 57.2209C55.1102 56.8585 54.5987 56.5081 54.1114 56.1682ZM91.2852 24.8547C83.3799 24.8363 75.017 25.8743 67.7774 27.5598C65.2687 28.2327 62.6036 29.1958 59.753 29.969C57.6242 30.552 55.1203 32.0885 52.6622 33.6994C52.0181 34.075 51.5114 34.3498 51.3233 34.427C50.8494 35.2459 50.5949 38.0017 50.6427 40.5891C50.5275 40.4093 50.8392 41.1378 52.1583 42.008C53.3863 42.8662 54.9917 43.7459 56.6456 44.9094C57.6938 45.6484 58.7314 46.3965 59.7501 47.1135C61.9847 48.6489 59.8777 46.3112 62.4757 48.0012C63.7578 48.7806 64.6427 49.1448 65.8204 49.3205C67.812 49.6384 70.6527 49.6133 73.2364 49.6721C81.7624 49.7729 90.406 49.7703 98.92 49.6809C104.7 49.5791 110.449 49.3918 115.562 48.1106C118.481 47.3963 121.072 45.9063 123.316 43.7356C123.354 43.7022 123.39 43.665 123.427 43.6281C123.145 43.1809 122.865 42.7358 122.585 42.2903C122.398 41.9921 122.212 41.6944 122.021 41.3899C121.926 41.2394 121.83 41.0869 121.733 40.9328C121.648 40.7942 121.896 41.1999 121.463 40.4973C121.425 40.4296 121.387 40.3717 121.251 40.1037C121.176 39.938 121.088 39.8262 120.838 39.0969C120.753 38.633 120.386 38.3313 120.535 36.0393C120.541 35.9812 120.549 35.9185 120.559 35.8518C120.109 35.2108 119.695 34.5621 119.307 33.9211C117.707 32.6861 116.067 31.4718 114.391 30.2111C112.296 28.6276 110.06 27.2926 107.804 26.3752C106.187 25.7155 104.162 25.3912 102.032 25.2082C98.5668 24.9223 94.8997 24.9266 91.2852 24.8547Z" fill="black"/>
</svg>
