<svg width="264" height="203" viewBox="0 0 264 203" fill="none" xmlns="http://www.w3.org/2000/svg">
<path d="M94.2094 10.2842C98.7163 9.49698 97.4562 10.5874 101.123 10.6582C102.663 10.713 104.102 10.7747 105.476 10.7393C111.869 10.5591 118.407 10.7548 124.985 11.5352C129.815 12.1455 134.45 12.5584 139.22 12.8067C142.666 13.0281 145.995 13.2864 149.28 13.6016C149.383 13.6117 149.49 13.6218 149.586 13.6309C155.979 14.5607 149.794 12.2668 156.142 14.3155C156.568 14.4632 154.841 14.6664 156.537 15.1446C157.344 15.372 158.293 15.627 159.255 15.8369C161.261 16.2814 163.832 16.4985 166.2 16.7129C168.44 16.958 169.882 17.4332 170.894 17.6905C173.874 18.5259 175.454 18.9018 177.131 19.2481C178.787 19.5839 180.376 19.9767 182.913 20.5176C184.424 20.8394 185.989 21.1587 187.618 21.4727C191.621 22.2521 195.629 23.2716 199.513 23.7959C202.272 24.173 204.869 24.6503 207.415 25.0977C209.042 25.3903 207.282 24.4959 209.234 24.7237C209.439 24.7522 209.677 24.7936 209.948 24.8535C211.477 25.1634 213.732 26.0952 215.659 27.0625C217.821 28.1461 220.607 28.9888 222.152 29.6778C224.886 30.9575 223.521 30.978 223.96 31.294C223.966 31.2983 223.972 31.3023 223.977 31.3067C225.178 32.5668 227.863 33.328 230.829 34.2881C233.855 35.318 236.129 36.9821 236.57 37.3194C237.071 37.731 237.543 38.1433 237.998 38.5518C240.555 40.9839 241.492 43.5779 242.481 45.5225C243.645 47.9507 244.517 50.1497 245.489 52.2266C246.856 55.4133 246.721 57.7953 247.058 59.7686C247.336 61.7817 247.668 63.7931 247.911 65.9453C248.134 67.4317 248.282 68.8894 248.398 70.2364C248.542 72.8349 248.67 75.0097 248.533 77.417C248.53 77.8155 248.527 78.2114 248.521 78.6035C248.552 79.3215 248.42 80.0447 248.18 80.7344C248.147 80.9477 248.115 81.1649 248.078 81.3848C249.118 82.1337 250.186 83.1692 251.173 84.6895C251.331 84.9487 251.483 85.2109 251.629 85.4746C253.576 89.7339 252.898 85.6477 254.749 92.71C254.855 93.3206 254.936 93.9596 254.986 94.628C255.167 97.1013 255.304 99.758 255.283 102.699C255.267 104.177 255.219 105.714 255.035 107.451C254.676 109.328 255.1 110.693 252.722 114.753C250.272 118.165 248.585 121.104 244.418 125.481C242.573 127.092 240.578 129.41 236.013 130.863C233.496 131.56 230.758 132.371 229.962 132.792C229.088 133.218 228.017 134.055 226.446 135.152C226.451 135.21 226.457 135.259 226.455 135.299C226.441 135.701 225.815 135.596 225.792 135.628C225.442 136.51 225.127 136.583 224.605 136.88C224.581 137.12 224.559 137.366 224.539 137.613C225.089 137.509 225.746 137.346 225.91 137.401C226.075 137.46 226.069 137.687 226.005 137.943C225.957 138.301 225.788 138.631 225.697 138.765C225.519 139.007 225.109 138.834 225.018 139.027C224.996 139.072 224.976 139.114 224.96 139.152C224.969 139.196 224.977 139.246 224.978 139.306C224.98 139.403 224.984 139.504 224.987 139.606C225.325 139.874 226.55 139.424 226.911 139.687C228.035 140.574 226.06 141.445 225.877 142.238C225.828 142.459 226.283 142.273 226.329 142.471C226.497 143.262 225.864 143.712 226.4 144.623C226.488 144.766 227.654 145.58 226.73 145.993C226.597 146.049 226.114 145.823 225.974 146.145C225.858 146.41 225.744 146.797 225.675 147.183C225.62 147.498 225.592 147.811 225.627 148.061C225.684 148.473 226.574 148.159 226.235 148.617C226.082 148.817 225.681 148.327 225.434 148.703C225.191 149.077 224.995 150.096 224.919 150.484C224.847 150.871 225.503 150.805 225.539 150.845C225.731 151.088 225.843 151.896 225.827 151.967C225.462 153.625 224.771 155.132 224.333 156.492C223.908 157.908 223.649 159.459 223.741 161.057C223.755 161.307 224.418 161.174 224.431 161.212C224.667 162.083 222.946 161.329 222.331 161.904C223.673 161.875 223.415 162.223 223.538 162.839C223.598 163.134 224.121 162.996 224.174 163.024C224.944 163.493 223.917 163.756 223.705 163.826C222.93 164.086 223.822 164.432 223.304 164.613C222.79 164.794 222.054 164.317 222.042 164.899C222.516 165.081 223.783 164.688 223.971 165.143C224.165 165.604 224.224 166.174 224.207 166.785C224.182 168.507 223.343 170.618 222.87 171.647C222.642 172.195 222.472 172.557 222.361 172.828C222.067 173.509 221.749 173.787 221.439 174.045C221.163 174.286 220.922 174.376 220.705 174.439C218.754 174.664 219.66 175.318 218.613 175.868C217.62 176.337 218.054 174.025 217.902 173.54C217.866 173.41 217.83 173.351 217.794 173.329C217.244 173.924 216.54 174.51 215.643 174.947C215.61 175.393 215.572 175.718 215.288 175.731C215.193 175.736 215.068 175.705 214.911 175.632C214.879 175.617 214.933 175.422 214.949 175.242C214.351 175.457 213.683 175.607 212.935 175.66C211 175.796 209.216 175.543 207.764 175.075C207.225 174.899 207.602 174.422 207.172 174.329C206.246 174.13 205.468 173.98 204.823 173.889C204.716 174.511 204.598 174.908 203.932 174.509C203.887 174.48 204.106 173.889 203.946 173.833C203.895 173.815 203.846 173.803 203.798 173.792C203.654 173.786 203.514 173.784 203.377 173.782C203.069 173.844 202.826 174.054 202.545 174.25C202.231 174.444 201.858 174.619 201.335 174.588C200.918 174.566 200.428 174.377 199.926 174.131C198.499 174.451 197.284 174.883 195.143 174.968C192.343 175.052 188.551 174.395 185.251 172.874C183.875 172.149 182.627 171.511 182.153 171.224C178.973 169.345 184.893 171.689 184.985 171.662C187.32 171.396 182.946 170.144 179.235 168.88C179.199 167.196 174.194 165.512 175.505 167.508C175.659 167.738 178.528 168.58 179.235 168.88C176.072 169.279 171.411 167.953 166.809 165.104C166.299 164.789 165.789 164.455 165.28 164.104C165.221 164.288 165.313 164.729 164.999 164.727C164.359 164.73 162.973 164.518 161.727 163.947C161.523 163.849 161.337 163.748 161.169 163.645C160.711 163.356 161.575 163.064 161.129 162.789C160.122 162.151 159.249 161.659 158.382 161.339C158.015 161.204 158.216 162.092 157.763 161.867C157.09 161.534 156.46 161.214 155.849 160.892C154.309 159.989 153.414 159.321 152.886 158.86C152.312 159.296 151.941 158.403 151.82 157.994C151.713 157.978 151.599 157.957 151.477 157.932C151.065 157.935 150.579 157.931 149.978 157.886C148.175 157.658 146.763 157.258 145.573 156.763C145.54 156.862 145.508 156.963 145.477 157.063C145.369 157.423 146.201 157.308 145.473 158.001C145.423 158.047 144.813 158.138 144.579 158.379C144.418 158.546 144.342 159.224 144.071 159.413C143.797 159.601 143.794 159.01 143.382 159.197C142.97 159.39 142.844 160.145 142.205 160.004C140.722 159.671 138.854 158.748 137.421 157.835C136.97 157.549 137.375 157.273 137.072 157.057C136.477 156.632 135.768 156.538 135.148 156.029C134.946 155.859 135.514 155.414 135.299 155.25C134.317 154.47 133.38 154.21 131.633 152.627C130.855 151.908 130.024 150.631 129.737 149.367C129.51 148.458 129.531 147.649 129.549 147.393C129.577 146.921 129.634 146.492 129.71 146.103C128.391 145.95 127.144 145.829 125.961 145.76C124.03 145.671 122.133 145.582 120.199 145.526C119.721 145.515 122.865 144.679 118.937 144.919C117.597 145.014 116.126 145.151 114.422 145.256C114.313 145.192 113.172 145.503 111.699 145.816C111.299 149.951 111.296 154.636 111.565 158.109C111.612 158.806 111.669 159.478 111.726 160.114C112.018 163.857 112.836 168.283 112.396 173.528C112.159 175.808 112.117 178.372 111.902 181.112C111.53 183.849 111.807 186.892 108.78 190.715C108.193 191.471 106.183 192.952 104.159 192.783C100.883 192.542 98.5485 192.198 96.1313 192.008C89.4909 191.455 90.8911 192.255 88.0453 192.431C87.2104 192.488 86.2869 192.487 85.3198 192.449C79.7443 192.242 72.5314 190.471 71.3823 190.111C71.3582 190.122 77.2336 190.537 74.1381 189.912C72.4009 189.06 71.45 190.111 71.3823 190.111C71.2154 190.064 70.6821 189.978 69.8813 189.847C68.9076 189.638 68.546 189.791 65.9887 188.95C64.9498 188.482 60.3501 187.193 58.4535 183.907C57.2824 181.808 57.4132 181.306 57.1498 180.477C56.9743 179.748 56.8647 179.209 56.7836 178.858C56.4847 177.514 56.0206 178.378 55.8842 177.67C55.6996 176.638 55.5348 175.616 55.3891 174.6C55.1085 174.709 54.8205 174.815 54.5229 174.914C52.5289 175.554 49.6263 176.066 46.5434 174.62C45.7353 174.189 42.8295 173.595 40.1547 171.861C39.0557 171.138 37.544 170.398 35.7641 169.53C34.8536 169.077 33.9068 168.637 32.6264 167.85C31.9677 167.405 31.2474 167.042 30.0971 165.71C29.5597 165.041 28.7616 163.892 28.5893 162.102C28.4117 160.298 29.1481 158.692 29.7465 157.868C29.7256 158.076 31.3557 154.456 35.0932 153.67C36.323 153.407 37.6426 153.144 39.1908 152.972C41.0531 152.806 44.0379 152.485 47.5033 154.114C49.1802 154.921 52.2246 155.711 55.1303 156.422C55.297 155.53 55.4772 154.691 55.6537 153.94C56.1212 151.784 56.5058 149.634 56.8344 147.421C57.4459 143.903 57.894 141.974 58.0785 139.23C58.2778 136.598 58.3106 133.804 58.2807 130.982C58.2853 130.721 58.9728 131.098 58.9731 130.474C58.9732 130.255 58.9711 130.039 58.9692 129.825C58.5357 129.654 58.2183 129.524 58.0698 129.438C57.3144 129.003 56.5806 128.578 55.7797 128.084C53.539 126.701 51.4835 125.448 49.4086 124.259C47.3462 123.079 45.1434 122.014 43.019 121.151C41.751 120.64 40.2027 120.094 38.5668 119.437C36.809 118.59 35.492 118.606 32.1772 115.678C30.943 114.189 27.9757 112.039 27.1967 106.857C26.9295 104.834 26.3757 101.573 26.1987 98.5293C26.0835 95.3569 25.775 92.0399 27.5307 87.4004C27.7877 86.7741 28.0745 86.1378 28.391 85.4981C26.7186 84.4833 25.201 83.4173 23.6782 82.3389C20.4617 80.0583 18.2793 76.7676 16.9584 73.6065C15.2284 69.7396 14.2652 64.8514 13.5629 61.7686C12.526 57.5922 12.5474 54.3622 12.2416 51.0635C12.0489 48.5465 11.9266 45.9848 12.0492 43.2725C12.1156 41.9156 12.2416 40.5136 12.5395 39.0098C12.7778 37.6095 13.5357 35.5958 13.7621 35.0176C15.1833 31.039 17.8763 28.8222 20.5229 27.1338C24.9266 24.4545 29.5315 22.857 33.3715 21.2149C34.5145 20.7089 35.6867 20.173 36.8676 19.6358C38.1327 19.0596 39.4313 18.4739 40.7573 17.8887C44.2657 16.346 47.6401 16.1118 50.7075 15.8614C54.9086 15.5642 59.2413 15.2726 63.6108 15.0567C66.9538 14.9107 70.109 14.5167 73.5522 14.0156C76.0323 13.6653 78.5067 13.2488 80.9653 12.8057C84.8046 12.1431 88.2639 11.8549 91.5942 11.4121C93.5622 11.1549 92.3203 10.7239 92.6889 10.6338C93.2702 10.4923 93.7721 10.377 94.2094 10.2842ZM105.498 172.182C105.366 173.565 105.248 174.955 105.089 176.371C104.8 177.864 105.16 178.988 103.711 181.192C101.49 183.422 99.2165 185.246 97.0971 187.297C96.9567 187.438 96.8085 187.572 96.6576 187.704C98.1915 187.927 100.457 188.396 101.004 188.19C102.732 187.522 101.447 186.54 104.044 186.509L104.046 186.508C104.308 186.233 104.669 185.683 104.982 184.726C105.089 184.394 105.413 185.641 105.74 184.448C106.694 179.35 105.873 176.622 105.804 173.099C105.772 172.393 105.707 171.651 105.616 170.82C105.578 171.275 105.54 171.729 105.498 172.182ZM62.4438 167.652C61.9439 168.975 61.3476 170.104 60.81 170.878C60.9846 174.534 61.3947 178.13 62.3832 181.336C62.4159 181.389 62.4493 181.442 62.4828 181.493C63.6009 182.925 62.0063 182.136 62.7924 182.988C64.5779 184.594 66.3806 184.849 67.4819 185.342C73.0323 186.357 71.2883 184.958 76.603 184.506C75.2324 185.813 77.5996 187.019 83.9799 187.741C83.1275 186.871 82.4742 185.937 81.8989 185.471C80.4114 184.291 79.0659 183.029 77.6918 181.894C76.095 180.615 76.7385 182 76.4907 181.81C76.2875 181.662 76.101 181.532 75.9321 181.416C70.7376 176.973 75.972 179.639 72.9731 175.599C72.6933 176.366 72.0397 176.028 70.9799 174.942C70.0756 174.019 68.8261 172.574 67.1108 170.935C65.3265 169.255 65.9048 170.57 65.7104 170.449C64.2412 169.532 63.1873 168.523 62.4438 167.652ZM69.3305 136.251C69.3152 138.34 69.1046 140.367 68.5873 142.033C68.1261 143.789 67.5143 145.061 66.8891 146.161C66.0434 149.378 64.6295 153.034 64.394 155.4C64.2865 156.758 64.1723 158.084 64.0395 159.352C64.1645 159.435 64.291 159.522 64.4184 159.611C65.437 160.42 66.3762 161.196 67.1977 161.894C70.9425 165.103 73.0778 167.581 75.9076 170.802C76.3026 171.256 76.7113 171.712 77.1401 172.166C77.5684 172.618 77.5985 171.762 77.7397 171.889C81.4682 174.932 78.8585 174.132 79.3481 175.008C79.5547 175.357 79.742 175.656 79.9018 175.899C81.958 178.023 83.0707 179.682 85.1586 181.399C87.2378 183.313 87.6678 184.235 88.3901 184.48C88.684 184.596 89.1568 184.269 89.9086 183.719C90.9905 183.11 91.0754 182.38 91.3578 182.119C91.4832 182 91.6125 181.885 91.7367 181.783C93.3701 180.316 93.3765 180.99 95.8071 178.563C96.0137 178.347 95.8043 178.011 97.1645 176.687C97.2111 176.372 97.2584 176.006 97.3002 175.63C97.4371 174.396 97.5524 172.993 97.684 171.562C98.0867 167.178 98.277 162.747 97.7485 158.893C97.4741 156.914 97.0942 154.985 96.6371 152.888C96.0601 149.677 96.229 147.844 96.1049 146.68C95.9102 146.637 95.6963 146.594 95.4633 146.55C95.4413 146.515 95.4179 146.483 95.3959 146.45C95.4113 146.48 95.4266 146.513 95.4457 146.547C94.27 146.323 92.6143 146.042 90.5092 145.398C89.1128 144.935 86.8016 144.377 84.391 143.277C82.3065 142.325 80.3111 141.43 78.2651 140.56C75.8231 139.532 72.8262 138.26 70.1684 136.724C69.9007 136.568 69.6217 136.411 69.3305 136.251ZM41.4106 169.366C38.2603 166.946 36.7929 168.843 40.6303 170.214C40.7987 170.278 41.5553 169.491 41.4106 169.366ZM222.163 167.976C221.45 167.705 221.323 168.495 222.097 168.4C222.129 168.392 222.193 167.989 222.163 167.976ZM44.393 160.502C42.5792 159.617 39.7239 160.001 36.7319 160.695C36.6472 160.715 36.5406 160.731 36.103 161.392C36.161 161.433 36.2215 161.477 36.2846 161.516C36.9426 161.938 37.8125 162.359 38.6772 162.773C40.4299 163.612 42.2927 164.452 44.0766 165.608C45.57 166.65 47.5348 167.031 49.7143 168.106C50.9116 168.763 52.8797 168.2 54.6508 167.35C54.5686 166.019 54.5133 164.679 54.4828 163.321C54.4651 162.715 54.4736 162.098 54.5033 161.478C54.3864 161.444 54.2581 161.407 54.1166 161.37C53.8224 161.284 53.4808 161.192 53.0707 161.085C51.5997 161.192 54.8608 163.354 51.142 162.572C49.1403 162.119 46.893 161.63 44.393 160.502ZM37.392 164.262C35.3877 164.143 41.6618 167.109 40.6664 165.815C40.607 165.731 37.4782 164.274 37.392 164.262ZM214.986 141.285C211.925 142.315 209.877 142.474 208.254 142.844C208.053 142.884 207.864 142.921 207.687 142.958C195.356 145.28 211.197 140.685 201.196 142.741C199.404 143.067 197.632 143.595 195.95 144.131C193.777 144.971 191.094 146.228 190.303 146.341C187.102 146.94 184.261 147.097 181.629 147.146C174.663 147.244 168.793 147.049 161.484 146.944C161.091 146.936 160.682 146.93 160.272 146.928C158.251 146.92 160.219 147.631 158.494 147.622C157.329 147.62 156.145 147.603 154.948 147.578C155.672 147.745 156.496 147.986 157.433 148.355C157.471 148.372 157.51 148.39 157.547 148.406C157.858 148.545 157.964 147.951 158.044 147.942C159.316 147.862 158.417 148.67 158.835 149.132C159.798 150.244 160.532 151.103 161.021 151.379C161.683 151.759 162.355 152.069 162.991 152.297C163.658 152.53 163.55 151.209 163.876 152.081C163.9 152.141 163.478 152.608 163.617 152.748C163.94 153.072 164.674 153.284 164.903 153.419C165.049 153.509 165.151 153.567 165.238 153.61C165.38 153.687 165.455 153.711 165.729 153.771C166.283 153.898 167.447 154.315 168.464 154.323C168.686 154.323 168.485 153.667 168.848 153.612C169.214 153.557 170.136 153.756 170.42 153.954C170.7 154.15 170.489 154.609 170.523 154.729C170.801 155.731 172.073 154.645 172.215 154.639C172.304 154.636 172.394 154.636 172.483 154.638C174.873 154.658 176.715 155.783 178.854 156.307C180.481 156.697 182.599 157.028 183.734 157.333C183.73 157.336 183.766 157.334 183.506 157.312C186.115 157.646 187.467 158.543 189.157 158.914C189.329 158.952 189.318 158.198 189.521 158.241C189.634 158.266 189.746 158.289 189.844 158.309C192.096 158.77 194.412 159.374 196.612 160.331C196.704 160.364 196.794 160.399 196.882 160.435C197.228 160.58 196.609 161.075 196.923 161.254C198.699 162.287 200.22 164.593 201.77 162.723C201.851 162.622 201.933 162.51 202.014 162.387C202.65 162.748 203.79 163.143 204.579 163.904C205.024 164.333 204.52 164.801 204.916 164.836C204.964 164.839 205.03 164.832 205.117 164.812C205.267 164.775 205.219 164.142 205.427 164.13C206.293 164.077 207.28 164.359 208.134 164.032C208.305 163.963 208.246 163.417 208.289 163.317C208.631 162.517 209.307 163.771 209.476 163.84C209.995 164.104 210.427 164.113 210.731 164.029C210.722 164.067 210.761 163.997 210.978 163.719C211.069 163.595 210.372 163.314 210.426 163.194C210.59 162.858 210.856 162.27 211.272 161.481C211.605 160.872 211.964 160.299 212.342 159.773C212.523 159.526 213 160.013 213.118 159.905C213.623 159.41 212.561 158.873 212.974 158.435C213.06 158.34 213.55 158.562 213.614 158.56C214.604 158.49 213.423 157.836 213.412 157.759C213.373 157.401 213.481 157.129 213.654 156.863C213.976 156.29 214.505 155.82 214.677 155.187C214.561 155.292 214.461 155.397 214.381 155.501C213.646 156.353 213.548 156.835 213.465 157.007C213.295 157.475 213.258 157.739 213.227 157.934C213.226 158.268 213.187 157.226 213.413 156.011C213.653 154.792 213.956 153.628 214.231 152.615C214.417 151.058 214.683 149.472 215.035 147.914C215.178 147.279 215.333 146.657 215.5 146.037C215.613 145.616 216.101 145.954 216.165 145.933C216.17 145.931 216.174 145.928 216.178 145.926C216.275 145.783 216.368 145.642 216.46 145.454C216.275 145.27 215.861 145.119 215.838 145.039C215.676 144.414 215.96 143.826 215.973 143.29C215.89 143.124 215.807 142.956 215.722 142.787C215.647 142.643 215.573 142.495 215.497 142.344C215.399 142.269 215.283 142.195 215.145 142.124C215.165 141.992 215.182 141.862 215.199 141.733C215.128 141.586 215.056 141.438 214.986 141.285ZM35.7045 161.055C35.7004 161.057 35.7164 161.076 35.7485 161.106C35.7347 161.058 35.7224 161.035 35.7045 161.055ZM137.22 151.255C137.123 151.434 137.005 151.662 136.971 151.676C137.026 151.708 137.241 151.824 137.657 151.889C137.531 151.716 137.386 151.508 137.22 151.255ZM104.164 146.378C104.289 148.027 104.112 149.476 104.304 150.72C104.4 149.286 104.541 147.842 104.728 146.409C104.539 146.4 104.351 146.39 104.164 146.378ZM95.4633 146.55C95.5191 146.637 95.5759 146.732 95.6303 146.834C95.5542 146.729 95.4937 146.631 95.4457 146.547C95.4516 146.548 95.4575 146.549 95.4633 146.55ZM96.0492 146.296C95.9881 145.929 95.5521 146 95.3803 146.143C95.5685 146.25 95.8022 146.375 96.0873 146.52C96.0765 146.442 96.0639 146.367 96.0492 146.296ZM142.726 98.2061C142.626 98.0685 142.615 96.8416 142.238 97.9395C142.171 98.1227 141.51 99.6184 141.018 98.7481C140.89 98.5182 140.515 97.5531 140.3 97.7334C140.272 97.7642 140.455 98.2916 140.268 98.3653C139.608 98.6143 138.891 98.6334 138.206 98.8809C138.025 98.9486 138.365 99.4791 138.092 99.5615C137.341 99.7881 136.359 99.753 135.57 99.6612C135.281 99.6261 135.423 99.1419 135.398 99.0908C134.976 98.3036 134.898 99.4338 134.793 99.5127C134.461 99.7473 134.14 99.7428 133.82 99.7071C133.534 99.6698 133.249 99.6048 132.955 99.7031C132.792 99.7568 132.963 100.273 132.936 100.326C132.637 100.824 132.797 99.8452 132.567 99.7617C131.922 99.5271 131.241 99.6424 130.631 99.7783C130.408 99.8295 130.729 100.415 130.529 100.454C129.341 100.693 128.101 100.783 126.922 100.6C126.7 100.564 126.769 100.074 126.709 99.9717C126.296 99.2605 125.992 100.354 125.908 100.467C125.513 100.982 125.276 100.593 124.891 100.735C124.161 101.014 123.313 101.225 122.796 101.356C121.236 101.762 119.694 101.963 118.413 102.131C115.634 102.493 113.486 102.425 110.997 103.012C110.839 103.049 111.115 103.64 110.981 103.681C109.973 103.959 108.955 104.103 107.955 104.275C107.119 104.422 106.3 104.561 105.502 104.762C105.348 104.8 105.664 105.358 105.418 105.438C104.912 105.608 104.263 105.667 103.742 105.547C103.487 105.489 103.738 104.934 103.485 104.886C102.896 104.773 102.305 104.812 101.791 104.986C101.576 105.062 102 105.618 101.716 105.669C100.287 105.925 99.1826 106.26 98.6547 106.199C97.6308 106.539 96.8406 106.622 96.1108 106.623C95.9161 106.623 95.428 105.465 95.1557 105.789C95.2234 106.13 95.3344 106.523 95.4223 106.883C92.1948 107.85 90.1873 108.432 90.2016 108.573C90.213 108.586 90.7446 108.943 90.7504 108.936C90.7661 108.906 90.8086 108.88 90.7602 108.952C90.6083 109.47 90.3909 110.041 89.9623 110.649C89.8809 110.766 88.7355 110.547 88.8627 110.957C88.8855 111.031 88.9761 111.635 89.2143 111.811C89.2532 111.834 89.8017 111.78 89.8002 111.968C89.783 113.062 89.6041 114.233 89.2582 115.377C89.201 115.563 88.6248 115.358 88.5795 115.491C88.263 116.44 88.7208 117.471 88.2416 118.372C87.9206 118.973 86.91 118.817 85.9506 119.21C85.8627 119.245 85.8345 119.409 85.6742 119.541C86.0241 122.231 86.1711 124.991 86.2573 127.568C86.1453 128.149 86.8213 128.702 89.0864 131.224C89.8366 132.199 90.8448 133.206 91.8862 134.109C93.8068 135.698 91.6075 134.798 92.5317 135.577C92.8704 135.852 93.198 136.092 93.5073 136.296C95.554 137.386 98.173 136.758 101.343 137.331C102.065 137.444 102.849 137.578 103.753 137.722C104.789 137.872 104.164 138.349 104.35 138.426C105.018 138.683 105.654 138.79 106.248 138.8C106.294 138.64 106.34 138.481 106.386 138.322C106.859 136.585 108.383 135.035 109.567 134.369C109.713 134.661 110.061 134.737 110.518 134.69C112.577 134.284 116.95 133.673 119.914 132.431C120.461 132.21 120.95 131.982 121.356 131.754C126.725 131.028 132.441 130.237 137.85 130.116C138.154 130.115 138.456 130.116 138.756 130.118C140.676 130.143 139.422 130.71 139.665 130.764C143.1 131.573 145.518 130.791 146.851 130.719C146.851 130.703 146.853 130.686 146.853 130.67C146.847 130.392 146.477 129.917 146.537 129.63C146.636 129.135 147.538 128.498 147.295 128.093C147.14 127.829 146.505 127.916 146.066 127.82C145.216 127.637 146.704 127.177 146.934 127.112C146.944 127.114 147.105 127.333 147.423 127.195C148.097 127.092 146.949 127.114 146.934 127.112C147.083 127.07 147.204 126.605 147.079 126.52C147.01 126.474 146.416 126.532 146.383 126.509C145.811 125.928 145.622 125.341 145.862 124.725C145.882 124.713 146.549 124.681 146.567 124.655C146.841 124.284 146 124.123 145.488 123.889C144.976 123.652 145.12 123.431 146.258 123.155C146.093 122.963 146.572 122.617 146.861 122.411C147.149 122.207 145.85 122.339 145.814 122.329C144.934 121.994 145.648 121.658 145.694 121.229C145.708 121.106 145.621 120.939 145.511 120.813C145.441 120.736 145.353 120.644 145.276 120.564C145.12 120.405 145.384 120.193 145.139 120.005C145.105 119.979 144.548 120.142 144.519 120.139C143.773 120.019 145.199 119.834 145.436 119.723C146.297 119.314 146.756 119.096 146.258 118.825C146.145 118.769 144.071 118.881 143.923 118.73C143.737 118.536 144.479 118.504 144.269 118.311C144.252 118.294 143.801 118.364 143.801 118.227C143.795 117.575 143.99 116.903 143.897 116.319C143.886 116.238 143.174 116.401 143.146 116.283C143.016 115.731 143.01 115.144 143.326 114.622C143.406 114.496 143.915 114.551 144.064 114.519C144.964 114.319 143.638 114.14 143.61 114.103C143.151 113.491 143.571 112.961 143.689 112.408C143.743 112.168 143.734 111.918 143.554 111.647C143.515 111.604 142.104 111.246 143.316 111.084C143.402 111.072 144.635 110.907 143.788 110.772C143.732 110.764 143.095 110.864 143.16 110.694C143.224 110.523 142.796 110.25 143.498 110.013C143.72 109.936 144.958 109.763 143.97 109.542C143.9 109.527 141.667 109.193 143.207 109.068C143.462 109.048 145.092 109.067 144.256 108.807C144.094 108.757 143.731 108.848 143.503 108.717C143.153 108.514 143.589 108.247 142.863 108C142.733 107.957 141.628 107.773 142.467 107.626C142.599 107.603 143.142 107.646 143.205 107.569C143.497 107.201 143.133 106.813 143.51 106.44C143.643 106.308 144.522 106.375 144.758 106.237C144.994 106.099 145.221 105.822 144.819 105.678C144.416 105.534 143.014 105.692 142.901 105.477C142.413 104.541 143.234 103.617 143.35 102.69C143.367 102.553 142.866 102.669 142.855 102.468C142.814 101.723 142.33 100.462 143.383 99.8252C144.227 99.3034 144.891 99.9252 145.231 99.5322C145.392 99.3444 143.759 99.1787 143.705 99.1397C143.367 98.8757 143.53 98.6561 143.634 98.4424C143.694 98.308 143.733 98.1788 143.647 98.0391C143.618 97.9925 143.378 98.0082 143.179 98.0166C143.115 98.3196 143.056 98.6598 142.726 98.2061ZM225.168 89.9463C225.236 88.5233 224.795 88.5747 224.855 89.8506C224.862 89.9892 225.111 89.8765 225.168 89.9463C224.783 91.316 224.317 91.4592 223.882 90.1221C223.679 89.4955 223.96 88.7973 223.192 89.0098C222.845 89.1068 222.916 90.0934 222.603 90.3428C221.891 90.9115 221.057 89.9564 220.346 90.0723C220.088 90.1146 220.316 90.6601 220.139 90.708C219.677 90.836 219.283 90.4212 218.812 90.6143C218.77 90.6336 218.855 91.1951 218.713 91.1992C217.628 91.236 216.686 90.8625 215.547 90.8496C214.998 90.8433 214.017 91.1585 213.451 91.1055C212.468 91.014 211.228 90.2318 210.388 90.4629C209.841 90.6115 209.986 91.1682 209.769 91.5606C209.352 92.3202 208.491 91.036 208.368 90.836C208.363 90.8292 208.829 90.6718 208.562 90.3975C208.383 89.8085 208.373 90.8223 208.368 90.836C208.29 90.7062 207.338 90.6348 207.157 90.7549C207.059 90.82 207.149 91.3462 207.098 91.3711C205.989 91.8759 204.875 92.1172 203.719 92.0664C203.55 92.0658 203.372 92.0598 203.216 92.0469C203.187 92.0341 203.189 91.4454 203.122 91.4278C202.183 91.2198 201.693 91.9502 201.02 92.3926C200.354 92.8316 199.844 92.6867 199.464 91.666C198.984 91.7952 198.302 91.3442 197.915 91.0713C197.525 90.7987 197.478 91.9556 197.444 91.9805C196.392 92.7194 195.787 92.0621 194.704 91.9824C194.187 91.9422 193.181 92.143 192.637 92.294C192.21 92.4143 191.934 92.1552 191.543 92.3496C191.491 92.3765 191.573 92.8871 191.558 92.9092C191.151 93.5495 191.292 92.2793 191.188 92.0586C190.807 91.2604 190.567 90.8368 190.017 91.2608C189.89 91.3579 189.637 93.1974 189.414 93.3223C189.119 93.4809 189.179 92.8233 188.872 93.0069C188.846 93.0232 188.885 93.4206 188.687 93.4209C188.606 93.4212 188.524 93.4204 188.441 93.419C187.537 93.4077 186.572 93.3063 185.675 93.4346C185.543 93.4536 185.778 94.0679 185.586 94.1045C184.686 94.2728 183.706 94.3583 182.813 94.1719C182.593 94.1241 182.667 93.665 182.605 93.5391C182.217 92.7824 181.973 93.9861 181.912 94.0205C180.599 94.7092 179.413 94.1078 178.136 94.5576C177.992 94.6098 177.847 94.6768 177.702 94.7627C177.622 94.8098 177.292 96.1628 176.763 95.1914C176.728 95.1248 176.185 94.132 176.113 94.9219C176.11 94.9724 176.421 95.4729 176.101 95.4951C175.778 95.518 175.372 96.0131 174.767 95.5352C174.575 95.3846 173.955 94.4207 173.745 95.3799C173.737 95.4488 173.556 97.5321 172.947 96.2891C172.846 96.0839 172.533 94.682 172.157 95.5401C172.083 95.7063 172.361 95.9661 172.121 96.2334C171.745 96.6463 171.048 96.4194 170.542 97.1748C170.472 97.2857 170.256 98.0119 169.865 97.9082C169.768 97.8871 169.666 97.8246 169.561 97.7061C169.471 97.6024 169.532 97.1082 169.287 97.0899C168.142 96.9925 167.219 97.3558 166.346 97.0596C166.043 96.9541 166.169 96.1736 165.855 95.9756C165.551 95.7778 164.944 95.5933 164.656 95.9541C164.36 96.3155 164.713 97.5444 164.265 97.6533C162.303 98.1218 160.445 97.4354 158.537 97.3985C158.258 97.3927 158.507 97.8255 158.091 97.8496C156.582 97.936 154.01 98.4727 152.619 97.6465C152.626 97.8027 152.628 97.96 152.619 98.1182C152.579 98.7599 152.394 99.3998 152.075 100.008C151.994 100.165 151.483 100.062 151.419 100.072C150.44 100.243 151.757 100.325 151.807 100.375C152.169 100.766 151.071 101.143 152.64 101.398C152.112 103.071 152.992 104.721 151.588 106.362C151.572 106.383 150.924 106.346 150.894 106.388C150.531 106.887 151.538 106.793 152.769 107.124C153.077 107.207 151.592 107.461 151.482 107.483C151.08 107.565 150.117 107.481 150.038 107.508C149.429 107.733 152.616 107.699 152.617 108.004C152.603 108.013 152.025 107.974 151.966 107.999C151.784 108.078 152.016 108.157 151.814 108.235C151.346 108.415 149.799 108.476 150.7 108.75C150.818 108.784 152.624 108.732 152.539 109.003C152.504 109.112 152.535 109.591 152.418 109.728C152.301 109.861 151.721 109.771 151.694 109.78C150.924 110.142 150.604 110.009 149.464 110.193C148.329 110.379 151.037 110.319 151.341 110.392C151.643 110.466 151.009 110.734 150.788 110.799C150.568 110.866 150.197 110.785 150.072 110.845C149.257 111.237 151.418 111.007 151.849 111.131C152.869 111.422 150.861 111.668 150.666 111.941C150.615 112.015 151.07 111.951 151.115 112.017C151.187 112.13 151.11 112.224 151.047 112.315C150.965 112.441 150.908 112.566 151.236 112.723C151.331 112.769 152.543 112.983 151.661 113.149C151.533 113.174 151.031 113.123 150.921 113.237C150.757 113.409 150.657 113.707 150.83 113.877C150.959 114.001 151.777 113.823 151.528 113.994C151.416 114.072 150.928 113.955 150.759 114.1C150.59 114.242 150.628 114.593 150.652 114.721C150.676 114.854 151.295 114.747 151.339 114.755C151.584 114.808 151.9 115.031 151.901 115.055C152.046 116.121 151.102 117.237 151.667 118.197C151.711 118.271 152.345 118.077 152.358 118.087C152.685 118.293 150.925 118.462 150.399 118.796C151.698 118.466 151.488 118.635 151.68 118.806C151.775 118.887 152.265 118.714 152.319 118.711C153.12 118.677 152.156 119.023 151.959 119.097C151.237 119.369 152.144 119.285 151.661 119.467C151.255 119.615 150.644 119.639 150.493 119.761C150.464 119.783 150.452 119.809 150.459 119.839C150.941 119.8 152.137 119.389 152.37 119.513C153.262 120.021 152.448 121.327 152.396 121.805C152.348 122.296 152.45 122.44 152.304 122.734C152.038 123.262 152.948 122.997 153.399 123.275C153.722 123.478 152.62 123.549 151.798 123.605C151.838 123.831 151.876 124.083 151.914 124.362C152.833 124.331 153.617 124.202 153.294 124.518C153.272 124.539 152.669 124.517 152.612 124.595C152.324 125.017 152.232 125.433 152.084 125.848C152.09 125.907 152.097 125.967 152.103 126.027C152.126 126.308 152.144 126.605 152.161 126.918C152.429 126.934 152.726 126.959 153.032 127.009C152.719 127.012 152.43 127.024 152.166 127.04C152.182 127.373 152.195 127.725 152.203 128.094C153.118 128.082 153.898 128.004 153.499 128.337C153.476 128.355 152.862 128.327 152.827 128.386C152.599 128.769 153.771 128.766 153.929 129.165C154.053 129.477 153.361 130.066 153.259 130.429C152.719 130.448 152.371 130.489 152.181 130.539C152.18 130.564 152.18 130.589 152.179 130.613C152.178 130.665 152.176 130.713 152.174 130.757C152.364 130.819 152.698 130.874 153.124 130.902C153.081 131.135 153.164 131.383 152.996 131.615C152.938 131.695 152.393 131.668 152.334 131.68C151.423 131.868 152.678 131.913 152.734 131.962C152.957 132.193 152.897 132.418 152.846 132.634C152.782 132.91 152.733 133.176 153.266 133.428C153.313 133.443 154.597 133.399 153.661 133.59C153.598 133.602 153.067 133.485 152.975 133.671L152.95 133.76C152.853 134.014 152.304 134.477 152.892 134.749C153.044 134.821 154.112 134.939 153.302 135.167C153.192 135.198 152.817 135.204 152.613 135.252C151.961 135.406 153.277 135.356 152.173 135.57C151.691 135.663 151.265 135.779 151.004 135.904C150.99 136.056 150.976 136.206 150.963 136.357C150.993 136.37 151.024 136.383 151.06 136.396C151.088 136.403 152.128 136.386 152.124 136.492C152.114 136.663 151.924 136.932 151.951 137.109C151.966 137.192 152.602 137.066 152.616 137.079C152.813 137.323 152.805 137.554 152.726 137.796C155.715 137.846 158.748 137.888 161.823 137.991C168.244 138.187 174.921 138.099 181.511 138.08C186.106 138.111 189.898 137.593 194.733 136.649C198.244 136.112 201.818 135.417 205.153 134.503C207.932 133.719 210.623 133.339 212.677 132.504C212.761 132.469 212.846 132.432 212.931 132.396C212.991 130.718 213.35 128.997 214.155 127.302C214.257 127.219 214.369 127.147 214.488 127.083C216.481 125.408 219.856 125.436 222.644 125.69C223.046 125.734 223.449 125.781 223.852 125.827C224.416 125.444 225.007 125.077 225.631 124.747C228.543 123.319 231.098 122.853 233.519 122.151C235.129 121.718 236.754 120.233 238.106 118.754C238.968 117.736 239.791 116.309 240.355 115C241.833 113.116 243.273 111.138 244.692 109.148C245.169 108.503 245.563 105.288 245.593 102.955C245.657 100.444 245.569 97.8706 245.397 95.3194C245.364 94.8411 245.293 94.3544 245.191 93.8653C245.012 93.8587 244.911 93.6356 244.661 93.7197C244.349 93.8262 243.957 94.0087 243.631 93.8047C243.435 93.6818 243.276 92.8272 243.196 92.6114C242.974 91.9925 242.501 92.8857 242.405 92.1651C242.3 91.4395 242.835 90.4307 242.37 89.9082C242.199 91.0413 241.999 92.2017 241.817 93.3399C240.693 93.1513 239.584 92.6424 238.405 92.5459C238.257 92.535 238.33 93.1643 238.169 93.169C237.608 93.1815 237.15 92.8267 236.596 92.7617C236.488 92.7491 236.376 92.7472 236.261 92.7608C235.706 92.8282 235.029 93.3961 234.445 93.4824C234.278 92.1375 233.392 92.4636 232.808 92.2598C232.603 92.1889 232.667 91.8445 232.535 91.71C232.034 91.2117 232.132 92.3945 231.953 92.5537C231.183 93.2292 231.5 90.6275 230.721 90.5791C230.68 90.5758 229.985 91.8876 229.905 91.9649C229.395 92.4656 229.901 91.4747 229.646 91.333C229.18 91.0771 228.882 90.6983 228.259 91.0293C228.076 91.1277 227.576 91.941 227.344 91.2354C227.314 91.142 227.39 90.6896 227.361 90.6563C226.806 90.1377 226.63 91.5796 226.255 92.0362C226.127 92.1927 225.996 92.1736 225.878 92.0694C225.632 91.8672 225.406 91.3485 225.352 91.1533C225.124 90.3858 225.6 90.8529 225.624 90.7822C225.885 89.9293 225.469 90.044 225.168 89.9463ZM145.166 136.747C142.706 136.554 140.515 136.489 138.044 136.555C136.034 136.637 133.95 136.777 131.822 136.964C134.536 137.339 137.293 137.781 140.319 138.029C141.362 138.104 139.596 137.456 141.089 137.42C141.367 137.412 141.761 137.424 142.31 137.458C143.288 137.519 144.271 137.567 145.259 137.607C145.229 137.299 145.198 137.009 145.166 136.747ZM144.824 135.291C144.832 135.347 144.198 135.356 144.329 135.737C144.288 135.689 144.278 135.684 144.314 135.731C144.359 135.872 144.708 136.145 145.122 136.388C145.04 135.818 144.947 135.422 144.824 135.291ZM119.79 131.624C120.337 131.638 120.854 131.682 121.338 131.756C120.841 131.822 120.344 131.891 119.842 131.963C116.722 132.532 113.885 132.367 110.15 134.074C110.011 134.155 109.869 134.24 109.725 134.328C109.851 134.214 109.978 134.103 110.104 133.996C113.691 131.699 116.969 131.679 119.79 131.624ZM34.9399 89.0879C34.6858 89.4597 34.4431 89.8462 34.2153 90.249C33.692 91.1464 33.3526 92.2562 33.1879 93.4199C32.9874 95.149 33.5387 93.7687 33.516 95.3008C33.5753 99.2995 33.9337 102.26 34.4809 105.974C34.6151 107.396 35.8539 108.778 37.6498 110.32C37.6949 110.355 37.7517 110.395 37.8139 110.436C38.2692 110.95 42.6388 111.638 46.1078 113.243C46.6479 113.509 47.1493 113.805 47.5903 114.125C48.0417 114.467 46.4273 114.28 48.9057 115.526C50.0917 116.14 51.5695 116.935 53.1196 117.877C54.8694 118.936 56.7387 120.128 58.4809 121.241C58.4067 120.505 58.3236 119.798 58.2289 119.125C58.2532 119.208 58.2882 119.32 58.3627 119.509C58.5663 119.776 58.1692 119.836 59.7631 121.427C60.0118 121.612 60.26 121.819 60.6235 122.013C60.9593 120.697 61.6414 120.997 62.1801 121.158C62.2186 121.588 62.2644 122.05 62.3168 122.531C62.3365 122.534 62.3563 122.538 62.3764 122.541C63.7905 122.778 65.5063 121.94 65.8315 121.63C66.9116 120.813 67.1776 120.122 67.2885 119.956C67.5716 119.402 67.6007 119.223 67.6537 119.069C67.7417 118.766 67.7484 118.697 67.766 118.62C67.858 118.143 67.8174 118.831 67.8481 119.091C67.9734 121.688 68.1613 124.36 68.4242 126.993C68.4403 127.146 68.4572 127.297 68.4741 127.443C69.8473 128.282 71.7569 129.189 73.6811 130.226C74.9336 130.918 76.2309 131.526 77.4116 132.041C76.8159 130.892 76.3282 129.508 76.227 128.034C75.7209 124.768 75.2049 121.455 75.1879 118.786C75.1795 118.612 75.1751 118.44 75.1762 118.282C75.1285 116.279 76.3119 112.853 75.809 110.915C75.7358 110.691 75.3047 111.695 74.9711 110.313C74.9575 110.265 74.943 110.218 74.9291 110.173C74.4237 108.428 73.6186 106.045 73.0502 103.643C72.992 103.357 72.5557 102.32 72.0658 100.739C72.0359 100.797 72.0013 100.86 71.9633 100.925C71.9655 100.915 71.97 100.906 71.9701 100.899C71.9701 100.728 71.8429 100.894 71.85 100.696C71.8506 100.673 71.8782 100.588 71.9145 100.483C71.9359 100.489 71.9638 100.487 71.9926 100.483C71.9812 100.442 71.9691 100.4 71.9575 100.357C71.9423 100.401 71.9283 100.444 71.9145 100.483C71.879 100.474 71.8608 100.446 71.8852 100.364C71.8953 100.332 71.9117 100.298 71.9321 100.263C71.9 100.142 71.8671 100.015 71.8344 99.8809C70.7291 100.602 69.5075 101.021 68.5717 101.144C67.0204 101.38 65.875 101.245 64.8842 101.104C63.0094 100.811 61.24 100.244 60.8207 100.189C56.4036 99.3482 54.8411 97.3696 53.5883 96.8877C51.8587 95.9471 49.5921 95.634 45.6635 93.8223C44.3776 93.1279 41.6729 92.3475 38.9711 91.1905C37.4909 90.5527 36.1262 89.7822 34.9399 89.0879ZM153.209 130.437C153.953 130.562 154.047 130.742 153.125 130.901C153.168 130.746 153.17 130.592 153.209 130.437ZM218.552 129.884C218.396 129.887 218.241 129.908 218.093 129.938C218.264 129.985 218.421 129.956 218.552 129.884ZM151.498 128.022C151.484 128.042 151.483 128.058 151.508 128.07C151.505 128.054 151.502 128.038 151.498 128.022ZM151.458 127.833C151.301 127.087 151.162 126.78 151.086 127.788C151.21 127.799 151.337 127.813 151.458 127.833ZM150.625 123.865C150.41 123.879 150.196 123.853 150.126 123.952C150.08 124.018 150.29 124.121 150.576 124.209C150.592 124.09 150.608 123.975 150.625 123.865ZM148.143 121.473C148.744 121.223 146.454 121.538 147.025 121.62C147.066 121.622 148.114 121.485 148.143 121.473ZM62.7719 117.931C62.9879 117.888 63.1171 117.854 63.1908 117.83C63.1836 117.853 63.1764 117.879 63.1703 117.904C63.1446 118.011 63.1277 118.132 63.1166 118.243C63.094 118.477 63.0931 118.702 63.0971 118.929C63.1113 119.67 63.1732 120.365 62.853 121.013C62.7246 121.293 62.4739 121.246 62.1801 121.158C62.1154 120.435 62.0711 119.8 62.0541 119.31C62.0469 119.084 62.0417 118.89 62.0395 118.726C61.9597 116.925 62.5146 118.842 62.6127 117.795C62.6516 117.803 62.4932 117.685 62.7719 117.931ZM150.886 120.832C150.149 120.867 150.132 121.151 150.879 120.983C150.909 120.974 150.916 120.831 150.886 120.832ZM58.143 118.772C58.1136 118.586 58.1328 118.631 58.141 118.652C58.1633 118.72 58.1907 118.868 58.2143 119.011C58.2197 119.049 58.2236 119.087 58.2289 119.125C58.2234 119.106 58.2181 119.089 58.2133 119.072C58.1624 118.888 58.1537 118.828 58.143 118.772ZM85.5756 117.973C86.227 118.097 86.2592 117.535 85.5912 117.675C85.5644 117.684 85.5485 117.969 85.5756 117.973ZM149.408 111.859C148.78 111.872 148.959 112.012 149.538 111.96C149.573 111.956 149.601 111.856 149.408 111.859ZM151.022 105.635C149.821 105.464 149.694 106.129 150.955 105.983C151.02 105.975 151.081 105.647 151.022 105.635ZM131.026 66.4131C127.515 66.3391 126.995 67.8524 124.952 69.044C123.781 69.752 122.093 70.4336 119.196 70.5811C118.958 70.5886 119.924 69.9497 119.284 69.9258C117.65 69.8633 116.098 70.0346 114.676 70.1504C114.496 70.1652 114.317 70.1787 114.138 70.1905C114.128 70.2655 114.116 70.3415 114.106 70.418C114.04 70.85 114.006 71.1965 113.996 71.4658C113.91 72.5226 114.307 72.3411 114.2 72.9082C113.756 74.9524 112.552 76.8093 111.373 78.2696C109.03 81.2946 105.582 82.5227 104.194 83.042C103.938 83.1055 103.709 83.208 103.568 83.293C102.649 83.8375 101.539 84.9537 100.255 86.0362C99.2519 87.1912 98.2262 88.2751 97.2084 89.2881C94.8953 91.6049 92.2832 93.6377 89.4721 95.1817C89.1439 95.3621 88.8292 95.5248 88.5297 95.6729C84.2442 97.51 83.4927 97.0241 82.5366 96.9151C82.426 96.8865 82.3203 96.8551 82.2162 96.8223C81.6695 96.9994 81.1092 97.169 80.5317 97.3311C80.5555 97.5458 80.6105 97.8324 80.7211 98.1973C81.435 100.38 81.2129 97.4263 82.0375 99.7422C82.2083 100.232 82.3944 100.78 82.5522 101.44C82.6055 101.67 82.6616 101.898 82.7192 102.126C83.4281 101.354 84.2154 100.704 85.0092 100.24C87.0789 98.9717 89.0416 98.46 90.7866 98.0498C92.2104 97.7254 94.0204 97.7917 94.6811 97.3018C94.7444 97.2667 94.8074 97.2315 94.8696 97.1963C95.0739 97.0806 94.7544 96.6712 94.7797 96.6153C95.2177 95.7587 95.3629 96.7938 95.8149 96.7764C97.6049 96.7329 99.15 96.5397 100.437 96.1446C100.979 95.9785 100.279 95.0743 100.917 95.5469C100.961 95.5816 100.899 96.1267 101.057 96.1612C101.416 96.2382 102.037 96.0564 102.298 96.0625C102.803 96.0766 102.883 96.0594 103.343 95.999C103.971 95.9215 104.747 96.0703 105.38 95.8379C105.514 95.7864 105.239 95.2809 105.442 95.1504C105.584 95.0592 105.916 95.0024 106.175 95.0059C106.293 95.006 106.397 95.0174 106.466 95.043C106.7 95.1298 106.692 95.5681 106.747 95.6582C107.206 96.4164 107.709 95.1506 107.795 95.1055C109.386 94.313 110.935 94.6948 112.492 94.3955C113.673 94.1671 114.885 93.7069 115.996 93.5049C117.318 93.2659 118.491 93.3086 119.718 92.9473C119.846 92.908 119.537 92.3263 119.693 92.2783C119.899 92.2162 120.106 92.1546 120.308 92.0957C122.191 91.5806 123.794 91.4645 125.485 91.6045C125.676 91.6239 125.515 92.2151 125.71 92.2666C126.91 92.5678 128.792 93.4666 129.186 90.9512C129.96 90.9604 130.895 90.9606 131.624 91.3838C132.093 91.6565 131.733 92.3113 132.242 91.9961C132.356 91.9249 132.145 91.4058 132.323 91.3408C132.535 91.263 132.758 91.2146 132.982 91.1778C133.519 91.0878 134.096 91.058 134.605 90.8028C134.751 90.7284 134.659 90.2534 134.692 90.1621C134.975 89.4239 135.704 90.5129 135.847 90.5821C136.921 91.0967 137.629 90.7688 138.571 90.6826C138.79 90.6619 138.462 90.046 138.67 90.0039C139.752 89.7942 140.892 89.7332 141.995 89.9151C142.078 89.9296 142.111 90.0053 142.126 90.1006C142.328 90.093 142.553 90.0845 142.602 90.0352C142.932 89.7076 142.873 89.3554 142.788 89.0352C142.757 88.9196 142.059 89.0663 142.038 88.9619C141.902 88.3367 141.958 87.6808 142.336 87.0733C142.409 86.9572 142.949 87.0216 143.073 86.9961C143.933 86.8145 142.754 86.6003 142.64 86.544C142.126 86.2986 142.601 86.1927 142.51 85.9766C142.453 85.8413 142.407 85.6995 142.372 85.5528C142.132 84.582 142.389 83.4597 142.555 82.5879C142.801 81.288 143.311 80.27 143.174 79.0342C143.166 78.9556 142.448 79.0364 142.431 78.9688C142.255 78.0918 142.535 77.2274 142.326 76.3496C142.31 76.2777 141.629 76.3825 141.58 76.2676C141.475 76.0308 141.512 75.7295 141.729 75.4893C141.834 75.3723 142.418 75.5278 142.512 75.4102C142.731 75.1358 142.779 74.842 142.669 74.5606C142.621 74.4409 141.926 74.6217 141.916 74.4668C141.846 73.4057 141.724 72.3626 142.626 71.291C142.691 71.2181 144.104 71.1511 143.833 70.9951C143.44 70.9836 142.977 70.9853 142.557 70.9805C142.455 70.2907 142.499 69.6027 142.583 68.9141C141.92 69.0204 141.168 69.1256 140.294 69.2207C138.935 69.3855 135.813 68.7304 133.66 68.2461C132.64 68.0005 131.86 67.8478 131.685 67.8194C129.776 67.5435 131.669 66.4466 131.026 66.4131ZM71.9633 100.925C71.9381 101.043 71.7926 101.365 71.7914 101.457C71.7836 101.77 71.7849 102.039 71.6196 101.692C71.5589 101.571 71.7868 101.225 71.9633 100.925ZM152.224 96.2383C151.965 96.4409 151.678 96.6432 151.786 96.8623C151.798 96.8866 151.951 96.8668 152.114 96.8535C152.149 96.6125 152.28 96.4002 152.224 96.2383ZM32.3764 90.9199C31.6159 90.9132 31.3193 94.6084 32.0463 93.4795C32.0448 93.3936 32.5201 90.9244 32.3764 90.9199ZM244.316 91.1778C244.043 91.6833 243.887 93.0459 244.331 92.6983C244.352 92.6812 244.464 92.1794 244.553 91.749C244.478 91.5574 244.399 91.3667 244.316 91.1778ZM239.778 91.1162C239.419 90.1662 238.933 91.4379 239.178 92.168C239.43 92.8972 239.887 91.4052 239.778 91.1162ZM165.162 90.5313C165.147 90.4746 164.471 90.4372 164.45 90.4903C164.12 91.5562 165.492 91.6353 165.162 90.5313ZM153.829 68.4541C153.755 68.9575 153.687 69.4628 153.615 69.9707C153.518 70.657 152.93 71.4872 153.188 72.1953C153.22 72.2772 153.786 72.2279 153.835 72.2432C154.554 72.4887 153.404 72.4081 153.251 72.5694C152.648 73.2075 152.597 73.9198 152.818 74.5332C152.914 74.794 154.044 74.5311 153.411 74.7949C153.368 74.8133 152.763 74.7478 152.698 74.8194C152.553 74.982 152.661 75.2897 152.614 75.416C152.519 75.6589 152.524 75.7 152.518 75.9297C152.504 76.2432 152.203 76.6184 152.341 76.9541C152.374 77.0253 152.993 76.9291 153.099 77.043C153.205 77.1579 153.152 77.4621 153.006 77.5645C152.86 77.6667 152.373 77.6244 152.261 77.6426C151.319 77.7923 152.622 78.1423 152.658 78.1875C153.21 79.0106 152.468 79.7153 152.473 80.4903C152.478 81.0795 152.727 81.7009 152.696 82.2617C152.656 82.9257 152.323 83.4897 152.385 84.1358C152.391 84.2034 153.119 84.12 153.128 84.2022C153.172 84.6219 153.178 85.0488 153.12 85.461C153.056 85.9234 152.916 86.3733 152.665 86.8291C152.617 86.9182 151.975 86.8138 151.888 86.9033C151.369 87.4383 150.121 88.3245 152.916 88.5781C152.815 88.9352 152.714 89.3774 152.162 89.7158C152.089 89.7601 152.001 89.7848 151.911 89.8028C152.223 89.8418 152.533 89.8878 152.84 89.9424C153.162 89.9982 152.962 90.4568 152.984 90.5127C153.358 91.3578 153.499 90.1897 153.598 90.1406C154.394 89.7831 155.199 90.7167 155.677 89.3125C159.125 89.6232 162.574 88.8041 165.914 89.9512C165.956 89.967 165.903 90.5375 165.987 90.5606C167.011 90.8386 166.797 89.9577 167.32 88.8311C167.444 88.5505 168.02 89.8041 168.087 89.8906C168.285 90.2217 168.24 91.0845 168.301 91.1455C168.538 91.3574 168.581 90.9056 168.579 90.3438C168.585 89.6582 168.546 88.808 168.844 88.7471C168.863 88.7547 168.892 89.2682 168.949 89.3106C169.129 89.4383 169.235 89.2067 169.42 89.3477C169.844 89.675 170.299 90.9694 170.646 90.0635C170.687 89.9424 170.194 88.4291 170.737 88.3653C170.953 88.3421 171.893 88.0606 172.193 88.086C172.488 88.1131 172.438 88.6586 172.463 88.6748C173.368 89.1339 173.166 89.48 173.788 90.3545C174.405 91.2258 173.696 88.9456 173.779 88.6465C173.862 88.3495 174.544 88.7525 174.723 88.9092C174.902 89.0653 174.817 89.4231 174.96 89.501C175.904 90.0104 175.023 88.2665 175.195 87.834C175.565 86.9295 176.307 88.0928 176.873 88.4141C176.947 88.4556 177.019 88.4827 177.087 88.4893C177.248 88.5041 177.046 88.1345 177.174 88.0703C177.688 87.8221 178.111 88.3038 178.638 87.6973C178.722 87.5984 179.053 86.4622 179.504 87.1826C179.567 87.2873 179.508 87.7433 179.753 87.8047C180.121 87.8967 180.753 87.9016 181.103 87.7051C181.361 87.5592 180.949 86.8815 181.326 87.0586C181.491 87.1392 181.266 87.5973 181.572 87.7119C181.878 87.8259 182.603 87.7168 182.879 87.6699C183.152 87.6218 182.938 87.0929 182.955 87.0528C183.068 86.8248 183.573 86.5005 183.621 86.4961C185.053 86.2969 186.445 86.4864 187.823 86.5576C188.743 86.6042 189.656 86.61 190.578 86.4317C190.759 86.3962 190.603 85.8237 190.63 85.8125C191.246 85.5334 190.838 87.1055 191.301 87.5987C191.175 86.4233 191.444 86.6219 191.878 86.4717C192.088 86.3979 191.951 85.9476 191.968 85.8994C192.253 85.1918 192.514 86.0783 192.578 86.2598C192.813 86.9253 193.009 86.1206 193.168 86.5664C193.325 87.0091 193.025 87.6838 193.442 87.6612C193.545 87.2349 193.197 86.1407 193.51 85.9512C194.711 85.2304 196.998 86.0726 197.96 86.1631C198.926 86.2506 199.237 86.1729 199.796 86.3242C200.803 86.5964 200.432 85.7798 201.044 85.3985C201.651 85.0148 201.388 87.033 201.486 87.4658C201.586 87.8966 201.675 87.45 201.789 87.6846C201.906 87.9197 201.671 88.2217 201.941 88.3037C202.211 88.3863 202.912 87.5802 202.959 87.1192C203.052 86.311 202.819 85.4969 203.088 85.419C203.154 85.402 203.244 85.4145 203.367 85.4629C203.408 85.4829 203.329 86.0193 203.486 86.0586C204.731 86.3535 205.987 86.2836 207.213 86.5694C207.38 86.6114 207.27 87.2073 207.368 87.2373C208.388 87.5544 207.969 86.5832 208.466 85.4502C208.42 86.9253 208.768 87.8064 209.522 87.7813C209.974 87.7669 209.869 87.129 210.147 86.6651C210.231 86.5251 210.57 86.9529 210.618 86.6494C210.776 85.6565 210.433 84.562 211.241 84.9766C211.274 85.0038 211.183 85.5392 211.302 85.5684C212.082 85.7601 212.15 84.7258 212.99 84.585C213.652 84.4747 214.832 85.095 215.579 85.2002C215.561 86.8522 216.258 86.4761 216.556 85.3399C217.04 85.391 217.567 85.335 218.033 85.502C218.192 85.5596 218.077 86.0358 218.096 86.0879C218.387 86.9044 218.624 85.8015 218.73 85.7608C219.877 85.3684 220.765 86.2435 221.886 85.4766C221.899 85.4664 221.921 85.3373 221.954 85.1983C221.064 84.7452 220.194 84.2332 219.35 83.6387C216.66 83.1414 213.885 82.5877 211.211 81.8369C207.791 80.8717 204.48 80.1552 200.738 78.6406C198.164 77.542 193.505 77.3431 189.705 76.3789C185.17 75.3697 180.631 74.5088 175.961 73.4063C173.647 72.8263 171.182 72.5423 168.643 72.291C166.164 72.0378 163.865 71.5265 161.568 70.9199C160.56 70.6465 159.498 70.4109 158.42 70.1651C157.924 70.0533 158.941 69.5885 157.949 69.3682C156.34 69.0103 154.986 68.7069 153.829 68.4541ZM196.163 89.8574C195.797 89.3063 195.772 91.3441 196.151 90.8516C196.169 90.8219 196.181 89.8903 196.163 89.8574ZM234.04 89.626C233.999 90.4353 234.029 91.1392 234.713 90.8604C234.904 90.7835 235.173 90.2399 235.464 89.7002C234.972 89.6735 234.5 89.6492 234.04 89.626ZM142.137 90.2051C142.145 90.3707 142.128 90.55 142.193 90.5762C142.415 90.6632 142.544 90.5243 142.659 90.3506C142.658 90.3132 142.65 90.2754 142.629 90.2373C142.6 90.1806 142.334 90.1926 142.137 90.2051ZM177.299 89.4619C177.289 89.4362 177.118 89.4455 177.111 89.5684C177.11 89.5824 177.112 89.5982 177.116 89.6153C177.123 89.646 177.13 89.6753 177.138 89.7012C177.268 90.1286 177.481 89.9161 177.299 89.4619ZM241.662 89.3662C241.203 89.4964 240.753 89.5871 240.319 89.6485C240.712 89.6882 241.117 89.6776 241.541 89.5655C241.563 89.5588 241.606 89.4778 241.662 89.3662ZM242.91 88.9102C242.776 88.9712 242.643 89.0273 242.51 89.0801C242.551 89.1456 242.591 89.1974 242.641 89.2129C242.871 89.2882 243.102 89.3081 243.333 89.3096C243.239 89.1759 243.095 89.0429 242.91 88.9102ZM226.285 87.4815C226.497 88.0969 226.843 88.4593 227.375 88.1299C226.976 87.9033 226.61 87.6671 226.272 87.4385C226.277 87.4527 226.28 87.4675 226.285 87.4815ZM92.2367 75.3701C87.6856 75.9167 80.2998 76.2576 77.8188 76.334C77.7869 76.3349 77.7551 76.3367 77.7241 76.3379C74.7423 76.6185 76.6984 75.7685 76.5102 75.7647C76.0401 75.793 75.6035 75.812 75.1977 75.8252C75.2466 76.2637 75.2983 76.6962 75.3559 77.1201C75.8331 81.1763 75.8448 84.3013 76.141 87.5498C76.1524 87.7276 76.1619 87.9107 76.1733 88.0977C76.179 88.095 76.185 88.0925 76.1908 88.0899C77.5727 87.4439 79.4128 87.5285 81.4555 86.4434C82.4713 85.8764 82.662 85.4239 82.5815 85.1836C82.9454 84.719 83.5699 84.1929 85.0629 83.0078C86.0362 82.2254 87.0168 81.3259 87.9848 80.3125C89.5544 78.6814 91.0022 77.0439 92.2367 75.3701ZM195.924 87.4121C195.916 87.3852 195.624 87.3638 195.618 87.3906C195.47 88.0396 196.056 88.0829 195.924 87.4121ZM222.223 85.333C222.152 85.5042 222.094 85.7411 222.431 85.7862C222.845 85.8415 223.534 86.3 224.176 86.2041C223.516 85.9389 222.865 85.6501 222.223 85.333ZM215.59 85.2442C215.914 84.5937 216.306 84.5198 216.555 85.3399C216.235 85.2935 215.912 85.2849 215.59 85.2442ZM62.8676 74.7071C62.3842 75.2939 62.2656 76.0713 61.3412 76.2442C59.6222 76.6 52.8075 75.9305 51.7446 75.8584C51.7334 75.8605 51.7221 75.8623 51.7114 75.8643C50.085 76.1368 51.9127 75.1906 50.5063 75.4834C49.2696 75.7062 48.3069 75.9448 47.561 76.1826C47.8978 76.3596 48.1628 76.6505 48.1723 77.2119C48.195 78.1551 47.471 78.5487 47.6147 78.9912C47.6878 79.2028 48.4791 77.7699 48.5297 77.7344C48.8979 77.4837 48.9573 77.8001 49.0883 77.959C49.1841 78.0389 49.2891 78.0956 49.4272 78.0869C49.5292 78.0804 49.7062 77.4372 49.7914 77.4385C50.0855 77.4402 50.2084 77.8173 50.435 77.8614C50.5372 77.8795 50.7304 77.4133 50.7973 77.4864C50.9586 77.6563 51.0329 77.9243 51.0053 78.4326C51.0027 78.479 50.6341 79.0008 50.7533 79.0821C50.9462 79.2109 50.9985 79.7485 51.4125 79.4063C51.5369 79.3013 52.0093 78.2517 51.8168 79.0371C51.776 79.2011 51.1822 80.454 51.8188 79.4258C51.9307 79.2564 52.8082 77.8791 52.518 78.8848C52.4421 79.1501 52.0902 80.232 52.2309 80.0977C52.2511 80.0752 52.4485 79.4861 52.5287 79.4531C52.6631 79.4032 52.7734 79.4089 52.8842 79.418C53.0625 79.4506 53.2391 79.4879 53.4428 79.4619C53.5481 79.4476 53.6623 78.8029 53.8129 78.7998C54.2304 78.7951 54.6156 79.1385 54.8793 79.4776C54.9753 79.6032 54.6712 80.0459 54.6557 80.1045C54.4135 81.0269 55.0234 79.9114 55.1059 79.8672C55.5998 79.6073 55.578 80.2578 55.9233 80.252C56.0188 80.2523 56.2325 79.6828 56.2719 79.6416C56.6676 79.25 56.0644 80.1642 56.1108 80.3213C56.2393 80.7646 56.5643 80.8772 56.8744 80.9551C56.9885 80.9812 57.2055 80.3054 57.3051 80.336C57.8541 80.5042 58.3284 80.8269 58.6069 81.3438C58.6501 81.4008 58.69 81.4594 58.727 81.5186C58.8088 81.6541 58.4561 82.0728 58.4174 82.1934C58.136 83.0298 58.9583 82.1571 59.0678 82.0918C59.5527 81.7915 59.3689 82.2409 59.5668 82.2617C60.5463 82.3628 60.562 82.7166 60.7934 83.0215C60.8222 83.0612 60.8512 83.1036 60.8813 83.1475C61.743 83.7338 62.3519 84.3853 63.3032 84.6221C63.3591 84.636 63.5022 84.1614 63.5844 84.002C63.4833 82.1 63.3969 80.3292 63.2612 78.9326C63.0796 77.4728 62.9582 76.0717 62.8676 74.7071ZM227.754 75.6328C228.971 75.8438 230.222 76.0506 231.482 76.2627C233.503 76.6301 235.254 76.8403 237.628 77.4053C237.655 76.9798 237.674 76.5614 237.676 76.2012C237.678 76.129 237.677 76.056 237.679 75.9834C235.143 75.8093 232.606 75.7239 230.086 75.4258C229.075 75.3199 228.06 75.2284 227.039 75.1406C227.3 75.3139 227.536 75.4786 227.754 75.6328ZM47.3578 27.3565C46.5302 27.5302 45.8376 27.7365 45.3315 27.9844C42.9008 29.0825 40.5184 30.2082 37.9369 31.3701C33.2935 33.3507 29.4762 34.7472 26.4262 36.6182C25.1541 37.3435 24.3223 38.5065 24.3852 38.5069C23.6806 40.4417 23.7113 40.2811 23.518 41.1455C23.3701 41.8655 23.2724 42.767 23.225 43.7383C23.1299 45.6939 23.2174 47.9028 23.3891 50.128C23.6534 53.4266 23.8417 56.9148 24.3451 58.7852C25.4592 63.5693 25.8734 65.9977 27.2436 69.1885C28.0323 71.0673 29.0068 72.365 30.1537 73.1895C31.3629 74.0538 32.6128 74.906 33.808 75.6475C34.5978 74.6646 36.2074 73.6414 37.5317 73.4483C37.6493 73.279 37.7819 73.2633 37.8959 73.5957C38.9991 72.6744 40.3093 71.8014 41.8344 71.209C42.2978 71.0393 42.7328 70.9186 43.1303 70.8408C43.4348 70.6865 47.5848 70.3068 49.6537 69.4229C51.5392 68.9149 51.2933 69.0828 51.7739 68.9707C52.1049 68.9114 52.3777 68.8537 52.6323 68.7881C52.8092 68.7393 50.326 68.1326 54.7055 68.126C57.0078 68.1484 59.9872 68.0133 63.1264 67.9561C63.3957 67.256 63.6311 66.0778 63.4174 63.1016C63.4023 62.6675 63.3003 60.9546 63.4477 58.6621C63.6966 56.3957 63.7126 53.3432 66.4623 50.0322C67.0347 49.3629 67.5335 48.8345 67.8569 48.4756C68.1223 48.2082 66.197 48.9806 68.8383 46.7744C71.439 44.7955 74.398 42.9866 78.7104 42.3809C78.7584 42.3854 78.8971 42.3543 79.1069 42.3018C77.8193 41.8474 76.2549 41.4828 74.7045 41.2608C74.4045 41.2156 74.096 41.1657 73.7758 41.1133C71.0688 40.6947 68.2908 39.8716 65.5561 39.5069C65.1818 39.4531 65.271 40.0558 65.1908 40.0879C65.0789 40.1265 64.9745 40.1517 64.8881 40.168C64.0037 40.3355 64.4911 39.4588 63.9145 39.1582C61.4623 37.8469 58.8382 36.927 56.4399 36.416C55.425 36.2004 56.0783 37.5869 55.2758 36.6739C55.2197 36.6116 55.6466 36.1115 55.3969 35.9658C55.2578 35.8861 55.0841 35.8113 54.891 35.7403C54.2171 35.4989 53.3728 35.2596 52.9946 35.0801C52.0371 34.6192 51.8761 34.5591 50.9662 34.1651C50.5724 33.99 50.1686 33.7713 49.7651 33.5391C47.2065 32.0133 47.5119 30.2027 47.3012 29.8399C47.0629 28.9281 47.1783 28.0142 47.3578 27.3565ZM222.419 70.8936C222.224 70.8955 221.963 71.285 221.788 71.6973C221.924 71.9929 222.06 72.2871 222.199 72.5781C222.515 72.6754 222.797 72.7731 223.028 72.8721C228.335 73.548 229.014 70.8233 222.419 70.8936ZM168.766 70.5908C167.393 70.6203 166.678 70.758 167.706 71.2578C167.746 71.2748 168.121 71.3327 168.708 71.3877C170.897 71.5229 175.793 72.2517 175.974 72.3281C176.061 72.3216 176.14 72.3133 176.21 72.3047C176.919 72.2274 176.852 72.0217 176.333 71.7608C175.108 71.0615 171.01 70.4848 168.766 70.5908ZM223.688 45.9297C223.432 45.8972 223.198 45.9189 223.011 45.9531C222.006 47.1249 221.047 48.5746 220.29 49.9971C220.086 50.382 219.894 50.7684 219.722 51.1416C218.261 54.5286 217.453 61.1338 218.284 63.0371C219.081 65.2346 219.912 67.3794 220.789 69.4375C223.322 69.5752 226.547 69.7189 229.34 70.128C229.775 70.1892 230.232 70.2732 230.694 70.375C233.118 70.9387 235.849 71.8689 236.998 72.1592C237.214 72.2166 237.427 72.2648 237.638 72.3086C237.618 71.934 237.594 71.5715 237.562 71.2276C237.333 68.6628 237.108 66.7618 236.595 64.8057C235.455 60.3283 234.419 56.5744 232.853 52.6514C232.087 50.6861 231.593 49.004 231.115 47.71C231.021 47.3171 230.836 46.9495 230.681 46.6748C230.079 46.5057 229.102 46.2903 228.084 46.2158C226.38 46.0479 224.831 45.9141 223.688 45.9297ZM89.6235 53.0449C88.2135 53.0049 86.9102 53.0954 85.6117 53.335C84.247 53.5453 83.1452 54.0766 80.1987 54.5274C78.9552 54.6055 76.5743 55.9349 74.9272 57.6172C74.8575 57.8126 74.6443 58.3326 74.5942 58.8946C74.4312 59.9132 74.3608 61.1941 74.352 62.5313C74.3389 64.4031 74.4537 66.3582 74.601 68.4463C75.2041 68.4393 75.9652 68.3912 77.2231 68.2744C78.7967 68.1944 80.3426 68.041 81.9887 67.6319C82.3263 67.5618 88.4053 65.4242 91.7114 65.6563C92.153 65.6895 92.5496 65.7672 92.8901 65.9004C93.3424 66.0662 93.1644 67.7027 98.35 66.2403C98.8525 65.552 99.2882 64.9193 99.6479 64.2442C100.681 62.4124 101.248 60.8428 101.455 59.1348C101.259 59.1046 101.071 59.0084 100.905 58.7422C99.9332 57.1792 99.2787 55.5119 98.5932 54.1358C98.5844 54.1086 98.5711 54.0809 98.56 54.0508C98.3417 54.0372 98.1183 54.0289 97.894 54.0352C95.753 53.9304 93.3953 53.9109 90.975 53.8135C89.3322 53.7485 91.2239 53.1555 89.8051 53.0547C89.7502 53.0501 89.6897 53.0469 89.6235 53.0449ZM142.236 33.333C142.016 34.7456 142.002 36.181 142.449 37.6114C142.494 37.7556 143.652 38.0949 143.672 38.4072C143.68 38.5439 143.646 38.6693 143.593 38.7822C143.463 39.0718 143.219 39.3141 143.229 39.5635C143.276 40.9215 143.847 42.1022 143.979 43.4063C143.989 43.5071 143.999 43.6088 144.006 43.711C144.051 44.2329 143.483 44.131 143.559 44.7725C143.64 45.4138 144.433 45.6901 144.251 46.6074C144.123 47.2412 143.003 48.0163 142.705 48.6856C142.676 48.7584 142.655 48.8325 142.645 48.9072C144.086 48.83 144.11 49.4132 144.511 50.46C144.589 50.6619 145.088 50.4353 145.151 50.5313C145.416 50.927 145 51.2962 145.279 51.6739C145.346 51.7661 145.84 51.7757 145.922 51.8526C146.34 52.2367 146.128 52.7431 145.838 53.1338C146.96 53.2931 148.14 53.4866 149.402 53.7461C152.021 54.3005 154.628 55.0361 156.727 55.5215C160.35 56.4236 162.496 57.2745 164.955 57.8819C167.324 58.4788 165.041 57.2162 166.796 57.5938C166.898 57.6161 167.011 57.6424 167.135 57.6739C171.986 58.9595 176.179 60.3086 179.881 60.9356C182.628 61.3985 185.761 61.8234 189.187 62.8711C191.664 63.6395 193.905 64.3453 196.222 65.0069C199.666 65.9798 203.699 66.7858 207.545 67.5401C208.221 67.669 208.883 67.8096 209.542 67.9571C209.354 67.479 209.169 67.0008 208.986 66.5235C207.2 61.2397 207.967 56.7882 208.778 52.586C208.811 52.4404 208.844 52.296 208.877 52.1524C208.56 52.1721 208.267 52.192 208.018 52.2119C207.118 52.2875 206.602 51.955 205.77 52.1104C205.656 52.1309 205.739 52.7182 205.705 52.7422C204.762 53.3953 205.27 51.988 205.095 51.7227C204.657 51.0822 204.371 50.6411 203.841 50.5235C203.589 50.4649 203.291 50.4909 202.904 50.6192C202.637 50.7065 201.789 52.7289 201.311 52.8321C200.685 52.9596 200.949 52.2313 200.285 52.3838C200.226 52.3962 200.222 52.8521 199.811 52.8164C198.274 52.6556 196.89 52.5749 194.189 52.002C193.722 51.8822 193.252 51.7694 192.788 51.6719C192.511 51.6126 192.7 52.3979 192.297 52.3233C191.007 52.0794 189.679 51.7522 188.442 51.3233C187.981 51.1531 187.39 50.9338 186.842 50.6865C186.413 50.4918 186.817 50.0717 186.757 49.9014C186.384 48.8729 185.196 49.9214 185.038 49.9063C181.715 49.6038 179.541 47.8517 176.484 46.8985C176.246 46.8272 176 46.7644 175.744 46.711C175.571 46.6753 173.83 47.5067 173.708 46.1592C173.7 46.0688 173.59 44.6955 172.786 45.2969C172.735 45.3347 172.859 46.0664 172.268 45.7715C171.676 45.4758 170.514 45.4945 169.859 44.4854C169.754 44.323 169.642 43.872 169.392 43.544C169.143 43.2265 168.777 43.024 168.163 43.2881C168.083 43.3323 165.848 44.7979 166.032 43.1885C166.065 42.9244 166.793 41.4657 165.508 41.8047C165.264 41.8727 165.436 42.3495 164.876 42.3477C164.021 42.3482 163.287 41.5456 162.213 41.8906C162.044 41.9438 161.261 42.5644 160.978 42.0674C160.928 41.9952 160.889 41.9016 160.861 41.7832C160.824 41.6286 161.176 41.1804 160.916 41.0156C159.677 40.2319 158.215 40.0823 157.018 39.2813C156.591 38.998 157.111 38.2435 156.689 37.8545C156.266 37.4656 155.316 36.924 154.66 37.1416C154.01 37.3615 154.171 38.8794 153.345 38.7432C152.972 38.6816 152.605 38.6082 152.235 38.5225C149.498 37.8137 146.908 36.7913 143.5 34.3399C143.112 34.0229 142.685 33.6847 142.236 33.333ZM111.761 21.7266C110.845 21.7715 109.915 21.7779 108.997 21.9014C108.635 21.9518 109.168 22.5977 108.629 22.6524C107.145 22.8027 105.3 22.6323 103.862 22.4365C103.505 22.3873 103.551 22.1309 103.609 21.9502C103.281 21.9539 102.961 21.9562 102.649 21.9571C102.578 22.0708 102.519 22.1636 102.469 22.1826C101.307 22.599 100.399 22.1446 99.4076 22.2149C99.3117 22.2215 99.2161 22.233 99.1215 22.249C98.8063 22.3012 99.0494 22.8977 98.9887 22.9551C98.3528 23.5041 98.8012 22.4016 98.3823 22.2959C97.2176 21.9993 95.9218 22.1105 94.9897 22.2822C94.6571 22.347 95.1 23.0047 94.8158 23.0547C94.417 23.1293 94.1522 23.1895 93.5688 23.2989C92.069 23.5782 90.5863 23.8142 88.9701 23.9571C88.8373 23.9678 88.699 23.9794 88.5619 23.9893C88.1287 24.0202 88.2591 23.4309 88.143 23.3321C87.3338 22.6438 86.7052 24.0133 86.519 24.1758C85.6782 24.9115 85.1824 24.542 84.3276 24.836C83.856 24.9985 83.3621 25.1531 82.8461 25.2998C82.367 25.4183 81.6443 26.0071 78.4555 26.5322C78.6938 26.4653 77.2221 26.8009 76.0893 26.9531C74.8959 27.1203 73.7732 27.1852 72.7416 27.2031C71.5833 27.2212 70.6466 27.183 69.7758 27.1553C67.053 27.0542 64.7322 26.8836 62.7104 26.916C64.5433 27.4745 66.3006 28.0392 67.7084 28.5625C68.5872 28.8921 69.8206 29.299 70.9848 29.7676C71.2352 29.8691 71.2668 31.3063 71.8764 31.1153C71.9719 30.7314 72.0305 30.2724 72.1049 29.8584C72.996 29.9415 73.8843 30.0248 74.728 30.0938C78.8166 30.5523 83.04 30.9903 88.1039 34.4961C88.3169 34.7296 88.7457 34.9772 90.1 35.3155C90.3064 35.3654 90.1185 34.5528 90.519 34.6465C90.6721 34.6818 90.8281 34.7162 90.9907 34.75C93.3854 35.2903 95.4505 35.2187 99.3588 36.9356C99.8445 37.1792 99.0948 38.1757 100.672 38.711C100.709 38.7247 100.746 38.7385 100.785 38.752C101.18 38.8449 103.107 39.8926 103.624 39.9961C103.706 40.0057 103.809 39.2929 104.324 39.6934C105.262 40.4434 106.045 41.2239 106.778 42.0977C107.057 42.4409 107.34 42.7939 107.628 43.167C108.332 43.606 109.021 44.1411 109.639 44.8018C110.022 45.2316 110.799 45.8857 111.866 47.044C112.886 48.1526 114.445 50.2438 114.814 52.9717C114.879 53.4433 114.935 53.9361 114.984 54.4434C118.105 53.3998 120.437 53.1783 122.575 52.8604C123.526 52.7123 126.937 52.0397 129.218 52.0254C131.668 51.9384 133.963 52.0498 136.315 52.1826C136.636 52.2014 136.885 52.2037 137.071 52.1924C137.996 52.1136 137.084 51.5883 137.416 51.5703C141.512 51.3705 138.421 52.2004 140.996 52.5283C141.593 51.6811 142.23 51.0529 140.89 50.0049C140.469 49.6947 138.784 50.0873 140.056 48.9209C140.061 48.9167 140.069 48.9095 140.08 48.9004C140.272 48.7975 141.237 47.9705 140.425 47.6192C140.318 47.5755 139.826 47.663 139.77 47.5918C139.407 47.1033 139.715 46.6361 139.392 45.9414C139.15 45.4167 138.833 44.7405 138.734 43.9483C138.71 43.7743 138.705 43.5983 138.727 43.4209C138.781 42.9976 139.631 42.326 139.827 42.0801C140.394 41.3937 139.224 40.8776 139.954 40.3574C140.688 39.8409 142 40.4463 142.368 39.333C141.074 39.4675 139.738 39.5501 138.433 39.6494C138.425 39.5755 138.417 39.5016 138.41 39.4268C138.18 36.8468 138.478 34.435 138.815 31.6602C138.862 31.301 138.112 31.5629 138.151 31.1612C138.165 31.0289 138.183 30.8973 138.206 30.7666C137.437 30.086 136.619 29.2814 135.831 28.3223C133.822 25.4374 132.86 24.9729 134.817 25.3037C135 25.3051 135.178 25.2907 135.33 25.2627C133.816 24.1353 136.568 24.1652 134.879 23.4434C134.048 23.0688 132.796 24.4036 132.602 24.4072C131.233 24.4197 130.528 23.95 129.747 23.7061C129.523 23.6277 129.214 23.571 128.812 23.5791C128.5 23.5851 128.718 24.2795 128.448 24.2774C127.452 24.2243 126.381 23.9921 123.947 23.1768C123.494 23.0083 123.166 22.9399 122.892 22.9063C122.885 22.9154 122.878 22.9252 122.872 22.9346C122.763 22.7889 122.568 22.5859 122.318 22.3487C122.301 22.3331 122.333 22.2699 122.373 22.1875C121.109 22.0668 119.829 21.97 118.538 21.8975C118.385 22.1278 118.197 22.2618 117.817 21.8604C117.395 21.8396 116.972 21.8215 116.548 21.8057C116.282 22.0355 115.91 22.3092 115.531 22.4414C115.13 22.5816 114.712 22.5626 114.429 22.1621C114.369 22.0793 114.281 21.9201 114.176 21.7412C113.372 21.7283 112.567 21.7227 111.761 21.7266ZM143.776 52.8672C143.692 52.5442 143.373 52.2655 143.025 52.5117C142.937 52.573 142.884 52.659 142.861 52.7549C143.163 52.7906 143.467 52.8297 143.776 52.8672ZM141.944 43.6162C141.519 43.3109 140.408 43.4178 140.139 43.8028C140.055 43.9688 140.065 44.1828 140.223 44.4229C140.276 44.4999 141.997 44.3534 142.034 44.2783C142.183 43.9784 142.119 43.7642 141.944 43.6162ZM149.991 23.9268C150.079 24.526 150.427 24.927 150.83 25.2393C151.089 25.4569 151.443 25.58 151.76 25.8037C152.016 25.9814 151.833 26.3322 152.007 26.5567C152.753 27.4246 152.872 26.0338 153.245 25.9776C153.715 25.9279 154.033 26.1378 154.238 26.4697C153.769 26.8231 153.534 28.4372 154.564 28.6426C154.622 28.6455 156.067 27.3989 156.291 27.3682C157.533 27.0811 156.297 27.9418 156.911 28.2686C157.427 28.5497 157.861 28.8662 158.321 29.1572C158.73 29.4406 159.183 29.6505 159.886 29.711C160.258 29.7374 161.476 29.2374 161.751 30.2451C161.788 30.3776 161.499 30.8173 161.55 30.8789C162.484 31.9552 163.318 30.5466 164.279 30.4541C164.995 30.398 165.308 31.1716 165.34 31.6699C165.11 31.7228 165.015 31.8466 164.967 31.9199C164.786 32.3951 164.723 32.3955 164.815 32.3955C164.495 32.7283 164.468 32.9358 164.573 33.0947C164.425 33.1277 164.496 33.1473 164.683 33.2403C164.662 33.3205 164.645 33.3972 164.63 33.4697C164.687 33.4075 164.745 33.3483 164.803 33.291C164.743 33.2802 164.696 33.2675 164.683 33.2403C165.363 31.7911 166.332 31.7756 167.112 33.4873C167.449 34.2892 166.785 34.9385 168.364 35.0635C168.394 35.0662 168.423 35.0639 168.451 35.0625C168.632 34.8041 168.857 34.5643 169.127 34.4971C169.309 34.2184 169.498 33.932 169.836 33.8838C171.466 33.6593 172.906 35.2915 174.309 35.6905C174.828 35.8381 174.578 35.078 174.937 35.1592C175.72 35.3401 176.243 35.8556 176.937 36.1563C177.09 36.2225 177.256 36.2752 177.437 36.3037C177.519 36.3118 177.598 35.6547 177.851 35.7569C179.793 36.5254 181.411 37.6363 183.534 38.5899C184.521 39.0298 186.408 39.5389 187.482 40.1074C187.515 40.125 187.546 40.1427 187.577 40.1602C188.943 40.9664 190.345 42.3641 192.092 42.4981C192.225 42.5117 192.353 42.5193 192.471 42.5196C193.241 42.4825 193.187 41.9081 193.587 41.6026C194.318 40.9162 195.365 42.5529 195.576 42.8028C195.562 42.8141 194.76 42.877 195.151 43.2461C195.333 43.9453 195.563 42.8253 195.576 42.8028C195.671 42.9729 197.372 43.2368 197.735 43.1231C197.926 43.0637 197.847 42.4579 197.947 42.4385C198.222 42.3867 198.497 42.338 198.78 42.294C201.008 41.9661 203.213 41.9406 205.416 42.2285C205.46 42.2449 205.383 42.9155 205.486 42.9375C206.93 43.2614 207.87 42.4432 209.009 41.9463C209.396 41.7767 209.746 41.6803 210.056 41.6709C210.682 41.6522 211.228 41.9618 211.71 42.7031C212.044 42.63 212.442 42.6522 212.846 42.7197C213.751 41.3176 214.763 39.9941 215.917 38.7354C214.395 38.2043 212.594 37.5407 210.954 36.7256C209.258 35.8891 207.906 35.3166 207.073 35.1621C204.163 34.5723 201.029 33.9987 198.277 33.6572C195.513 33.3189 192.966 32.8404 190.497 32.378C188.764 32.0492 191.107 33.2107 188.351 32.711C187.465 32.5521 186.56 32.387 185.682 32.2383C182.223 31.6789 178.017 30.6815 175.001 29.9834C173.043 29.5621 171.141 29.0603 169.47 28.5655C166.7 27.7397 170.548 28.1328 167.831 27.3321C166.724 27.0026 165.718 26.7421 165.251 26.6768C162.918 26.396 160.226 26.1644 157.268 25.5518C154.397 24.9195 152.036 24.2741 149.991 23.9268ZM140.374 34.4971C141.424 33.5512 140.01 32.723 139.161 33.4092C138.32 34.1412 140.058 34.8062 140.374 34.4971ZM164.856 32.3526C164.87 32.3399 164.902 32.3686 164.943 32.4092C164.886 32.3961 164.843 32.3955 164.815 32.3955C164.828 32.3818 164.842 32.3668 164.856 32.3526ZM148.493 25.9658C148.319 25.9198 148.07 25.9651 147.774 26.0586C148.075 26.2694 148.382 26.4806 148.696 26.6905C148.918 26.8378 149.156 26.9798 149.406 27.1182C149.507 26.6175 149.351 26.2048 148.493 25.9658ZM122.872 22.9346C123.012 23.1225 123.007 23.2171 122.778 23.1817C122.719 23.1772 122.79 23.0482 122.872 22.9346Z" fill="black"/>
</svg>
