<svg width="265" height="369" viewBox="0 0 265 369" fill="none" xmlns="http://www.w3.org/2000/svg">
<path d="M5.9933 80.007C5.42906 73.199 5.50342 66.3736 5.1413 59.8205C4.69412 54.6179 6.08021 48.8065 7.02741 45.0412C7.44763 43.3225 7.73092 40.833 8.09083 38.1097C8.66561 35.2152 8.22011 32.7201 11.3217 27.1584C13.6796 23.446 17.511 20.0757 21.1158 18.1361C24.5356 16.2247 28.0151 14.829 31.3146 13.7229C34.5068 12.6399 38.1007 11.7164 39.6575 11.1088C41.855 10.2016 44.2024 9.40549 46.6174 8.8647C53.2563 7.63666 51.9792 8.2468 53.0017 8.16636C53.8062 8.06031 54.9205 7.91033 56.8392 7.75081C63.1465 7.30296 68.4517 7.38422 73.4743 6.97844C78.5554 6.62068 83.1583 6.48101 88.0484 6.3499C91.5009 6.2659 87.2397 7.14133 90.8559 7.03593C93.6859 6.95099 96.4921 6.8504 99.2509 6.71864C105.35 6.43426 111.141 6.35105 116.982 6.17288C128.021 5.92282 138.79 6.03168 150.064 6.25245C152.144 6.29698 154.243 6.34562 156.318 6.39914C163.341 6.52948 170.665 7.08093 177.368 7.48192C184.915 7.86996 192.594 8.04764 200.341 8.35364C207.262 8.58458 214.491 9.36523 220.987 9.94195C225.735 10.1815 230.29 12.7999 233.048 14.7128C238.222 18.0708 241.892 22.3729 245.506 25.8609C249.09 29.3748 251.268 33.6977 252.888 37.484C254.197 40.5199 255.748 43.9414 256.754 47.7079C258.413 56.3217 258.215 62.6222 256.734 70.8007C255.45 75.7892 251.571 77.5667 249.272 78.6136C246.885 79.6386 244.106 80.3015 243.309 80.6511C240.723 81.8295 237.975 82.9685 235.108 83.872C232.178 84.802 229.217 85.6235 226.344 86.404C223.989 87.0413 221.83 87.8687 219.758 88.9805C214.77 91.4669 210.513 92.3531 205.913 93.3087C200.095 94.4017 194.403 95.2535 188.594 96.0157C187.764 96.1196 186.903 96.2717 185.788 96.4241C184.659 96.4927 183.273 97.0068 180.439 95.9849C175.506 93.6687 173.272 90.5048 170.908 87.4897C167.681 83.0827 166.549 78.187 165.782 73.8625C165.02 69.6182 165.099 65.01 166.017 60.802C166.909 56.5772 168.397 52.8967 169.419 49.5313C169.969 47.8263 170.339 45.8575 171.402 43.3709C172.377 40.8675 175.039 38.5613 177.253 37.7751C179.44 36.9077 181.322 36.692 182.064 36.4203C188.613 34.6965 193.068 36.3372 197.794 38.0061C201.219 39.4048 204.372 41.0514 207.48 43.02C208.837 43.8946 210.176 44.8007 211.619 46.0546C214.615 48.669 217.588 52.415 218.654 57.1312C219.485 60.7233 219.806 64.3105 220.05 67.7405C220.395 72.5577 219.092 76.8816 217.754 80.6932C215.689 85.8945 212.404 88.863 208.391 91.5563C205.588 93.2864 202.801 94.8324 200.072 96.383C197.634 97.5597 196.82 97.4236 195.507 97.6866C194.302 97.8614 193.168 97.9709 192.032 98.0592C189.768 98.2316 187.557 98.3061 185.346 98.3279C180.922 98.3551 176.567 98.2223 172.064 97.6395C170.319 97.4364 168.069 96.5633 166.583 94.8764C165.089 93.2135 164.534 91.4038 164.21 89.9462C163.618 87.0217 163.75 84.629 163.515 82.9369C162.687 78.2307 164.759 73.08 166.107 70.1107C167.501 66.6635 166.081 68.5028 166.299 67.8383C166.466 67.2783 166.605 66.7704 166.724 66.2978C167.181 64.3965 166.949 64.4591 166.954 64.1929C167.455 65.3004 168.88 63.9435 163.826 62.992C162.205 62.6757 160.449 62.3803 158.673 62.0407C155.608 61.4565 152.55 60.9913 149.563 60.8492C146.547 60.6735 143.885 61.0524 140.261 61.4729C136.328 61.8676 132.276 62.0304 128.197 61.7203C124.096 61.4379 120.217 60.5643 116.797 60.2756C107.609 59.5423 99.2942 59.1414 90.4368 61.279C86.9654 61.7901 83.5286 62.2928 80.6728 63.1793C78.0305 64.0165 75.1745 65.0272 72.2833 65.785C72.0252 65.8538 71.7686 65.9213 71.5127 65.988C60.4414 68.7708 69.3317 67.5338 62.6061 69.0037C61.8162 69.2037 60.8282 69.4455 59.6095 69.7519C58.7734 69.9651 61.5693 68.4235 58.3252 69.3675C57.177 69.7094 55.8908 70.1212 54.535 70.6157C51.6056 71.6863 48.2779 72.8978 45.2362 74.2596C44.2926 74.6804 43.5288 75.3325 43.0805 76.0151C41.9095 77.7019 41.8364 81.6596 40.6104 84.6108C40.4237 85.062 40.2005 85.5234 39.922 85.9839C38.095 88.9392 37.7489 90.4971 37.9865 91.6409C38.0365 91.9179 38.1551 92.2693 38.3483 92.6817C38.4458 92.8909 38.5594 93.1115 38.7052 93.3877C38.8665 93.7815 38.9811 93.6064 39.4323 95.1831C39.4671 95.3577 39.4919 95.4654 39.5069 95.5226C39.4956 95.5085 39.5546 95.605 39.3833 95.2182C39.3316 95.1148 39.28 95.0039 39.1238 94.7781C38.9418 94.5401 38.6838 94.1449 37.9133 93.728C37.2033 93.2701 35.5672 93.2406 34.8092 93.7148C32.5257 95.3718 33.2972 95.7118 33.0913 95.7761C32.9837 96.3349 33.0938 95.602 33.089 95.3519C33.1202 94.631 33.1317 93.8031 33.1419 92.9152C33.1628 91.1294 33.1637 89.0536 33.2267 86.4665C33.2625 85.1068 33.3147 83.7118 33.4273 82.2523C33.676 80.6323 33.2598 79.8134 34.6981 76.6604C37.5412 72.2774 40.9304 69.4187 44.098 66.1195C46.6747 63.5263 49.6787 61.5709 50.3468 60.0205C51.6391 57.4977 51.7403 53.8226 51.8266 50.1C51.8646 48.7068 51.2828 47.2663 50.2536 45.4555C48.9349 43.1316 49.6462 45.2501 48.6854 43.9779C48.4045 43.5994 47.9892 42.9104 47.4187 41.8525C46.6358 40.4067 45.618 38.523 44.1048 36.632C42.276 34.3906 39.0562 30.934 37.578 26.9068C36.944 25.1552 36.6037 24.0356 36.5033 23.9578C37.1881 24.7271 37.5734 24.4076 36.9576 24.4568C33.4787 24.9841 34.5553 24.3419 33.8693 24.3702C33.1123 24.4743 32.2497 24.6737 31.0358 24.843C28.5019 25.0353 25.9373 26.5377 23.6035 29.1262C21.9599 30.7715 22.1155 34.8118 21.6839 37.6174C21.5195 38.9074 21.4246 39.8267 21.3664 40.2248C20.9339 43.0438 20.7677 45.6863 20.5121 48.7304C19.9857 53.3911 18.082 56.6015 17.6047 59.2684C16.8809 63.2709 16.9986 68.372 16.4378 73.4208C16.0672 76.1147 17.0787 79.5676 17.8107 83.4207C18.7484 88.3464 20.1793 91.9222 22.885 96.9374C24.9037 101.066 27.7077 105.69 30.3546 109.904C30.4526 109.874 29.3164 108.941 28.4805 109.136C27.7966 109.264 28.0301 109.315 28.2282 109.124C28.7042 108.761 29.4036 107.973 30.0253 107.15C31.2992 105.467 32.4811 103.515 33.6705 101.472C35.6737 98.4032 36.6577 94.8179 41.357 91.4114C45.3902 89.1734 48.5264 88.9568 51.7633 87.9935C52.0005 87.9316 52.2215 87.8736 52.4594 87.811C61.9725 85.2644 71.9866 82.366 80.9849 78.7218C83.1657 77.7031 86.3684 76.2277 89.3424 75.7058C92.3429 75.1088 95.1823 74.9169 98.0063 74.8071C107.215 74.4053 116.456 74.2934 125.351 74.4076C129.252 74.4603 133.111 74.7043 136.973 75.3499C140.578 75.8814 144.642 77.2955 147.244 78.0868C151.195 79.0993 155.076 79.9478 159.015 80.8246C165.268 82.2019 171.224 83.5324 177.168 83.8894C181.522 84.1728 185.317 85.7785 188.632 87.0982C191.346 88.2769 194.305 88.2417 198.661 89.7664C201.673 90.9912 204.79 92.704 207.322 95.3758C208.544 96.8354 211.873 98.1242 214.107 102.072C216.132 106.431 215.983 110.281 215.345 114.306C214.429 118.101 216.496 113.795 214.936 118.547C214.915 118.599 214.895 118.65 214.873 118.702C213.846 121.261 212.011 123.966 209.453 125.743C207.016 127.509 203.896 128.36 203.362 128.801C200.635 130.671 197.379 133.481 193.988 135.688C189.125 138.935 183.814 142.25 178.505 144.713C175.82 145.858 174.594 145.745 172.959 145.957C171.415 146.091 169.934 146.14 168.457 146.152C165.51 146.167 162.616 146.042 159.645 145.722C153.019 144.943 147.108 142.86 141.749 141.974C136.756 141.237 131.393 140.435 126.261 139.226C119.72 137.731 113.118 136.267 106.516 134.663C102.306 133.781 97.0491 133.274 92.1503 132.547C87.9318 131.923 93.2867 132.001 89.4325 131.349C89.3639 131.337 89.2914 131.325 89.2147 131.312C81.6839 130.061 72.8539 128.593 63.7515 127.139C55.6321 125.932 46.6899 125.752 38.5243 124.524C33.8734 123.871 29.3262 123.798 24.8046 122.962C22.3709 122.262 22.2344 120.282 22.0324 119.606C21.8664 118.755 21.8137 118.046 21.7147 117.671C21.4362 114.74 22.5925 113.621 23.2583 112.358C24.0204 111.166 24.8015 110.176 25.5567 109.252C27.0711 107.417 28.4837 105.883 29.6992 104.512C30.29 103.935 30.9097 103.507 31.4822 103.172C35.8742 101.549 38.8946 102.183 42.1527 102.403C45.3433 102.741 48.4576 103.273 51.5761 103.861C56.5471 104.686 61.1327 107.257 64.4798 107.994C72.6221 109.797 80.4114 111.178 87.2751 111.972C89.6665 112.259 90.9861 112.478 91.7187 112.666C93.9886 113.229 90.4403 113.338 100.013 113.855C102.873 114.033 99.2003 113.047 103.518 113.4C105.264 113.556 107.031 113.758 108.807 114.017C116.63 115.075 125.046 116.894 132.592 118.204C140.035 119.403 147.249 119.637 154.506 119.589C155.533 119.581 156.539 119.52 157.554 119.41C160.88 118.99 159.93 118.474 160.896 118.25C162.769 117.795 165.146 117.402 167.631 117.266C170.567 117.124 174.009 116.397 177.325 115.833C179.673 115.563 182.841 113.155 184.229 112.462C184.615 112.239 185.021 112.019 185.451 111.809C189.332 109.846 193.882 109.381 195.552 108.343C197.328 107.347 198.755 104.922 201.851 102.731C201.793 102.896 202.294 102.152 202.55 100.866C202.598 100.773 202.535 100.451 202.581 100.593C202.875 100.135 199.441 99.4712 196.156 99.2261C190.214 98.4828 184.271 97.8318 178.05 97.3994C175.242 97.2258 172.302 96.6568 169.606 95.9775C164.726 94.8163 170.241 96.8782 165.669 95.8904C165.589 95.8747 165.509 95.8592 165.428 95.8437C161.809 95.237 157.71 93.4014 154.871 90.9116C154.146 90.1158 150.689 89.8184 146.892 88.6723C142.192 87.1133 137.832 85.2864 133.455 83.8641C130.181 82.7032 127.34 82.5584 122.831 81.3229C120.115 80.4303 117.185 79.7127 114.105 78.6353C109.992 77.1175 107.189 74.4468 105.153 73.5655C104.953 73.4055 103.505 73.2153 102.115 71.5836C99.1557 67.6746 99.5386 63.9011 98.8978 61.4406C98.706 60.4944 98.6874 59.7891 98.6777 59.094C99.0474 52.8335 99.359 58.3165 99.6609 55.8086C99.6847 55.6878 99.6537 55.6786 99.7949 55.2081C99.8533 55.2231 99.6607 54.9014 100.677 53.9705C101.169 53.4184 103.003 53.2494 103.685 53.8716C104.396 54.3876 104.485 54.7417 104.601 54.9462C104.907 55.7784 104.742 55.3892 104.788 55.5209C104.803 55.5932 104.81 55.6445 104.817 55.6883C104.828 55.7747 104.833 55.8314 104.837 55.8844C104.873 65.6836 105.616 69.2953 107.121 75.1891C107.047 74.9838 106.987 74.665 106.479 74.1038C106.008 73.5274 104.797 73.0978 104.165 73.1916C102.934 73.3558 102.981 73.5918 102.875 73.6082C102.789 73.6772 102.99 73.4942 103.154 73.2942C103.514 72.8727 103.957 72.2733 104.411 71.6226C104.498 71.5003 104.586 71.366 104.674 71.2225C105.468 69.7402 105.566 70.7888 105.759 70.527C108.649 65.2859 106.606 58.9394 106.787 57.1434C106.798 56.685 106.815 56.1992 106.875 55.6449C107.13 54.9779 106.377 54.7956 108.307 52.5124C111.203 50.1828 113.614 49.1446 114.622 47.75C115.345 47.0354 115.423 43.9513 114.842 41.5687C114.073 38.1195 113.266 34.6929 112.705 31.1153C112.306 28.2381 111.327 25.3743 110.601 21.9842C110.06 19.3711 109.346 16.8136 108.126 14.4208C108.372 14.7509 108.269 14.5992 108.377 14.6343C106.921 14.6377 104.626 15.3161 102.436 15.9001C99.9116 16.5539 105.875 15.8623 98.6344 17.603C97.3684 17.8705 96.0625 18.0978 94.7054 18.2345C87.2107 18.7812 80.1236 18.8208 72.7909 18.928C67.053 18.9287 61.7166 19.5986 55.5923 20.1777C52.9373 20.3555 50.4542 21.293 47.9063 22.787C44.9026 24.5404 41.7102 26.3959 38.3496 27.9111C35.4558 29.1963 32.6331 31.5982 29.0485 33.6096C26.0437 35.2472 23.5576 37.7019 20.7764 40.4943C18.7308 42.4349 17.9884 44.7563 17.2026 48.1744C16.4612 51.1812 16.2526 54.5324 15.3483 58.2183C14.2387 62.8069 14.7007 68.3265 15.7414 73.3559C16.9881 79.1405 17.676 84.8962 18.7109 90.3557C19.0363 92.055 19.4716 93.7534 19.9769 95.4358C22.1884 102.181 20.0386 97.5743 20.1097 98.0138C20.6124 100.478 21.3949 102.56 22.2182 104.297C23.7978 107.55 25.9832 109.062 26.9654 110.123C27.5591 110.75 28.1805 111.353 28.8237 111.932C33.6996 116.479 37.9475 120.805 41.7787 126.175C43.6094 129.434 43.0764 132.381 42.8837 134.9C42.6019 137.443 42.1988 139.779 42.1179 141.914C41.9194 146.692 41.7885 151.102 41.9608 155.082C41.7255 157.616 41.4852 160.145 41.2437 162.675C40.3258 171.596 40.6063 179.79 40.4914 189.631C40.0749 193.616 39.7916 198.176 39.3277 202.444C38.3992 212.013 37.8184 221.741 37.0164 231.458C36.4305 239.439 34.3644 247.357 32.5653 254.723C31.5178 259.495 29.9313 264.245 28.7924 268.66C27.7734 272.753 26.8054 276.728 26.337 280.753C25.677 284.265 25.1379 286.791 24.6502 289.882C23.3642 297.847 22.1903 305.893 20.9392 313.915C20.0078 319.943 19.1527 325.904 18.9748 331.852C18.9983 332.138 18.9029 331.949 19.138 332.301C20.5242 334.12 23.5748 335.447 26.5567 337.65C27.885 338.669 29.3015 339.273 30.9163 339.418C31.5061 339.81 33.7894 337.285 35.0501 334.772C36.9209 330.735 37.294 324.567 37.923 319.106C38.4329 314.031 38.8304 308.786 39.677 303.594C39.8425 302.582 40.2489 304.492 40.5831 302.484C40.6222 302.257 40.6616 302.033 40.7014 301.811C42.2587 286.856 41.3062 283.217 40.8509 278.303C40.5391 275.618 40.2262 272.546 39.9562 267.025C39.7727 262.979 41.6733 250.782 41.7993 249.695C41.9258 248.721 42.077 248.239 42.2356 248.043C42.3704 247.87 42.5099 247.918 42.6429 248.052C42.9871 248.385 43.288 249.27 43.3479 248.552C43.3611 248.388 43.3732 248.227 43.3844 248.067C43.7715 245.528 43.0061 243.165 45.1646 242.26C49.5132 241.538 52.317 242.258 58.9902 245.204C60.0163 245.648 61.1127 246.154 62.335 246.732C62.7445 246.934 60.7496 246.67 61.8285 247.252C65.1864 249.063 68.743 250.338 72.1316 251.872C72.3013 251.949 72.4695 252.026 72.6363 252.102C80.0868 255.457 82.6214 258.07 95.1878 261.098C95.8658 261.256 95.9347 260.899 96.7005 260.721C97.7711 260.459 100.17 260.597 107.509 262.764C110.221 263.581 118.01 265.676 125.668 267.696C132.171 269.404 138.506 271.358 141.097 271.774C141.78 271.9 142.334 271.986 142.782 272.059C147.896 273.628 143.002 272.688 143.593 272.909C147.773 274.405 149.022 276.776 150.321 278.193C151.508 279.707 152.197 280.773 152.702 281.562C154.322 284.463 153.908 284.2 155.132 289.562C156.731 298.281 158.677 295.104 160.163 298.321C160.166 298.328 160.169 298.334 160.172 298.34C161.838 301.352 163.692 312.273 163.426 316.791C163.423 317.292 163.415 317.715 163.404 318.036C163.278 321.236 162.766 317.274 162.712 320.103C161.661 338.758 163.999 328.351 164.28 334.535C164.286 334.725 164.291 334.915 164.295 335.105C164.379 338.95 163.192 342.406 162.115 345.319C161.017 348.237 160.245 350.952 160.042 353.816C159.973 353.664 159.881 353.853 160.356 354.294C160.585 354.695 161.91 354.956 163.198 354.859C163.819 355.007 165.155 353.571 166.089 352.192C167.289 350.545 167.685 348.147 167.857 345.717C168.093 342.14 167.429 345.082 167.598 341.798C167.627 341.4 167.665 341.003 167.718 340.606C168.49 334.476 168.575 329.434 167.958 324.143C167.432 319.158 167.171 314.017 166.523 307.401C166.38 305.916 165.581 300.729 165.194 295.2C164.964 291.944 164.918 288.614 165.254 285.793C165.398 284.719 165.883 287.779 166.066 282.333C166.312 278.75 166.242 273.5 168.5 268.624C169.301 266.62 171.293 265.769 172.828 265.208C174.429 264.638 175.969 264.224 177.352 263.643C179.871 262.579 182.061 261.059 183.834 259.707C187.962 256.38 184.197 258.529 186.683 256.451C187.218 255.988 188.009 255.414 189.15 254.737C192.362 252.923 186.812 256.818 192.79 253.53C194.38 252.687 196.631 251.528 199.114 250.12C200.731 249.204 202.334 248.022 203.741 246.559C205.186 245.138 206.27 243.266 208.187 241.933C208.825 241.508 209.453 241.09 210.066 240.681C210.566 240.215 211.559 240.782 211.615 241.029C211.809 241.301 211.906 241.552 211.988 241.767C212.154 242.22 212.253 242.636 212.344 243.052C212.517 243.865 212.63 244.642 212.725 245.369C212.91 246.826 213.015 248.099 213.094 249.115C213.512 255.628 213.942 252.036 214.025 252.559C214.199 253.888 214.431 256.878 214.581 259.966C214.785 264.318 214.693 268.791 214.691 269.428C214.59 273.249 214.527 277.007 214.619 280.747C214.919 288.632 217.145 296.592 219.157 304.457C219.925 307.386 221.496 310.374 222.931 313.423C223.456 314.539 224.473 314.892 226.663 314.82C226.358 315.229 227.172 314.146 227.339 312.551C227.593 311.024 227.742 309.336 228.06 307.608C228.866 303.907 227.838 301.057 226.42 296.852C225.355 292.503 225.23 288.41 224.605 284.344C223.621 278.442 222.82 272.129 222.739 266.012C222.558 260.738 221.076 255.249 220.539 249.616C219.997 243.533 218.192 237.806 217.43 231.299C216.923 224.722 217.121 218.007 217.778 211.444C217.807 211.103 217.834 210.771 217.859 210.43C218.127 206.25 217.234 208.991 217.268 208.352C217.456 194.04 218.913 205.369 219.765 195.259C219.245 195.753 218.949 195.337 218.871 194.062C218.717 191.839 219.262 187.048 218.836 180.571C218.402 175.761 218.036 178.44 217.956 178.005C217.344 175.164 216.805 172.847 216.48 170.599C216.09 167.647 215.922 165.504 215.862 164.726C215.564 161.513 214.37 158.311 213.667 155.45C213.307 153.976 213.084 152.642 213.06 151.512C212.948 148.18 215.28 155.477 213.233 145.841C212.119 143.465 212.529 149.869 210.791 144.522C210.693 144.252 210.589 143.954 210.477 143.627C209.375 140.55 208.145 136.555 206.142 134.353C205.674 133.534 205.094 134.493 201.751 138.058C202.13 137.523 201.611 138.656 201.493 140.159C201.177 141.659 202.738 144.32 203.726 147.461C204.529 150.227 206.111 153.302 206.852 156.78C207.59 160.087 208.073 163.388 208.673 166.564C209.513 170.825 210.702 175.29 211.468 179.626C212.407 184.627 213.293 189.608 213.527 194.398C213.878 200.322 214.367 205.911 214.398 210.758C214.419 213.282 214.219 215.552 214.011 217.567C213.705 220.511 213.288 223.174 213.059 225.536C212.532 230.351 211.816 234.342 209.668 237.787C207.356 241.186 204.819 243.681 202.326 245.86C199.292 248.56 195.97 250.681 192.571 253.371C192.271 253.616 191.985 253.859 191.714 254.102C177.762 265.533 179.307 264.589 174.816 268.786C173.761 269.626 172.779 270.859 169.825 271.743C168.801 272.158 166.584 271.294 166.071 270.232C164.269 266.552 164.92 265.256 164.69 263.821C164.637 262.51 164.611 261.714 164.627 261.292C164.463 258.084 166.424 260.924 166.439 259.363C166.539 257.249 165.836 255.058 165.997 252.447C166.174 249.856 166.746 255.419 166.624 249.356C166.601 247.936 166.514 245.937 166.343 243.673C165.743 236.304 164.893 226.157 164.467 224.503C163.76 221.844 163.088 223.307 162.697 221.757C162.468 220.667 162.129 218.217 162.115 211.377C162.121 210.444 162.815 213.453 162.811 209.884C162.812 209.841 162.812 209.799 162.812 209.756C162.853 200.829 162.963 191.807 163.161 182.742C163.284 173.947 164.739 165.274 165.065 156.632C165.294 153.284 163.37 150.144 162.284 146.649C161.283 143.568 160.254 140.483 158.503 137.901C158.372 137.635 157.728 137.512 157.046 137.513C155.899 137.39 155.067 138.621 154.421 139.837C153.607 141.392 152.951 143.032 152.416 144.709C151.347 148.386 151.542 144.889 150.956 147.072C148.884 156.496 149.642 160.916 149.873 163.462C150.436 167.21 151.064 167.359 152.565 174.791C150.776 172.413 150.229 177.736 152.013 190.634C152.173 192.573 152.404 194.683 152.712 196.955C153.271 201.028 153.719 203.237 154.11 204.817C154.752 207.369 155.299 208.227 156.279 212.404C156.751 214.433 157.431 221.996 158.004 223.296C159.639 227.262 160.247 221.33 161.594 234.363C161.637 235.634 161.695 237.118 161.762 238.82C161.792 239.624 160.971 237.114 161.122 239.888C161.697 250.196 162.483 255.246 162.476 261.675C162.379 265.023 162.404 268.609 161.33 273.736C160.299 276.454 158.648 276.347 157.689 276.663C155.68 277.037 153.796 276.54 152.224 275.994C150.373 275.34 148.685 274.539 146.903 273.91C143.606 272.667 139.484 272.079 134.969 270.705C130.115 269.18 126.788 265.941 123.187 263.945C118.094 261.062 112.612 258.463 107.514 256.729C103.958 255.564 100.472 254.641 97.315 253.845C97.8759 252.595 90.7504 250.668 83.9485 249.575C80.6073 249.029 77.4331 248.182 75.2213 247.741C73.303 246.938 71.3802 246.006 69.5502 245.208C66.6926 243.964 63.966 242.862 61.0321 242.147C57.2502 241.171 53.3861 240.743 49.3997 239.918C47.4318 239.554 46.3328 237.6 46.0372 236.345C45.6713 234.995 45.6119 233.775 45.5699 232.599C45.5222 228.764 46.17 231.274 46.2165 230.787C46.3431 229.679 46.4256 228.639 46.4049 227.668C46.2023 222.158 44.5665 218.495 44.288 216.44C44.1869 215.762 44.0905 215.087 44.0013 214.412C42.8078 206.501 41.4616 198.934 40.1747 191.61C39.1392 186.203 39.0643 180.1 40.8867 175.025C41.7645 171.533 42.6549 168.074 43.2666 164.561C44.0357 160.066 44.5327 155.366 45.4604 150.59C45.9099 148.219 46.9186 146.044 47.7939 144.031C47.9469 143.67 47.9208 143.081 48.0947 142.108C48.3267 140.985 48.5326 139.141 50.3941 135.48C50.6354 135.147 48.252 142.733 52.1983 133.39C52.4796 132.93 52.8165 132.437 53.2303 131.935C54.5111 130.305 56.7191 128.911 59.0093 128.269C61.3548 127.562 63.2316 128.825 64.7193 129.634C66.2487 130.518 67.7262 131.401 69.3231 131.725C76.5557 133.114 84.9288 133.163 92.8275 133.946C96.3649 134.348 99.7996 134.732 103.017 135.069C104.746 135.243 107.669 135.447 111.008 135.726C115.602 136.107 120.8 137.653 124.881 139.971C124.918 139.992 124.952 140.012 124.982 140.031C125.807 140.57 124.642 140.375 125.984 141.345C126.92 142.065 127.706 142.951 128.099 143.94C128.487 144.983 127.961 145.81 127.48 146.364C125.226 148.617 122.557 148.656 119.139 149.748C119.128 149.751 119.117 149.755 119.106 149.758C115.35 151.496 114.855 159.493 114.221 167.895C113.795 172.484 113.552 177.599 113.2 183.243C113.168 183.761 113.838 187.8 113.117 192.961C112.985 193.91 112.842 194.901 112.685 195.947C111.809 201.412 111.402 207.957 111.023 214.008C110.8 216.709 110.657 219.282 110.627 221.652C110.622 225.811 111.314 223.139 111.326 223.858C111.398 227.838 111.953 231.409 112.921 235.07C113.831 239.597 114.583 243.95 115.426 248.216C116.113 254.644 115.964 260.626 116.001 266.896C115.893 276.375 116.127 286.178 115.196 297.382C114.911 298.352 113.866 298.236 113.25 298.076C112.587 297.887 111.96 297.566 111.409 297.143C109.62 295.913 108.003 292.612 106.749 288.717C105.396 284.582 104.48 279.7 103.51 275.055C102.931 272.179 102.553 269.354 102.366 266.811C101.863 258.086 104.328 262.253 104.335 254.085C104.401 251.358 104.355 247.152 104.398 240.438C104.41 238.931 104.36 237.36 104.284 235.728C104.273 232.434 103.753 228.696 103.305 224.801C102.362 216.854 101.496 207.556 102.827 196.366C102.806 193.95 102.794 191.562 102.798 189.174C102.77 182.047 103.439 175.126 104.608 168.174C105.154 163.16 105.645 158.147 105.928 153.131C106.137 149.717 107.02 146.321 108.44 143.226C109.339 141.281 110.617 139.582 112.121 137.982C112.357 137.714 112.811 137.599 113.283 137.68C114.381 137.867 115.417 138.86 116.469 139.818C117.512 140.84 116.863 143.344 116.331 145.284C115.75 147.329 115.006 149.37 114.46 151.525C113.451 155.595 112.29 159.726 111.974 164.075C111.593 170.07 111.827 176.083 112.256 182.153C112.349 183.429 113.213 186.727 113.864 189.932C114.084 191.022 114.247 192.114 114.315 193.124C114.699 199.09 114.032 202.378 114.095 206.6C114.126 207.27 114.108 207.985 114.333 208.551C115.471 210.519 118.17 209.972 120.171 209.87C122.297 209.672 124.411 209.444 126.529 209.434C130.609 209.569 134.055 211.76 137.722 213.023C141.353 214.43 145.021 215.718 148.719 216.937C152.745 218.266 156.844 219.37 161.065 220.218C166.181 221.197 165.711 221.395 169.285 222.161C170.174 222.356 171.265 222.577 172.762 222.866C179.616 224.148 184.512 224.932 192.756 227.341C193.656 227.538 194.597 227.747 195.585 227.977C198.018 228.556 200.479 229.22 202.811 230.249C205.199 231.322 207.531 229.103 208.813 227.715C209.022 227.48 209.375 227.111 209.333 226.36C209.245 225.606 208.789 225.256 208.537 225.055C207.998 224.668 207.581 224.528 207.164 224.369C206.342 224.078 205.557 223.888 204.772 223.705C203.229 223.343 201.534 223.07 200.259 222.641C199.273 222.303 198.257 221.971 197.21 221.648C196.43 222.966 190.18 221.031 178.786 218.569C178.166 218.448 177.533 218.323 176.886 218.193C174.463 217.699 176.923 218.829 175.766 218.62C171.731 217.902 168.128 216.567 164.394 215.668C163.768 215.517 163.137 215.379 162.499 215.258C161.421 215.053 161.242 215.547 160.354 215.414C155.541 214.691 148.877 212.955 144.158 211.251C141.608 210.324 139.544 209.704 138.805 209.463C134.109 207.999 130.775 207.465 127.59 206.709C125.414 206.187 123.342 205.654 120.837 205.127C114.622 204.013 124.086 204.744 116.702 203.77C115.471 203.649 114.208 203.568 112.913 203.523C108.241 203.28 104.393 206.807 100.29 208.074C96.9653 208.981 93.7213 210.223 90.4576 211.16C86.3175 212.319 82.5789 214.345 78.9603 216.094C75.554 217.893 72.595 219.928 69.6949 221.775C64.4727 225.167 68.413 223.432 67.6744 223.931C65.7058 225.253 63.7138 226.554 61.737 227.808C57.7816 230.299 54.0589 232.91 50.436 234.857C47.3907 236.521 45.0693 238.727 43.3804 240.782C42.6002 241.725 41.9027 242.608 41.3764 243.452C39.2763 244.383 37.9769 245.555 37.2164 246.845C36.7339 247.861 36.6564 248.856 37.5249 249.905C41.1768 252.281 43.9064 248.29 52.5906 248.196C53.6529 248.167 54.7865 247.959 55.952 247.487C56.5915 247.238 57.5067 247.186 57.7078 247.604C57.8706 247.948 57.4564 249.239 54.254 250.107C53.7519 250.221 53.2187 250.296 52.6677 250.327C50.6707 250.443 48.4002 250.639 45.9496 251.03C44.7188 251.219 43.4647 251.467 42.052 251.664C40.7688 251.8 38.5934 252.196 36.9129 250.494C35.7164 248.865 35.9218 247.862 36.3908 246.464C36.8449 245.42 37.4201 244.432 38.0494 243.529C38.4947 242.818 39.9875 240.796 41.4849 238.877C43.6186 235.942 46.975 232.927 47.7975 232.448C48.133 232.222 48.4661 232.01 48.7958 231.813C56.8231 226.519 59.5299 227.139 60.0609 227.062C60.3693 226.948 60.6863 226.821 61.0145 226.679C66.8826 224.19 74.5304 217.521 78.491 215.129C78.8758 214.905 79.2045 214.717 79.4724 214.574C82.8724 212.746 86.3333 210.897 90.068 209.796C93.2986 208.808 96.5161 207.541 99.8744 206.585C103.297 205.597 107.29 201.699 112.941 201.716C115.157 201.72 117.367 201.804 119.592 202.019C124.006 202.468 126.509 202.791 128.578 202.842C130.59 202.899 132.421 202.871 135.653 203.547C139.262 204.302 142.563 205.057 145.66 206.075C152.964 208.411 159.012 210.127 165.372 212.034C169.654 213.297 174.044 214.516 179.516 215.33C181.21 215.6 182.911 215.894 184.723 216.191C189.159 216.965 185.39 213.933 200.429 219.748C200.529 219.787 200.742 219.873 201.042 219.996C201.257 220.154 202.402 220.496 204.02 220.846C204.839 221.03 205.761 221.215 206.902 221.507C207.487 221.667 208.082 221.803 209.05 222.227C209.551 222.524 210.215 222.567 211.384 224.141C211.995 224.964 212.286 226.643 211.943 227.662C211.648 228.678 211.241 229.15 210.921 229.533C210.525 229.955 209.454 231.365 208.053 232.338C206.722 233.394 203.916 234.245 201.741 233.436C200.809 233.165 199.739 232.98 198.76 232.886C197.946 232.81 197.861 233.331 196.786 233.153C195.04 232.865 193.38 232.579 191.769 232.261C185.863 230.852 182.585 229.35 176.436 228.243C173.933 227.772 171.27 227.336 168.457 226.912C162.593 226.201 155.19 224.966 148.859 222.745C148.25 222.538 147.624 222.31 146.986 222.062C141.916 220.11 136.405 217.097 134.23 215.955C131.359 214.493 128.135 212.983 126.532 213.169C122.519 213.09 119.407 214.843 114.273 212.924C110.992 210.757 112.148 210.079 112.59 210.437C113.264 210.626 113.737 210.817 113.049 209.249C112.626 207.436 113.107 206.069 113.171 202.431C111.794 201.976 110.373 200.93 108.978 200.233C108.919 196.938 108.761 193.694 108.456 190.468C107.695 181.533 107.355 172.929 108.004 163.767C108.432 158.906 109.71 154.624 110.736 150.594C111.368 148.177 112.129 146.138 112.666 144.267C112.933 143.35 113.142 142.462 113.203 141.883C113.353 141.231 112.83 141.409 113.936 142.639C112.882 141.571 111.931 141.169 112.686 141.426C113.069 141.49 114.05 141.486 114.947 140.52C113.499 142.08 112.636 143.274 111.916 144.823C111.032 146.754 110.373 149.002 110.043 151.176C109.737 153.691 110.537 151.769 110.559 153.37C110.565 153.629 110.559 153.956 110.539 154.377C110.301 159.331 109.815 164.095 109.283 168.663C107.991 176.191 107.305 182.004 107.222 189.224C107.178 192.419 107.171 195.726 107.199 199.134C107.265 207.343 107.635 216.069 107.844 224.855C107.911 228.45 108.008 232.408 107.726 235.933C107.693 236.803 107.663 237.679 107.636 238.55C106.787 241.953 106.256 247.738 106.477 253.96C106.762 260.296 107.758 267.648 109.035 273.898C109.351 275.421 109.646 276.904 109.919 278.323C110.855 283.123 110.351 282.929 110.997 286.097C111.094 286.54 111.192 286.943 111.291 287.308C112.732 292.638 113.551 292.633 113.889 292.718C114.231 292.66 114.506 292.432 114.803 292.576C114.915 292.598 114.84 292.495 114.809 292.464C114.395 292.355 114.051 292.247 113.15 292.4C112.7 292.497 112.04 292.668 111.206 293.314C110.368 293.928 109.559 295.252 109.402 296.308C109.552 294.795 109.747 291.812 110 289.889C110.253 287.802 110.568 285.886 110.879 283.821C111.5 279.7 112.115 274.977 112.019 266.937C112.018 266.819 112.016 266.7 112.014 266.581C112.029 265.611 110.106 253.859 109.852 252.377C109.658 250.808 109.46 249.483 109.416 249.422C108.494 245.273 110.367 250.204 109.433 244.807C108.897 241.657 108.458 238.777 107.984 236.05C107.327 233.243 106.625 228.904 106.599 225.384C106.5 221.7 106.621 217.948 106.823 213.698C106.874 212.579 106.893 211.364 106.909 210.071C106.932 207.227 106.681 201.253 107.531 195.218C107.861 192.799 108.261 190.402 108.784 188.145C109.014 187.153 109.495 187.771 109.628 186.958C111.435 175.308 110.411 172.574 110.116 167.557C110.017 166.393 109.906 164.994 109.859 163.165C109.811 160.957 109.862 158.355 110.271 155.431C110.488 153.96 110.772 152.421 111.394 150.645C112.075 148.953 112.845 146.543 116.078 144.558C118.731 143.159 120.857 142.855 122.095 142.548C123.387 142.27 123.583 142.145 123.455 142.399C123.198 142.731 123.02 143.088 122.889 143.626C122.726 144.228 122.77 145.283 123.14 146.016C123.614 146.23 123.572 145.973 123.531 145.852C122.874 144.024 123.713 143.083 123.918 142.855C124.246 142.81 121.502 143.702 121.398 143.741C120.004 144.542 120.09 144.745 121.165 144.532C122.138 144.373 124.334 143.739 124.513 143.441C124.475 143.571 123.814 143.899 124.315 145.524C124.322 145.451 124.052 145.088 122.974 144.613C122.468 144.386 121.963 144.168 121.468 143.96C121.24 141.786 111.502 139.13 114.614 141.575C114.962 141.767 120.204 143.284 121.468 143.96C118.416 143.605 114.408 142.664 110.129 142.142C104.661 141.453 98.7707 140.211 92.4222 138.627C92.3653 138.613 92.3093 138.599 92.2543 138.585C86.9792 137.312 92.3374 137.016 74.4436 136C71.2591 135.743 69.7027 135.684 68.5807 135.738C66.5166 135.744 64.8931 135.592 61.3077 133.81C60.3436 133.34 60.0429 133.607 60.758 133.494C58.7344 134.229 58.0203 134.84 57.0879 136.315C56.0939 137.888 55.5926 140.912 54.0899 144.615C52.7109 147.697 51.4087 149.788 50.9531 151.791C49.8822 156.21 49.2399 160.768 48.3543 165.481C47.6133 169.332 46.6655 172.907 45.8792 176.242C45.8776 176.249 45.8759 176.256 45.8743 176.263C44.3845 182.096 46.3618 176.878 45.6408 180.339C45.1487 183.465 45.4735 186.977 46.0699 190.532C47.1926 197.133 48.179 203.585 49.3853 210.644C49.5557 211.676 49.866 209.04 50.3726 212.606C50.4191 212.949 50.4632 213.28 50.508 213.659C51.0179 218.019 51.8038 222.405 52.1905 227.219C52.3541 229.666 52.2638 231.586 52.3892 233.116C52.4362 233.847 52.5774 234.484 52.5999 234.52C52.7546 234.664 51.8366 233.352 50.8291 233.243C54.1547 233.938 58.5212 234.464 62.6799 235.561C65.988 236.377 69.4201 237.789 72.1729 239.015C76.9419 241.208 80.844 243.054 85.1908 244.057C89.7807 245.117 94.4859 246.187 99.3687 247.381C102.3 248.105 105.76 248.951 109.581 250.107C115.382 251.945 121.056 254.45 126.751 257.469C131.312 259.993 134.677 262.74 137.107 263.31C140.2 264.207 143.406 264.708 146.584 265.613C147.549 265.886 148.523 266.196 149.492 266.545C152.861 267.844 156.595 269.43 156.379 269.143C156.336 269.162 156.288 269.147 155.917 269.333C155.631 269.496 154.489 270.094 154.004 271.869C154.82 268.809 155.269 264.942 155.62 261.179C156.222 252.894 155.235 243.486 154.914 234.686C154.42 228.333 153.065 221.174 152.119 215.303C151.183 209.745 150.642 207.047 150.206 205.373C149.613 203.104 149.218 202.762 148.487 199.506C147.949 197.107 147.483 194.194 147.18 191.122C146.691 186.639 145.67 180.451 145.51 175.669C145.274 170.845 145.414 167.172 145.452 166.122C145.374 166.018 146.485 177.767 146.308 171.463C146.745 167.786 145.467 166.248 145.452 166.122C145.464 165.83 145.445 164.947 145.419 163.635C145.36 160.752 145.352 155.861 146.057 150.833C146.706 145.81 148.317 140.663 149.921 137.562C150.482 136.43 151.161 135.372 151.946 134.552C153.716 132.692 155.479 132.369 155.725 132.145C156.099 131.935 156.118 131.734 157.068 131.666C157.17 131.657 157.298 131.652 157.473 131.655C158.302 131.778 160.855 131.363 163.344 134.483C165.885 138.075 167.027 141.54 168.16 144.69C168.653 146.109 169.321 147.522 170.096 149.488C170.87 151.41 171.607 154.199 171.502 156.845C171.324 166.036 170.032 174.507 170.043 182.84C169.973 191.705 169.969 200.742 170.042 209.645C170.041 213.616 170.352 217.192 170.384 221.684C170.386 223.226 170.393 224.77 170.405 226.311C170.402 226.848 169.674 226.052 169.677 227.323C169.686 233.32 169.908 238.574 170.242 243.496C170.667 249.512 170.76 255.487 172.001 259.19C172.78 262.038 172.734 263.528 172.98 264.999C173.071 265.67 173.222 266.322 173.268 266.321C173.248 266.3 173.341 266.052 172.563 265.11C171.867 264.015 169.009 263.254 168.167 263.621C168.021 263.64 167.997 263.645 168.03 263.619C168.222 263.509 169.053 262.956 169.783 262.329C176.266 256.957 182.302 252.313 186.819 248.773C190.072 246.125 192.675 244.831 194.963 243.501C195.966 242.7 196.986 241.86 198.004 240.962C200.379 238.88 202.526 236.73 204.34 234.165C205.492 232.61 206.542 228.232 206.923 224.989C207.42 221.164 207.993 218.205 208.284 215.675C208.531 213.655 208.556 212.082 208.462 210.87C208.113 206.54 207.172 205.692 207.126 205.097C206.773 201.585 206.358 198.272 206.07 194.869C205.673 190.185 204.746 185.736 203.85 181.128C203.048 176.822 201.999 172.966 201.045 168.078C200.433 164.755 199.996 161.574 199.342 158.499C198.908 156.132 197.669 153.724 196.417 149.625C196.178 147.905 193.961 145.949 193.93 139.747C193.953 139.475 193.987 139.194 194.036 138.907C194.09 138.651 194.137 137.942 194.37 136.816C194.651 135.814 194.973 133.463 197.884 131.586C196.403 132.665 197.143 132.217 197.149 132.107C197.306 131.913 197.531 131.623 197.784 131.307C198.3 130.668 198.915 129.906 199.859 129.049C200.817 128.245 202.124 127.033 204.84 126.638C207.685 126.228 210.363 127.887 211.455 129.084C213.971 131.803 214.669 133.954 215.603 136.119C216.453 138.266 217.125 140.347 217.767 142.404C219.081 146.681 219.614 150.771 220.357 153.96C221.463 158.589 223.065 163.36 223.972 167.543C224.094 168.093 224.206 168.641 224.309 169.188C226.452 178.562 226.013 185.833 225.488 194.617C225.466 194.963 225.453 195.35 225.446 195.763C225.432 196.951 226.091 195.769 226.102 196.133C226.713 206.795 225.263 201.788 224.956 204.016C224.559 206.873 224.147 209.38 223.703 211.987C222.838 216.888 222.154 221.946 223.068 230.883C223.069 230.887 223.069 230.89 223.069 230.893C223.191 233.195 227.851 242.238 228.582 248.736C228.585 248.759 228.588 248.783 228.591 248.806C229.669 255.921 228.632 252.985 230.105 261.404C230.178 262.091 230.652 261.877 230.941 265.747C230.971 266.238 230.997 266.797 231.022 267.438C231.185 272.742 231.813 277.126 232.786 283.129C233.422 287.359 233.694 291.865 234.431 294.713C234.603 295.583 235.697 297.864 236.266 300.728C236.848 303.59 236.714 306.548 236.252 309.048C236.016 310.301 235.885 311.842 235.567 313.867C235.376 314.912 235.235 316.04 234.478 317.849C234.066 318.751 233.472 319.959 232.025 321.217C230.605 322.503 228.242 323.233 226.641 323.169C225.939 323.171 223.591 323.271 221.311 322.422C218.931 321.654 216.392 319.343 215.398 317.08C213.989 314.059 212.237 311.009 211.011 306.61C210.588 305.011 210.151 303.384 209.723 301.741C208.892 298.49 209.2 302.874 208.008 298.129C206.75 292.861 205.498 287.41 205.27 280.981C205.046 273.764 205.562 266.478 205.509 260.12C205.467 256.932 205.387 253.779 205.216 250.726C205.13 249.212 205.02 247.708 204.864 246.365C204.788 245.702 204.692 245.057 204.609 244.651C204.578 244.47 204.513 244.294 204.613 244.554C204.701 244.716 204.685 244.919 205.407 245.878C205.813 246.312 206.378 247.234 208.515 248.02C210.671 248.845 213.486 247.99 214.433 247.231C213.8 247.643 213.169 248.054 212.54 248.463C212.855 247.813 209.064 252.887 205.681 255.085C204.357 256.021 203.492 256.466 202.945 256.723C201.4 257.389 202.859 256.152 201.983 256.514C198.131 258.096 193.342 260.78 191.796 262.489C189.55 264.689 187.621 266.377 186.952 266.848C184.959 268.256 182.859 269.591 180.256 270.703C178.227 271.554 176.438 272.042 175.393 272.45C174.158 272.875 174.965 273.032 175.689 271.488C175.124 272.876 175.038 273.103 174.838 273.865C174.662 274.561 174.515 275.417 174.402 276.322C174.175 278.145 174.064 280.217 174.009 282.246C173.903 286.389 173.995 290.579 174.146 294.807C174.528 304.31 174.785 314.244 175.632 323.108C176.406 329.245 176.341 335.407 175.463 341.707C174.848 344.361 176.353 349.215 172.597 356.266C172.095 357.069 171.528 358.022 170.53 359.211C169.533 360.292 167.948 362.265 164.258 362.872C162.313 362.959 159.539 363.987 155.039 360.872C154.99 360.833 154.936 360.79 154.881 360.745C154.616 360.515 154.119 360.164 153.328 359.233C152.588 358.363 151.323 356.411 151.306 353.801C151.1 351.011 151.61 346.184 152.988 342.1C154.009 338.899 154.632 336.578 154.798 334.681C154.957 332.758 155.171 331.023 155.463 329.63C155.539 329.182 156.982 322.879 156.138 317.2C156.067 316.738 155.978 316.276 155.871 315.822C155.748 315.471 155.567 319.629 154.824 312.45C154.406 309.303 153.494 305.319 152.004 301.346C149.755 295.522 148.371 288.913 146.588 286.641C146.316 286.274 146.062 285.923 145.817 285.584C145.222 284.763 144.476 283.598 143.595 282.474C142.829 281.343 141.316 280.373 141.908 280.528C137.815 280.021 133.844 278.787 129.735 278.126C129.459 278.082 126.708 277.732 123.161 277.165C117.858 276.324 110.648 274.902 107.507 272.998C106.665 272.454 108.059 271.197 95.6293 268.356C93.9071 267.955 95.6113 268.73 94.2734 268.538C93.7691 268.465 92.8497 268.26 91.1638 267.793C84.7991 266.032 77.1991 263.332 69.4394 260.497C65.506 259.064 61.587 257.496 57.7834 255.968C57.1753 255.727 55.8998 255.266 54.3574 254.671C52.4131 253.901 50.2251 252.842 48.335 251.923C46.6298 250.918 44.241 250.613 46.3542 250.448C46.1898 250.514 48.7366 249.882 49.8374 248.63C51.6802 246.408 50.484 247.413 50.614 247.015C50.657 246.806 50.944 245.059 50.6771 246.285C50.6064 246.789 50.5573 247.486 50.5306 248.217C50.2088 258.155 49.828 268.562 49.6127 278.385C49.5029 285.758 49.5346 292.882 48.6816 300.774C48.5751 301.641 48.4496 302.386 48.3024 303.057C47.5083 306.562 46.956 304.716 46.1439 310.334C45.8147 312.716 45.5035 315.989 45.1238 319.755C44.3483 325.786 44.4444 331.937 41.7132 338.399C41.6004 338.633 41.4833 338.874 41.3692 339.106C39.6205 342.546 39.5312 343.017 39.7285 343.512C39.7704 343.783 39.8161 344.099 39.1372 345.054C38.7759 345.532 38.2619 346.187 37.0799 347.074C35.9452 347.878 33.7212 349.332 30.091 349.103C29.448 349.06 28.6592 348.969 27.8156 348.794C25.1104 348.245 22.612 347.001 20.6384 345.525C19.1589 344.248 15.5037 343.299 11.2998 338.506C10.0908 337.242 8.73301 333.723 8.95487 331.582C9.08678 324.921 9.97732 318.539 10.9083 312.387C12.1306 304.407 13.3175 296.379 14.6655 288.268C14.9263 286.717 15.2027 285.152 15.5096 283.569C15.7735 282.161 16.3073 279.775 16.3484 279.535C16.9234 274.854 18.0605 270.364 19.1209 266.241C20.5232 261.009 21.9396 256.998 22.9653 252.517C24.9811 244.536 26.7769 237.916 27.3748 230.646C27.8682 225.103 28.2867 219.413 28.7328 213.735C29.2836 206.955 28.2615 212.597 29.1336 202.49C29.1655 202.15 29.2012 201.778 29.2355 201.432C29.6686 197.337 29.851 193.725 30.3709 188.363C30.399 188.05 30.3403 185.028 30.2957 183.024C30.2512 180.812 30.2246 178.524 30.2399 176.186C30.2688 171.522 30.4616 166.678 30.8904 161.75C31.47 155.009 32.0836 148.077 32.5108 141.319C32.7184 138.21 33.1975 135.721 33.3995 133.679C33.7163 131.69 33.1782 130.119 33.643 131.264C32.8184 130.021 30.3432 127.201 28.4333 125.149C26.4133 122.974 24.33 120.84 22.3284 118.954C19.0292 115.882 16.1171 112.066 14.2921 107.766C12.12 102.636 10.3447 97.5099 9.36359 92.2627C8.59737 88.0206 8.15257 84.3316 7.68146 81.0762C7.33148 78.6071 7.04153 76.7566 6.81577 75.355C4.98939 60.3663 9.98305 86.719 7.33324 67.5832C7.11831 63.9803 6.9287 60.2544 7.63617 56.2841C8.04778 53.0177 7.91085 48.8359 8.34797 46.0878C8.45163 45.2169 8.56323 44.4798 8.67208 44.0204C9.25957 40.8887 11.3655 36.3153 14.0719 33.7898C16.7266 31.0215 20.1892 27.5215 24.3544 25.2541C26.9358 23.8733 29.9241 21.2795 34.3784 19.24C37.2775 17.9622 40.0142 16.4213 43.1514 14.6139C46.2564 12.7922 50.4692 11.0495 54.9133 10.7661C56.7231 10.6323 58.7997 10.3501 61.055 10.0941C65.3643 9.63953 61.0493 9.32025 64.7637 8.98428C67.3982 8.7685 70.0516 8.66633 72.693 8.64632C79.8024 8.57504 87.5144 8.60995 93.7324 8.2101C95.4095 8.05986 97.3355 7.6379 99.3839 7.10064C101.462 6.55068 102.591 6.13231 103.598 5.78208C104.734 5.46034 105.116 5.005 108.474 4.85388C110.718 4.93554 112.644 5.40547 114.939 7.42255C115.627 8.06453 116.293 8.88457 116.813 9.88484C118.571 13.3 119.528 16.7158 120.191 19.7401C120.677 22.133 121.869 25.5234 122.462 29.3025C122.931 32.3245 123.682 35.6207 124.423 39.1965C124.717 40.5754 124.924 41.9898 124.996 43.5357C125.032 44.2426 124.691 42.227 124.387 41.5955C123.949 41.0701 124.56 41.0548 124.187 47.4418C123.948 49.1325 123.454 51.2281 121.829 53.3447C118.691 57.1669 115.209 58.3655 114.08 59.4301C115.954 57.5812 115.566 57.1856 115.748 56.9217C115.806 56.6879 115.795 56.679 115.791 56.7087C115.774 56.7848 115.746 57.0623 115.729 57.3569C115.691 57.9655 115.671 58.7257 115.651 59.5059C115.61 61.0788 115.564 62.7923 115.426 64.5752C115.066 68.1416 114.816 72.1081 111.971 76.6627C111.462 77.4237 110.941 78.18 110.213 79.0649C109.822 79.5214 109.468 79.9746 108.598 80.7035C108.056 81.0535 107.783 81.6276 105.477 82.1946C104.389 82.5002 101.726 82.183 100.286 80.7766C98.8783 79.4663 98.6447 78.4999 98.4063 77.8355C97.1332 73.3099 96.9562 69.9188 96.5779 66.3214C96.4005 64.3678 96.1202 63.1996 95.8683 61.8042C95.7432 61.1059 95.6278 60.3513 95.5465 59.429C95.5061 58.9797 95.4737 58.457 95.4531 57.9176C95.4424 57.6304 95.4346 57.3402 95.4296 57.0689C95.4265 56.9093 95.425 56.7929 95.4231 56.6676C95.4229 56.6222 95.4211 56.5608 95.4252 56.6043C95.4333 56.6478 95.41 56.5852 95.4888 57.131C95.5009 57.2055 95.5164 57.2951 95.5407 57.4135C95.5529 57.4728 95.5674 57.5395 95.5858 57.6169C95.6579 57.8819 95.7094 58.2185 96.0958 59.0385C96.3109 59.4543 96.588 60.0297 97.3959 60.8612C98.1496 61.6452 99.8985 62.8892 102.26 62.8763C104.619 62.873 106.283 61.6765 107.026 60.9381C107.817 60.1513 108.1 59.6047 108.319 59.207C108.732 58.3805 108.742 58.1817 108.754 58.1806C108.792 58.0641 108.821 57.967 108.845 57.8823C108.892 57.7134 108.919 57.5925 108.941 57.4937C109.019 57.1148 109.023 57.0161 109.034 56.9334C108.886 57.6357 108.805 59.4775 108.663 59.2951C108.668 59.3326 108.674 59.3702 108.679 59.4077C108.842 60.5927 108.458 60.5804 108.389 61.536C108.273 62.1861 108.617 65.3659 109.504 65.5744C108.426 64.2501 107.533 64.1875 108.912 64.5764C108.914 64.577 108.916 64.5776 108.917 64.5782C110.55 64.9303 115.368 68.1703 117.561 68.6242C119.838 69.2451 122.894 69.843 126.193 70.8217C127.963 71.2368 133.811 72.1432 136.818 73.5684C137.102 73.6895 137.372 73.8097 137.636 73.9309C139.963 74.94 145.173 78.1597 149.872 79.715C150.067 79.7786 150.291 79.838 150.537 79.8907C151.167 80.0001 148.809 78.8134 152.645 79.595C154.637 80.0889 157.551 80.0733 161.438 83.0247C163.406 84.6122 164.802 85.2227 167.405 85.7365C172.137 86.6813 175.291 87.7128 178.723 87.8709C185.021 88.2922 191.231 88.9606 197.358 89.6647C198.096 89.7483 199.053 89.8111 200.175 89.9209C202.888 90.2285 202.415 90.0442 202.006 89.7683C201.835 89.6478 201.747 89.5371 202.299 89.5574C202.922 89.6992 203.866 89.3368 207.58 91.2474C209.162 92.1357 211.024 93.879 212.016 95.9684C213.301 98.7948 213.296 100.823 212.817 103.243C212.334 104.658 212.295 108.137 207.751 111.536C207.476 111.46 205.644 114.393 201.404 117.351C198.005 119.421 195.847 119.638 194.275 120.167C192.695 120.622 191.565 121.03 190.505 121.57C189.145 122.04 185.995 125.545 179.922 127.079C176.577 127.807 172.685 128.843 168.293 129.049C165.239 129.152 162.361 129.716 158.4 130.048C156.149 130.211 154.94 130.116 154.421 130.039C153.913 129.947 154.098 129.84 154.424 129.746C154.887 129.632 155.586 129.52 155.361 129.499C155.044 129.469 154.735 129.439 154.427 129.407C147.074 128.543 142.517 129.501 139.872 129.351C136.799 129.189 133.675 128.781 131.185 128.449C121.667 126.842 115.297 125.221 107.27 123.986C104.284 123.496 101.233 123.201 97.7977 122.976C93.7606 122.704 96.5717 123.565 95.7621 123.559C90.4381 123.475 90.8698 123.156 90.7107 122.831C90.6138 122.631 90.3631 122.403 88.4193 122.196C80.1299 121.43 71.0069 119.947 62.3961 118.145C56.0144 116.579 53.1999 114.697 49.7005 114.226C47.357 113.813 45.0625 113.45 42.88 113.189C37.9879 112.704 43.2924 113.944 39.1096 113.631C38.0744 113.581 37.081 113.596 36.4638 113.672C35.8347 113.693 35.7385 114.057 36.8953 113.229C35.4074 114.466 33.9615 115.778 32.826 116.997C32.2662 117.595 31.7775 118.199 31.5516 118.546C31.1975 118.718 31.8657 119.501 31.705 115.994C31.9273 117.51 31.9258 117.985 31.9345 117.931C31.9061 117.859 31.9326 117.586 31.4635 116.629C31.1343 115.755 29.1867 113.628 27.0555 113.253C30.1908 113.96 35.0475 114.215 39.8904 114.92C47.9162 116.183 55.7686 116.192 65.1163 117.445C73.1659 118.645 81.1347 119.85 88.9786 121.089C89.804 121.22 90.4247 121.334 90.8724 121.432C93.2289 121.944 91.0194 122.061 91.9056 122.296C96.8591 123.636 103.051 123.742 108.874 124.568C111.173 124.931 113.005 125.17 113.857 125.321C120.234 126.442 124.441 127.36 128.675 128.362C131.948 129.139 135.101 129.814 139.638 130.417C140.853 130.581 142.106 130.745 143.397 130.927C150.303 132.036 155.841 133.921 160.858 134.427C163.222 134.664 165.813 134.765 168.307 134.736C169.553 134.72 170.793 134.669 171.91 134.567C172.835 134.553 174.643 134.003 173.356 134.479C178.517 132.047 182.767 129.348 187.613 126.129C190.616 124.179 192.947 122.062 196.994 119.249C201.412 116.769 202.14 116.975 202.827 116.388C203.377 115.989 203.788 115.524 204.3 114.331C205.334 112.32 205.163 107.553 204.695 106.993C205.152 107.27 203.351 106.124 199.637 102.692C198.573 101.546 196.888 100.495 194.706 99.6134C193.833 99.1363 188.961 98.6929 184.744 96.9849C181.261 95.5724 178.665 94.6321 176.512 94.5117C169.348 94.0817 162.761 92.5572 156.745 91.2482C153.764 90.584 150.763 89.9334 147.778 89.21C146.729 88.9566 145.69 88.6976 144.659 88.4354C139.863 86.9745 138.104 86.2977 134.788 85.7746C131.718 85.2759 128.478 85.0566 125.204 84.9911C115.997 84.8129 107.18 84.8522 98.3404 85.1457C95.7958 85.2122 93.3519 85.384 91.3031 85.7768C89.1859 86.1775 88.0492 86.7078 85.05 88.0515C74.5466 92.1779 65.0403 94.7526 54.9848 97.4138C51.6248 98.2991 47.3006 99.2486 46.506 99.864C46.438 99.5887 43.9945 103.238 42.2552 106.422C41.0424 108.509 39.733 110.745 38.0125 113.06C37.1059 114.237 36.232 115.415 34.4844 116.866C33.5339 117.547 32.4939 118.59 29.5955 119.036C28.1654 119.239 26.1199 118.878 24.7186 117.996C23.2638 117.108 22.535 116.153 21.9872 115.331C19.0854 110.737 16.5207 106.723 13.7275 101.145C13.0498 99.7669 11.2509 96.6185 10.2531 93.9094C9.16658 91.1055 8.39422 88.2501 7.82387 85.4074C7.4873 83.7068 7.06855 81.9755 6.67176 79.8814C5.97382 75.292 5.81798 80.2454 5.38573 75.8564C5.32273 74.6711 5.35138 73.4154 5.48683 72.1917C5.98467 67.8925 5.68797 63.3814 6.81313 56.9748C7.9777 52.0633 9.58771 49.0427 9.60194 47.6285C9.88631 44.1808 10.3702 39.4993 11.1553 35.6192C11.4305 34.24 11.5878 32.5096 12.1105 30.1317C12.6004 27.8314 13.8547 24.4026 16.4133 21.9206C19.126 19.035 24.2134 15.5054 29.2557 14.8166C29.7549 14.7551 31.5405 14.1274 33.775 13.6352C34.9509 13.4054 36.3264 13.1141 38.4711 13.3097C40.5024 13.3962 44.1115 14.9201 45.7519 17.5144C47.686 20.5251 47.7645 22.1244 48.1111 22.7761C48.8072 24.6181 50.2545 26.2986 53.0007 29.5944C55.4407 32.5835 57.297 36.4127 58.4895 38.6781C59.5098 40.6845 62.4003 44.7195 62.2854 50.3155C62.1045 54.1979 62.4331 58.9026 59.8101 64.5933C56.3296 70.7129 53.1373 71.6861 51.6872 73.5424C51.1771 74.0689 50.67 74.5921 50.1668 75.1125C47.8022 77.5684 51.6864 74.5831 48.004 78.4817C46.5382 80.058 45.2381 81.5461 44.5492 82.7139C45.3919 81.1747 45.1324 81.3344 45.1901 81.2988C45.1821 81.3371 45.1459 81.5431 45.1153 81.789C45.0522 82.2838 44.9964 82.9463 44.9538 83.6421C44.8688 85.0301 44.8251 86.5818 44.795 88.1548C44.7648 89.733 44.7511 91.3501 44.7251 93.0322C44.7107 93.8789 44.6981 94.7073 44.6541 95.718C44.5965 96.3778 44.7116 96.3431 44.3689 98.3162C44.331 98.4918 44.2835 98.6932 44.2105 98.9455C44.1349 99.1486 44.0879 99.5618 43.4739 100.715C43.1529 101.271 42.7015 102.024 41.6664 102.934C41.1362 103.386 40.5001 103.843 39.5515 104.254C38.3463 104.786 36.7406 105.041 35.3201 104.845C32.3786 104.414 30.9733 102.938 30.2527 102.169C29.421 101.174 29.5142 101.179 29.3323 100.913C28.4088 99.2154 28.5312 99.0484 28.3941 98.7036C28.2012 97.9938 28.188 97.8656 28.1068 97.4751C28.5494 99.2177 28.6075 98.9189 28.6244 99.0399C28.6329 99.0522 28.5714 98.931 28.4948 98.7839C28.3366 98.4794 28.1096 98.0421 27.8847 97.5536C27.4319 96.5699 26.9564 95.3387 26.674 93.8654C25.6453 88.5779 27.7693 84.1949 29.0681 81.8508C29.5577 80.9734 29.8976 80.4588 30.132 80.1263C30.0551 80.4818 30.306 80.3739 30.5024 80.3479C30.4691 80.5423 30.4848 80.6478 30.669 80.4476C30.6728 80.5303 30.6435 80.8264 30.8454 80.2559C31.4823 78.788 31.2454 75.1369 34.3036 70.1638C36.0382 67.6037 38.4106 65.8059 40.9327 64.6854C44.3681 63.1823 47.6769 61.9936 50.8613 60.8069C53.7751 59.721 56.6349 58.8567 59.3605 58.0394C62.6886 57.0631 65.5715 56.4635 68.3227 55.7441C68.8926 55.5972 69.3027 55.4786 69.5948 55.3834C70.87 54.9551 69.7652 55.025 69.4736 54.9146C69.4001 54.8894 69.375 54.854 69.4437 54.7988C69.6057 54.6611 70.2765 54.4431 72.1595 53.873C73.7467 53.3907 75.4166 52.8187 77.3093 52.2322C81.6613 50.9363 85.2818 50.5048 88.8349 49.9693C90.0165 49.7834 93.2218 49.0392 95.7233 48.7713C98.3423 48.4542 100.871 48.325 103.346 48.284C108.286 48.2112 113.04 48.4746 117.732 48.8528C122.335 49.2583 125.76 50.0408 128.967 50.2223C132.19 50.4488 135.507 50.3081 138.982 49.9299C141.557 49.6139 146.042 48.9411 149.836 49.1368C153.698 49.2668 157.226 49.7715 160.681 50.3736C162.894 50.7752 165.108 51.0623 167.934 51.6573C169.367 51.9937 170.988 52.3128 173.265 53.484C175.514 54.4757 178.655 57.8773 179.251 60.94C180.277 64.6738 179.298 68.2792 178.676 70.1364C177.713 73.1256 176.317 75.8915 175.628 77.6209C174.949 79.3891 174.863 79.9709 174.988 81.4888C175.3 84.6499 175.228 86.6496 175.435 87.5492C175.499 87.9767 175.585 87.7828 175.028 87.1657C174.461 86.5296 173.539 86.2935 173.567 86.3427C179.103 87.1159 185.648 87.2571 191.501 86.901C192.331 86.8438 193.127 86.8738 193.902 86.9153C194.486 87.0514 196.055 86.6859 194.89 87.3946C196.873 86.615 199.252 85.583 202.078 83.706C202.32 83.0704 202.036 82.6711 201.998 82.1725C202.115 82.0992 202.232 82.0253 202.348 81.9521C204.301 80.7544 206.655 78.0294 206.922 76.9199C208.054 73.6619 208.712 70.7923 208.505 68.6381C208.249 65.4088 207.94 62.4558 207.306 59.8055C206.944 58.2362 205.867 56.5868 203.908 54.878C201.482 52.8407 197.104 50.4049 193.418 48.9181C190.649 47.7105 186.327 47.2318 185.788 47.5946C183.167 48.38 182.057 48.5012 181.716 48.6823C181.401 48.9006 182.259 48.2104 182.209 48.0838C181.824 48.8895 181.36 50.8044 180.707 52.9536C178.024 61.0292 176.267 65.8631 177.41 71.8168C178.029 75.5125 178.983 78.5823 180.387 80.4489C181.998 82.7341 184.348 84.9146 184.975 85.0828C183.111 84.4966 183.539 84.8983 184.198 84.7236C184.897 84.6319 185.945 84.4504 187.052 84.3086C192.581 83.5856 198.261 82.7314 203.654 81.7165C207.425 80.9932 211.75 79.8267 214.139 78.5866C217.019 77.0288 220.162 75.8308 223.198 75.0095C226.061 74.2294 228.795 73.4671 231.501 72.6058C233.764 71.8911 236.009 70.9696 238.366 69.892C241.923 68.4791 243.168 68.3677 244.581 67.7305C245.999 67.2067 245.7 66.6241 245.167 68.1616C246.037 64.1175 246.14 58.3794 245.694 53.6298C245.381 51.1977 245.182 55.0502 244.503 51.1057C244.5 51.0931 244.497 51.0814 244.494 51.0708C243.794 48.4671 242.607 45.7997 241.193 42.5872C239.745 39.2297 238.311 36.7423 236.538 35.0299C232.578 31.1922 229.386 27.6469 225.999 25.5298C223.038 23.567 221.83 23.0196 220.041 22.8637C212.834 22.2525 206.631 21.5745 199.883 21.334C192.36 21.0276 184.663 20.8203 176.766 20.3489C171.952 20.0538 167.435 19.5996 162.88 19.3446C160.154 19.1923 160.685 18.3374 156.102 17.9642C154.793 17.861 153.081 17.7991 150.75 17.8113C148.894 17.8043 133.031 17.8416 128.954 18.1804C128.401 18.2287 131.278 18.8669 126.197 18.9061C123.243 18.9337 120.265 18.9728 117.369 19.0627C111.559 19.2592 105.635 19.374 99.9947 19.6815C91.4255 20.1665 82.6343 20.3624 74.5607 20.827C71.042 21.0767 67.7384 21.1303 64.5263 21.2229C61.4268 21.3105 57.8941 21.4265 56.0861 21.7828C50.6165 22.727 48.7951 22.8594 45.2577 24.3281C42.2934 25.4863 40.3178 25.9145 38.2157 26.5742C33.9243 27.9177 38.2304 25.7469 35.2007 26.726C32.5877 27.6026 30.0973 28.6357 27.8009 29.9146C25.574 31.1548 24.0217 32.5377 22.6808 34.5823C22.5183 34.6153 21.8382 37.4818 21.5872 39.8469C21.2516 42.3686 21.0186 45.0831 20.2993 48.2011C19.255 52.5165 18.5225 55.5677 18.7731 59.0312C19.0279 63.8415 19.0324 68.3864 19.1296 72.7942C19.1763 74.9863 19.2358 77.1484 19.3615 79.1829C19.4475 81.0809 19.8246 83.5777 19.9245 83.8193C19.9219 83.8156 19.9188 83.8109 19.915 83.8049C24.9321 94.5435 23.8942 94.6715 24.1824 97.7072C24.2445 98.5905 24.4044 99.7515 24.8182 101.578C25.0818 102.721 28.4686 111.73 27.9903 112.438C26.8207 114.232 23.4234 110.551 22.3689 112.976C22.2231 113.571 26.7755 125.099 23.443 118.545C23.2363 118.099 19.6759 109.519 18.547 107.488C17.7717 106.082 18.1423 109.016 16.7138 106.073C16.0217 104.649 15.4925 103.079 14.8716 101.272C14.2923 99.5585 13.5352 97.6393 12.2147 95.3232C10.4119 92.181 9.96321 92.3537 8.24925 89.5173C6.57414 86.0433 6.39015 83.7523 5.9933 80.007ZM205.681 175.518C204.359 167.109 201.678 166.375 204.396 175.248C204.525 175.665 205.745 175.946 205.681 175.518ZM114.401 145.374C115.461 143.202 115.534 140.415 115.473 140.927C114.222 139.727 113.235 139.206 113.018 139.341C112.88 139.424 113.275 139.516 113.595 139.305C113.093 140.24 113.267 140.526 114.239 139.884C113.957 140.428 113.137 140.801 112.786 140.8C112.735 140.811 112.692 140.818 112.667 140.828C112.505 140.861 113.283 141.472 114.195 142.351C113.058 140.763 113.911 141.614 113.722 142.447C113.7 143.304 113.619 144.22 113.614 144.885C113.586 146.239 113.874 146.646 114.401 145.374ZM164.186 222.954C157.731 221.469 153.899 220.947 153.311 221.505C152.731 221.996 155.519 223.721 162.733 224.65C163.572 224.756 164.937 223.126 164.186 222.954ZM15.5652 65.8743C15.5371 66.0002 15.6751 72.8933 15.724 73.0484C16.5969 76.6878 16.2922 62.9235 15.5652 65.8743ZM142.117 208.39C142.799 208.64 143.72 208.925 144.739 209.247C149.423 210.705 156.618 211.836 152.662 210.427C150.91 209.788 147.572 208.998 144.995 208.367C141.718 207.586 139.474 207.46 142.117 208.39ZM169.065 345.423C169.107 345.557 168.491 350.519 168.546 350.466C169.559 350.279 169.827 343.154 169.065 345.423ZM102.942 216.345C101.147 217.16 99.4319 218.021 97.8276 218.93C94.2534 220.98 90.7901 222.422 88.33 224.524C81.8261 229.891 76.707 232.182 75.9254 232.279C74.9733 232.179 78.6854 229.89 86.7939 222.858C87.3311 222.368 87.9162 221.894 88.5394 221.445C90.7865 219.964 88.9449 221.216 87.0897 223.179C84.9977 225.501 82.1902 228.121 85.3937 225.685C86.1829 225.062 86.9302 224.427 87.6461 223.782C90.7589 221.037 94.1101 219.514 97.0009 217.532C100.079 215.529 103.236 213.833 106.808 212.455L106.74 212.482C107.702 212.053 108.677 211.483 109.704 210.884C111.592 209.771 113.602 208.583 115.796 207.399C116.937 206.772 113.849 209.412 110.407 212.057C109.447 212.781 108.449 213.505 107.416 214.063C107.411 214.066 107.395 214.072 107.39 214.074C105.169 215.133 103.388 216.15 102.898 216.37C102.913 216.362 102.928 216.354 102.942 216.345ZM207.398 170.079C207.396 169.998 207.052 168.531 206.747 166.947C206.392 165.104 206.044 163.111 206.009 163.028C205.238 161.118 205.573 164.267 206.145 167.066C206.638 169.418 207.355 171.45 207.398 170.079ZM38.5912 321.994C38.4569 322.185 37.8729 331.64 35.9758 335.276C35.2692 336.592 34.7362 337.416 34.6823 337.525C33.434 339.936 34.95 338.8 36.787 335.718C39.7475 329.808 39.6834 317.416 38.5912 321.994ZM97.0622 253.729C92.7277 253.147 87.9365 252.294 83.5784 251.219C80.2831 250.407 77.4283 249.099 75.2533 247.756C77.9579 248.903 80.7741 249.91 83.7207 250.587C88.1777 251.61 92.6415 252.628 97.0622 253.729Z" fill="black"/>
</svg>
